<?xml version="1.0" encoding="utf-8"?>
<!-- Generator: Adobe Illustrator 18.1.0, SVG Export Plug-In . SVG Version: 6.00 Build 0)  -->
<svg version="1.1" id="Layer_1" xmlns="http://www.w3.org/2000/svg" xmlns:xlink="http://www.w3.org/1999/xlink" x="0px" y="0px"
	 viewBox="0 0 434.242 164.052" enable-background="new 0 0 434.242 164.052" xml:space="preserve">
<g>
	<g>
		<g>
			<path fill="#54A2F7" d="M229.254,28.569V46.33c-3.047-3.719-5.783-6.273-8.193-7.663c-2.377-1.425-5.172-2.135-8.376-2.135
				c-5.033,0-9.213,1.76-12.539,5.285c-3.326,3.522-4.992,7.943-4.992,13.248c0,5.431,1.606,9.882,4.813,13.37
				c3.247,3.485,7.389,5.228,12.418,5.228c3.207,0,6.038-0.691,8.492-2.08c2.376-1.344,5.171-3.958,8.378-7.842v17.646
				c-5.426,2.812-10.851,4.216-16.277,4.216c-8.952,0-16.438-2.889-22.456-8.674c-6.025-5.82-9.031-13.051-9.031-21.681
				c0-8.639,3.048-15.922,9.146-21.863c6.104-5.94,13.586-8.917,22.456-8.917C218.799,24.467,224.182,25.834,229.254,28.569z"/>
			<path fill="#54A2F7" d="M260.44,26.072v57.866h-13.369V26.072H260.44z"/>
			<path fill="#54A2F7" d="M289.426,26.072l14.971,32.499l14.914-32.499h15.029L304.282,87.92l-29.826-61.849H289.426z"/>
			<path fill="#54A2F7" d="M361.608,26.072v57.866h-13.369V26.072H361.608z"/>
			<path fill="#54A2F7" d="M428.438,28.569v17.763c-3.051-3.72-5.785-6.274-8.201-7.663c-2.375-1.425-5.17-2.136-8.375-2.136
				c-5.029,0-9.211,1.76-12.537,5.285c-3.326,3.524-4.992,7.943-4.992,13.248c0,5.431,1.605,9.882,4.811,13.37
				c3.248,3.485,7.387,5.228,12.418,5.228c3.207,0,6.037-0.691,8.494-2.08c2.373-1.344,5.164-3.958,8.379-7.842v17.647
				c-5.43,2.812-10.854,4.215-16.277,4.215c-8.953,0-16.438-2.889-22.459-8.673c-6.025-5.821-9.029-13.052-9.029-21.682
				c0-8.639,3.047-15.922,9.146-21.863c6.102-5.94,13.584-8.917,22.455-8.917C417.983,24.468,423.366,25.834,428.438,28.569z"/>
		</g>
		<g>
			<path fill="#2579CC" d="M207.242,116.17c-1.672-2.039-4.201-3.263-6.77-3.263c-5.751,0-9.055,5.302-9.055,10.604
				c0,5.18,3.426,10.359,9.014,10.359c2.57,0,5.14-1.346,6.811-3.263v7.138c-2.243,1.061-4.486,1.836-6.975,1.836
				c-8.646,0-15.05-7.465-15.05-15.948c0-8.729,6.158-16.437,15.173-16.437c2.406,0,4.771,0.652,6.852,1.794V116.17z"/>
			<path fill="#2579CC" d="M231.635,139.582c-9.381,0-15.213-7.179-15.213-16.233c0-9.137,6.035-16.151,15.213-16.151
				c9.178,0,15.213,7.015,15.213,16.151C246.848,132.404,241.016,139.582,231.635,139.582z M231.635,113.112
				c-5.67,0-9.014,5.017-9.014,9.992c0,4.731,2.365,10.564,9.014,10.564c6.648,0,9.014-5.833,9.014-10.564
				C240.649,118.128,237.305,113.112,231.635,113.112z"/>
			<path fill="#2579CC" d="M279.44,119.678h-0.082l-6.975,19.496h-2.08l-6.729-19.496h-0.082l-2.732,19.088h-6.037l5.18-31.568
				h4.242l7.586,20.271l7.26-20.271h4.324l4.609,31.568h-6.037L279.44,119.678z"/>
			<path fill="#2579CC" d="M320.229,119.678h-0.08l-6.975,19.496h-2.08l-6.73-19.496h-0.082l-2.733,19.088h-6.037l5.182-31.568h4.24
				l7.588,20.271l7.26-20.271h4.322l4.609,31.568h-6.037L320.229,119.678z"/>
			<path fill="#2579CC" d="M351.801,139.582c-9.381,0-15.213-7.179-15.213-16.233c0-9.137,6.037-16.151,15.213-16.151
				c9.178,0,15.215,7.015,15.215,16.151C367.016,132.404,361.182,139.582,351.801,139.582z M351.801,113.112
				c-5.668,0-9.014,5.017-9.014,9.992c0,4.731,2.367,10.564,9.014,10.564c6.648,0,9.016-5.833,9.016-10.564
				C360.817,118.128,357.471,113.112,351.801,113.112z"/>
			<path fill="#2579CC" d="M376.645,107.198h4.324l16.191,21.494h0.082v-20.679h5.996v31.365h-4.324l-16.193-21.495h-0.08v20.883
				h-5.996V107.198z"/>
			<path fill="#2579CC" d="M428.772,114.784c-1.141-1.55-2.609-2.528-4.607-2.528c-1.918,0-3.754,1.468-3.754,3.467
				c0,5.18,12.195,3.018,12.195,13.337c0,6.159-3.834,10.523-10.115,10.523c-4.24,0-7.342-2.447-9.461-5.996l3.873-3.793
				c0.816,2.365,2.979,4.486,5.547,4.486c2.447,0,3.957-2.08,3.957-4.445c0-3.182-2.936-4.079-5.344-5.018
				c-3.955-1.631-6.852-3.63-6.852-8.401c0-5.099,3.793-9.218,8.973-9.218c2.734,0,6.527,1.346,8.402,3.426L428.772,114.784z"/>
		</g>
	</g>
	<g>
		<g>
			<path fill="#54A2F7" d="M81.933,153.644c0.271,0,0.543-0.001,0.812-0.003l0,0l0.01,0.909c-0.273,0.003-0.547,0.005-0.823,0.005
				l0,0V153.644L81.933,153.644z M80.194,154.537l0.02-0.911c0.273,0.006,0.543,0.012,0.815,0.015l0,0l-0.013,0.909
				C80.743,154.548,80.467,154.541,80.194,154.537L80.194,154.537z M83.648,153.624c0.272-0.008,0.542-0.015,0.812-0.025l0,0v0.002
				l0.032,0.908c-0.274,0.009-0.547,0.018-0.821,0.024l0,0L83.648,153.624L83.648,153.624z M78.455,154.476l0.041-0.909
				c0.273,0.013,0.543,0.023,0.815,0.034l0,0l-0.032,0.909C79.003,154.5,78.729,154.49,78.455,154.476L78.455,154.476z
				 M85.363,153.561c0.27-0.013,0.542-0.028,0.812-0.044l0,0v-0.001l0.055,0.911c-0.273,0.015-0.549,0.03-0.823,0.045l0,0
				L85.363,153.561L85.363,153.561z M76.72,154.375l0.062-0.908c0.272,0.018,0.542,0.036,0.812,0.053l0,0l-0.052,0.907
				C77.267,154.411,76.993,154.395,76.72,154.375L76.72,154.375z M87.078,153.459c0.271-0.021,0.541-0.042,0.81-0.064l0,0
				l0.076,0.908c-0.274,0.021-0.547,0.043-0.822,0.062l0,0L87.078,153.459L87.078,153.459z M74.985,154.233l0.085-0.906
				c0.27,0.025,0.54,0.049,0.81,0.072l0,0l-0.076,0.906C75.533,154.283,75.26,154.258,74.985,154.233L74.985,154.233z
				 M88.789,153.316c0.271-0.026,0.538-0.054,0.809-0.083l0,0l0.099,0.905c-0.274,0.03-0.548,0.057-0.821,0.083l0,0L88.789,153.316
				L88.789,153.316z M73.255,154.049l0.107-0.903c0.269,0.03,0.539,0.062,0.808,0.091l0,0l-0.095,0.904
				C73.802,154.111,73.53,154.08,73.255,154.049L73.255,154.049z M90.496,153.131c0.269-0.032,0.539-0.065,0.807-0.101l0,0v-0.001
				l0.119,0.903c-0.272,0.036-0.544,0.07-0.817,0.101l0,0L90.496,153.131L90.496,153.131z M71.531,153.824l0.129-0.901
				c0.267,0.038,0.537,0.075,0.806,0.11l0,0l-0.117,0.902C72.075,153.9,71.803,153.862,71.531,153.824L71.531,153.824z
				 M92.199,152.906c0.269-0.04,0.537-0.08,0.805-0.121l0,0v0.001l0.14,0.898c-0.271,0.042-0.542,0.084-0.814,0.121l0,0
				L92.199,152.906L92.199,152.906z M69.812,153.556l0.151-0.896c0.267,0.045,0.535,0.088,0.803,0.13l0,0l-0.139,0.899
				C70.354,153.646,70.084,153.601,69.812,153.556L69.812,153.556z M93.896,152.64c0.268-0.043,0.534-0.091,0.802-0.14l0,0v0.002
				l0.161,0.894c-0.269,0.048-0.539,0.096-0.81,0.141l0,0L93.896,152.64L93.896,152.64z M68.1,153.249l0.172-0.894
				c0.266,0.052,0.533,0.101,0.799,0.15l0,0l-0.161,0.895C68.64,153.352,68.37,153.301,68.1,153.249L68.1,153.249z M95.586,152.333
				c0.266-0.053,0.533-0.106,0.796-0.159l0,0v-0.002l0.184,0.893c-0.268,0.056-0.539,0.109-0.807,0.162l0,0L95.586,152.333
				L95.586,152.333z M66.397,152.9l0.193-0.887c0.265,0.056,0.53,0.111,0.795,0.166l0,0l-0.182,0.891
				C66.933,153.015,66.665,152.959,66.397,152.9L66.397,152.9z M97.267,151.987c0.267-0.059,0.53-0.117,0.794-0.178l0,0l0.205,0.886
				c-0.268,0.062-0.534,0.122-0.804,0.181l0,0L97.267,151.987L97.267,151.987z M64.701,152.511l0.215-0.886
				c0.263,0.064,0.527,0.126,0.792,0.189l0,0l-0.204,0.885C65.235,152.638,64.969,152.576,64.701,152.511L64.701,152.511z
				 M98.941,151.599c0.265-0.064,0.527-0.131,0.789-0.198l0,0l0.226,0.882c-0.265,0.067-0.532,0.134-0.8,0.2l0,0L98.941,151.599
				L98.941,151.599z M63.015,152.079l0.236-0.876c0.262,0.069,0.523,0.138,0.788,0.206l0,0l-0.227,0.88
				C63.546,152.22,63.28,152.151,63.015,152.079L63.015,152.079z M100.604,151.173c0.261-0.072,0.522-0.145,0.784-0.218l0,0
				l0.249,0.874c-0.265,0.075-0.53,0.147-0.796,0.22l0,0L100.604,151.173L100.604,151.173z M61.342,151.609l0.256-0.874
				c0.26,0.075,0.52,0.152,0.782,0.225l0,0l-0.247,0.877C61.869,151.762,61.605,151.686,61.342,151.609L61.342,151.609z
				 M98.06,151.807l0.002,0.002c-0.001,0-0.001,0-0.001,0l0,0L98.06,151.807L98.06,151.807z M102.255,150.704
				c0.262-0.077,0.521-0.156,0.78-0.235l0,0l0.269,0.868c-0.262,0.082-0.524,0.161-0.789,0.24l0,0L102.255,150.704L102.255,150.704z
				 M59.676,151.094l0.278-0.864c0.258,0.083,0.519,0.164,0.777,0.245l0,0l-0.268,0.869
				C60.202,151.263,59.936,151.18,59.676,151.094L59.676,151.094z M103.897,150.195c0.259-0.085,0.515-0.168,0.773-0.255l0,0
				l0.289,0.863c-0.26,0.087-0.521,0.174-0.783,0.257l0,0L103.897,150.195L103.897,150.195z M101.386,150.953l0.003,0.003
				c-0.001,0-0.001,0-0.001,0l0,0L101.386,150.953L101.386,150.953z M58.019,150.54l0.298-0.859
				c0.257,0.091,0.516,0.177,0.773,0.265l0,0l-0.289,0.863C58.541,150.723,58.28,150.632,58.019,150.54L58.019,150.54z
				 M105.525,149.648c0.256-0.091,0.513-0.182,0.768-0.273l0,0l0.31,0.855c-0.259,0.094-0.517,0.187-0.777,0.275l0,0
				L105.525,149.648L105.525,149.648z M60.731,150.475l0.001-0.002L60.731,150.475C60.732,150.475,60.732,150.475,60.731,150.475
				L60.731,150.475z M56.376,149.946l0.321-0.851c0.255,0.097,0.51,0.189,0.765,0.282l0,0v0.001l-0.31,0.854
				C56.893,150.139,56.635,150.044,56.376,149.946L56.376,149.946z M107.139,149.061c0.255-0.095,0.508-0.193,0.76-0.291l0,0
				l0.33,0.848c-0.255,0.1-0.513,0.198-0.769,0.295l0,0L107.139,149.061L107.139,149.061z M54.75,149.314l0.342-0.843
				c0.251,0.102,0.504,0.203,0.757,0.3l0,0l-0.33,0.848C55.262,149.519,55.007,149.418,54.75,149.314L54.75,149.314z
				 M108.739,148.435c0.251-0.1,0.5-0.205,0.747-0.307l0,0h0.003l0.351,0.84c-0.252,0.103-0.506,0.21-0.759,0.311l0,0
				L108.739,148.435L108.739,148.435z M53.14,148.641l0.36-0.835c0.25,0.108,0.501,0.215,0.75,0.319l0,0v0.003l-0.349,0.838
				C53.647,148.858,53.393,148.75,53.14,148.641L53.14,148.641z M110.315,147.774c0.248-0.107,0.496-0.215,0.743-0.325l0,0
				l0.37,0.83c-0.249,0.113-0.5,0.222-0.75,0.33l0,0L110.315,147.774L110.315,147.774z M51.546,147.931l0.382-0.826
				c0.247,0.114,0.495,0.225,0.742,0.337l0,0l-0.371,0.831C52.049,148.159,51.797,148.045,51.546,147.931L51.546,147.931z
				 M111.877,147.077c0.246-0.115,0.49-0.229,0.733-0.346l0,0l0.391,0.822c-0.247,0.117-0.495,0.234-0.742,0.35l0,0L111.877,147.077
				L111.877,147.077z M49.973,147.183l0.4-0.818c0.244,0.119,0.49,0.238,0.735,0.355l0,0l-0.391,0.821
				C50.468,147.423,50.22,147.301,49.973,147.183L49.973,147.183z M113.423,146.34c0.242-0.119,0.483-0.24,0.725-0.362l0,0
				l0.41,0.812c-0.245,0.123-0.49,0.246-0.735,0.367l0,0L113.423,146.34L113.423,146.34z M48.416,146.395l0.421-0.807
				c0.24,0.125,0.482,0.25,0.726,0.372l0,0h-0.001l-0.41,0.812C48.906,146.648,48.66,146.521,48.416,146.395L48.416,146.395z
				 M114.95,145.566c0.24-0.125,0.478-0.251,0.718-0.38l0,0l0.429,0.803c-0.243,0.129-0.482,0.257-0.727,0.384l0,0L114.95,145.566
				L114.95,145.566z M46.881,145.571l0.439-0.797c0.238,0.131,0.477,0.262,0.715,0.389l0,0h0.002l-0.431,0.802
				C47.362,145.836,47.121,145.704,46.881,145.571L46.881,145.571z M116.459,144.756c0.234-0.131,0.471-0.262,0.706-0.395l0,0
				l0.449,0.789c-0.238,0.136-0.475,0.27-0.715,0.402l0,0L116.459,144.756L116.459,144.756z M45.366,144.71l0.457-0.784
				c0.234,0.137,0.47,0.27,0.706,0.406l0,0l-0.45,0.791C45.84,144.988,45.602,144.85,45.366,144.71L45.366,144.71z M117.947,143.909
				c0.234-0.136,0.467-0.273,0.7-0.414l0,0l0.467,0.78c-0.235,0.142-0.472,0.282-0.707,0.419l0,0L117.947,143.909L117.947,143.909z
				 M117.164,144.36h0.003c-0.001,0.001-0.001,0.001-0.001,0.001h-0.001L117.164,144.36L117.164,144.36z M43.869,143.815
				l0.478-0.775c0.23,0.142,0.463,0.284,0.697,0.424l0,0h-0.002l-0.467,0.78C44.34,144.102,44.104,143.958,43.869,143.815
				L43.869,143.815z M119.416,143.026c0.23-0.141,0.46-0.285,0.688-0.428l0,0v-0.001l0.488,0.771
				c-0.232,0.145-0.465,0.291-0.697,0.436l0,0L119.416,143.026L119.416,143.026z M42.398,142.882l0.497-0.761
				c0.227,0.147,0.455,0.295,0.686,0.439l0,0l-0.487,0.768C42.861,143.18,42.629,143.033,42.398,142.882L42.398,142.882z
				 M120.863,142.111c0.227-0.146,0.454-0.296,0.678-0.447l0,0l0.505,0.756c-0.227,0.153-0.455,0.304-0.686,0.454l0,0
				L120.863,142.111L120.863,142.111z M40.95,141.916l0.514-0.751c0.225,0.152,0.45,0.305,0.676,0.456l0,0l-0.506,0.757
				C41.405,142.226,41.176,142.072,40.95,141.916L40.95,141.916z M122.289,141.159c0.223-0.153,0.446-0.306,0.666-0.463l0,0
				l0.524,0.744c-0.226,0.158-0.45,0.314-0.677,0.469l0,0L122.289,141.159L122.289,141.159z M39.525,140.915l0.531-0.739
				c0.221,0.159,0.441,0.316,0.665,0.473l0,0l-0.523,0.744C39.973,141.236,39.748,141.075,39.525,140.915L39.525,140.915z
				 M123.693,140.173c0.218-0.158,0.438-0.317,0.655-0.478l0,0l0.541,0.733c-0.221,0.163-0.443,0.324-0.666,0.483l0,0
				L123.693,140.173L123.693,140.173z M38.126,139.88l0.547-0.724c0.217,0.163,0.434,0.325,0.652,0.488l0,0l-0.541,0.732
				C38.564,140.211,38.345,140.047,38.126,139.88L38.126,139.88z M125.072,139.155c0.215-0.165,0.43-0.329,0.643-0.495l0,0
				l0.003,0.001l0.557,0.718c-0.216,0.169-0.434,0.335-0.653,0.501l0,0L125.072,139.155L125.072,139.155z M36.748,138.813
				l0.568-0.71c0.211,0.168,0.425,0.336,0.638,0.502l0,0l-0.557,0.719C37.181,139.155,36.966,138.985,36.748,138.813L36.748,138.813
				z M126.426,138.102c0.213-0.168,0.423-0.337,0.632-0.51l0,0l0.576,0.706c-0.213,0.172-0.427,0.346-0.642,0.514l0,0
				L126.426,138.102L126.426,138.102z M37.954,138.605l0.002-0.001v0.001C37.955,138.605,37.955,138.605,37.954,138.605
				L37.954,138.605z M35.4,137.713l0.584-0.698c0.21,0.175,0.417,0.347,0.628,0.519l0,0l-0.575,0.704
				C35.823,138.065,35.612,137.891,35.4,137.713L35.4,137.713z M127.755,137.019c0.21-0.174,0.416-0.35,0.622-0.525l0,0l0.592,0.691
				c-0.208,0.18-0.417,0.355-0.629,0.533l0,0L127.755,137.019L127.755,137.019z M34.079,136.582l0.599-0.685
				c0.204,0.18,0.41,0.357,0.616,0.533l0,0l-0.593,0.691C34.494,136.943,34.286,136.763,34.079,136.582L34.079,136.582z
				 M129.061,135.901c0.204-0.176,0.406-0.357,0.608-0.537l0,0l0.606,0.676c-0.204,0.183-0.409,0.366-0.615,0.547l0,0
				L129.061,135.901L129.061,135.901z M32.786,135.42l0.616-0.67c0.199,0.185,0.398,0.366,0.601,0.547l0,0l-0.608,0.678
				C33.19,135.791,32.988,135.606,32.786,135.42L32.786,135.42z M130.338,134.756c0.2-0.184,0.398-0.369,0.594-0.554l0,0
				l0.624,0.663c-0.2,0.188-0.4,0.376-0.603,0.561l0,0L130.338,134.756L130.338,134.756z M31.518,134.227l0.633-0.654
				c0.194,0.189,0.391,0.376,0.587,0.562l0,0h0.001l-0.625,0.663C31.914,134.608,31.717,134.417,31.518,134.227L31.518,134.227z
				 M131.588,133.579c0.194-0.187,0.389-0.378,0.582-0.568l0,0v0.001l0.639,0.646c-0.197,0.193-0.393,0.386-0.59,0.576l0,0
				L131.588,133.579L131.588,133.579z M30.281,133.006l0.648-0.64c0.19,0.193,0.381,0.385,0.576,0.576l0,0l-0.64,0.646
				C30.668,133.395,30.475,133.201,30.281,133.006L30.281,133.006z M132.809,132.372c0.19-0.192,0.379-0.385,0.569-0.582l0,0
				l0.655,0.633c-0.193,0.196-0.383,0.393-0.576,0.589l0,0L132.809,132.372L132.809,132.372z M29.076,131.754l0.661-0.624
				c0.187,0.197,0.372,0.393,0.561,0.588l0,0v0.002l-0.655,0.631C29.452,132.153,29.263,131.954,29.076,131.754L29.076,131.754z
				 M134.002,131.137c0.186-0.198,0.371-0.396,0.553-0.595l0,0l0.671,0.616c-0.188,0.203-0.374,0.404-0.562,0.604l0,0
				L134.002,131.137L134.002,131.137z M27.897,130.476l0.678-0.608c0.182,0.203,0.363,0.402,0.546,0.602l0,0l-0.669,0.616
				C28.265,130.883,28.08,130.679,27.897,130.476L27.897,130.476z M135.164,129.873c0.181-0.203,0.363-0.404,0.543-0.609l0,0
				l0.682,0.601c-0.181,0.207-0.362,0.411-0.546,0.616l0,0L135.164,129.873L135.164,129.873z M26.753,129.168l0.691-0.592
				c0.175,0.207,0.353,0.41,0.531,0.614l0,0v0.002l-0.684,0.599C27.109,129.585,26.93,129.378,26.753,129.168L26.753,129.168z
				 M136.298,128.58c0.176-0.205,0.352-0.413,0.524-0.621l0,0v0.002l0.699,0.581c-0.177,0.212-0.354,0.421-0.533,0.629l0,0
				L136.298,128.58L136.298,128.58z M25.638,127.835l0.705-0.575c0.172,0.21,0.344,0.42,0.517,0.628l0,0l-0.698,0.581
				C25.986,128.26,25.812,128.048,25.638,127.835L25.638,127.835z M137.399,127.262c0.171-0.21,0.341-0.421,0.512-0.633l0,0
				l0.712,0.567c-0.172,0.215-0.344,0.429-0.519,0.642l0,0L137.399,127.262L137.399,127.262z M24.556,126.476l0.718-0.559
				c0.167,0.215,0.334,0.429,0.503,0.64l0,0l-0.712,0.565C24.894,126.909,24.723,126.694,24.556,126.476L24.556,126.476z
				 M138.47,125.917c0.166-0.213,0.332-0.428,0.497-0.645l0,0l0.723,0.551c-0.165,0.217-0.332,0.437-0.501,0.653l0,0L138.47,125.917
				L138.47,125.917z M23.508,125.092l0.73-0.542c0.161,0.219,0.324,0.436,0.487,0.651l0,0L24,125.751
				C23.834,125.532,23.67,125.313,23.508,125.092L23.508,125.092z M138.965,125.272h0.001c0,0,0,0,0,0l0,0L138.965,125.272
				L138.965,125.272z M139.508,124.549c0.161-0.22,0.322-0.439,0.48-0.658l0,0v-0.002l0.737,0.534
				c-0.162,0.224-0.323,0.445-0.485,0.666l0,0L139.508,124.549L139.508,124.549z M22.492,123.683l0.744-0.523
				c0.157,0.221,0.313,0.441,0.472,0.663l0,0h-0.002l-0.737,0.531C22.808,124.131,22.65,123.908,22.492,123.683L22.492,123.683z
				 M140.515,123.154c0.154-0.223,0.309-0.446,0.463-0.67l0,0l0.75,0.515c-0.156,0.227-0.312,0.452-0.47,0.677l0,0L140.515,123.154
				L140.515,123.154z M21.511,122.251l0.756-0.506c0.151,0.225,0.302,0.45,0.455,0.671l0,0l-0.75,0.515
				C21.817,122.706,21.662,122.477,21.511,122.251L21.511,122.251z M141.484,121.733c0.151-0.225,0.301-0.451,0.45-0.679l0,0
				l0.76,0.497c-0.148,0.23-0.3,0.46-0.453,0.687l0,0L141.484,121.733L141.484,121.733z M20.565,120.796l0.768-0.487
				c0.144,0.229,0.291,0.457,0.439,0.684l0,0l-0.763,0.495C20.859,121.257,20.71,121.027,20.565,120.796L20.565,120.796z
				 M142.423,120.292c0.146-0.229,0.29-0.46,0.432-0.691l0,0l0.773,0.479c-0.146,0.233-0.291,0.468-0.438,0.7l0,0L142.423,120.292
				L142.423,120.292z M19.654,119.318l0.778-0.466c0.14,0.232,0.282,0.462,0.423,0.693l0,0l-0.776,0.477
				C19.935,119.788,19.794,119.554,19.654,119.318L19.654,119.318z M143.327,118.829c0.139-0.234,0.278-0.467,0.413-0.701l0,0
				v-0.002l0.786,0.461c-0.138,0.236-0.278,0.475-0.419,0.711l0,0L143.327,118.829L143.327,118.829z M18.777,117.822l0.79-0.45
				c0.134,0.234,0.27,0.47,0.406,0.703l0,0l-0.786,0.46C19.05,118.298,18.913,118.06,18.777,117.822L18.777,117.822z
				 M144.193,117.341c0.135-0.236,0.267-0.474,0.399-0.711l0,0l0.797,0.441c-0.133,0.24-0.268,0.479-0.403,0.719l0,0
				L144.193,117.341L144.193,117.341z M17.939,116.305l0.8-0.433c0.129,0.24,0.258,0.476,0.388,0.713l0,0v0.001l-0.795,0.438
				C18.2,116.785,18.067,116.545,17.939,116.305L17.939,116.305z M145.024,115.835c0.128-0.238,0.257-0.479,0.382-0.72l0,0
				l0.806,0.421c-0.126,0.243-0.255,0.487-0.385,0.728l0,0L145.024,115.835L145.024,115.835z M17.136,114.765l0.811-0.41
				c0.122,0.242,0.246,0.481,0.371,0.72l0,0l-0.806,0.421C17.386,115.254,17.259,115.011,17.136,114.765L17.136,114.765z
				 M18.318,115.075L18.318,115.075l0.001,0.001C18.319,115.077,18.318,115.076,18.318,115.075L18.318,115.075z M145.819,114.309
				c0.123-0.242,0.245-0.486,0.365-0.729l0,0l0.816,0.4c-0.121,0.247-0.244,0.495-0.369,0.74l0,0L145.819,114.309L145.819,114.309z
				 M16.371,113.211l0.822-0.394c0.115,0.246,0.234,0.489,0.353,0.731l0,0l-0.818,0.401
				C16.607,113.704,16.488,113.458,16.371,113.211L16.371,113.211z M146.579,112.763c0.117-0.246,0.232-0.491,0.345-0.738l0,0
				l0.828,0.381c-0.117,0.25-0.234,0.499-0.352,0.749l0,0L146.579,112.763L146.579,112.763z M15.644,111.639l0.83-0.374
				c0.11,0.247,0.222,0.493,0.334,0.739l0,0l-0.825,0.381C15.868,112.136,15.755,111.889,15.644,111.639L15.644,111.639z
				 M147.301,111.2c0.111-0.25,0.219-0.498,0.329-0.749l0,0v0.002l0.835,0.36c-0.11,0.254-0.222,0.504-0.333,0.757l0,0
				L147.301,111.2L147.301,111.2z M14.954,110.049l0.838-0.352c0.106,0.248,0.212,0.497,0.318,0.745l0,0h0.001l-0.837,0.362
				C15.167,110.552,15.06,110.3,14.954,110.049L14.954,110.049z M147.982,109.618c0.106-0.251,0.21-0.504,0.312-0.755l0,0
				l0.845,0.342c-0.104,0.255-0.21,0.51-0.315,0.763l0,0L147.982,109.618L147.982,109.618z M14.303,108.44l0.849-0.33
				c0.098,0.252,0.198,0.503,0.3,0.755l0,0l-0.842,0.34C14.505,108.952,14.403,108.697,14.303,108.44L14.303,108.44z
				 M148.628,108.021c0.099-0.255,0.197-0.508,0.294-0.763l0,0l0.85,0.32c-0.096,0.259-0.194,0.517-0.294,0.773l0,0L148.628,108.021
				L148.628,108.021z M13.689,106.813l0.855-0.312c0.092,0.255,0.187,0.51,0.281,0.763l0,0l-0.852,0.321
				C13.877,107.328,13.783,107.071,13.689,106.813L13.689,106.813z M149.234,106.407c0.093-0.256,0.184-0.513,0.274-0.77l0,0
				l0.86,0.3c-0.091,0.26-0.184,0.521-0.278,0.778l0,0L149.234,106.407L149.234,106.407z M13.114,105.17l0.861-0.29
				c0.087,0.257,0.176,0.515,0.265,0.77l0,0v0.002l-0.859,0.298C13.29,105.691,13.202,105.43,13.114,105.17L13.114,105.17z
				 M149.801,104.778c0.087-0.258,0.172-0.517,0.256-0.776l0,0v-0.001l0.867,0.279c-0.085,0.263-0.173,0.525-0.259,0.788l0,0
				L149.801,104.778L149.801,104.778z M12.58,103.517l0.869-0.27c0.079,0.26,0.163,0.518,0.246,0.775l0,0v0.001l-0.868,0.278
				C12.744,104.04,12.661,103.778,12.58,103.517L12.58,103.517z M150.33,103.135c0.079-0.258,0.157-0.518,0.235-0.778l0,0v-0.002
				l0.872,0.261c-0.078,0.263-0.157,0.525-0.238,0.788l0,0L150.33,103.135L150.33,103.135z M12.085,101.849l0.875-0.249
				c0.073,0.26,0.149,0.521,0.226,0.782l0,0l-0.873,0.257C12.236,102.376,12.161,102.112,12.085,101.849L12.085,101.849z
				 M150.815,101.488c0.074-0.26,0.146-0.522,0.215-0.784l0,0l0.879,0.236c-0.072,0.266-0.143,0.53-0.219,0.795l0,0L150.815,101.488
				L150.815,101.488z M11.632,100.17l0.88-0.229c0.068,0.262,0.136,0.525,0.208,0.787l0,0l-0.879,0.238
				C11.769,100.701,11.7,100.434,11.632,100.17L11.632,100.17z M151.262,99.83c0.066-0.263,0.131-0.525,0.196-0.79l0,0l0.884,0.215
				c-0.064,0.269-0.132,0.533-0.201,0.8l0,0L151.262,99.83L151.262,99.83z M11.218,98.479l0.886-0.206
				c0.061,0.267,0.125,0.529,0.187,0.791l0,0l-0.882,0.215C11.343,99.014,11.278,98.747,11.218,98.479L11.218,98.479z
				 M151.666,98.16c0.062-0.264,0.121-0.529,0.179-0.794l0,0l0.889,0.195c-0.059,0.269-0.119,0.536-0.18,0.803l0,0L151.666,98.16
				L151.666,98.16z M10.845,96.781l0.891-0.185c0.055,0.266,0.112,0.532,0.17,0.797l0,0l-0.89,0.193
				C10.958,97.319,10.901,97.049,10.845,96.781L10.845,96.781z M152.032,96.482c0.052-0.266,0.105-0.533,0.159-0.797l0,0
				l0.894,0.172c-0.053,0.268-0.107,0.538-0.162,0.806l0,0L152.032,96.482L152.032,96.482z M10.514,95.073l0.896-0.164
				c0.049,0.269,0.098,0.535,0.149,0.801l0,0l-0.893,0.173C10.614,95.613,10.562,95.343,10.514,95.073L10.514,95.073z
				 M152.354,94.796c0.05-0.266,0.097-0.534,0.143-0.801l0,0l0.895,0.149c-0.045,0.273-0.092,0.543-0.14,0.813l0,0L152.354,94.796
				L152.354,94.796z M10.223,93.358l0.899-0.142c0.041,0.269,0.085,0.536,0.13,0.802l0,0v0.002l-0.898,0.151
				C10.309,93.9,10.266,93.63,10.223,93.358L10.223,93.358z M152.495,93.995h0.002l0,0l0,0H152.495L152.495,93.995z M152.64,93.101
				c0.041-0.266,0.081-0.535,0.119-0.805l0,0h0.001l0.899,0.131c-0.038,0.272-0.08,0.544-0.121,0.814l0,0L152.64,93.101
				L152.64,93.101z M9.973,91.637l0.903-0.119c0.036,0.269,0.074,0.537,0.112,0.805l0,0l-0.901,0.131
				C10.049,92.182,10.011,91.91,9.973,91.637L9.973,91.637z M152.884,91.402c0.034-0.268,0.068-0.538,0.1-0.807l0,0v-0.002
				l0.904,0.109c-0.033,0.271-0.067,0.546-0.102,0.818l0,0L152.884,91.402L152.884,91.402z M9.766,89.911l0.904-0.098
				c0.03,0.269,0.06,0.539,0.093,0.806l0,0l-0.903,0.11C9.828,90.455,9.796,90.183,9.766,89.911L9.766,89.911z M153.087,89.696
				c0.028-0.27,0.054-0.539,0.081-0.811l0,0v0.002l0.904,0.085c-0.024,0.273-0.052,0.547-0.081,0.819l0,0L153.087,89.696
				L153.087,89.696z M9.599,88.179l0.906-0.077c0.023,0.272,0.047,0.542,0.074,0.811l0,0l-0.904,0.086
				C9.649,88.726,9.624,88.453,9.599,88.179L9.599,88.179z M153.246,87.986c0.023-0.27,0.044-0.54,0.062-0.812l0,0l0.908,0.064
				c-0.019,0.275-0.04,0.548-0.063,0.822l0,0L153.246,87.986L153.246,87.986z M9.475,86.445l0.908-0.054
				c0.017,0.27,0.034,0.54,0.053,0.81l0,0l0.002,0.002l-0.909,0.064C9.508,86.993,9.491,86.718,9.475,86.445L9.475,86.445z
				 M153.367,86.272c0.016-0.271,0.031-0.541,0.043-0.813l0,0l0.909,0.043c-0.013,0.274-0.028,0.55-0.043,0.824l0,0L153.367,86.272
				L153.367,86.272z M9.391,84.706l0.909-0.033c0.011,0.271,0.023,0.544,0.034,0.813l0,0l-0.909,0.044
				C9.412,85.257,9.401,84.981,9.391,84.706L9.391,84.706z M153.447,84.556c0.009-0.27,0.019-0.542,0.024-0.812l0,0l0.909,0.021
				c-0.005,0.274-0.014,0.55-0.023,0.824l0,0L153.447,84.556L153.447,84.556z M9.348,82.972l0.91-0.012
				c0.004,0.272,0.008,0.542,0.016,0.812l0,0l-0.911,0.023C9.357,83.521,9.352,83.247,9.348,82.972L9.348,82.972z M153.486,82.839
				c0.004-0.272,0.004-0.542,0.004-0.814l0,0c0-0.02,0-0.04,0-0.061l0,0h0.911c0,0.02,0,0.04,0,0.061l0,0
				c0,0.275-0.002,0.549-0.003,0.825l0,0L153.486,82.839L153.486,82.839z M9.342,82.025c0-0.265,0.002-0.529,0.004-0.792l0,0
				l0.911,0.01c-0.002,0.259-0.003,0.521-0.003,0.782l0,0H9.342L9.342,82.025z M153.469,80.248l0.911-0.021
				c0.005,0.274,0.011,0.548,0.015,0.822l0,0l-0.911,0.013C153.481,80.79,153.477,80.52,153.469,80.248L153.469,80.248z
				 M9.363,80.317c0.006-0.274,0.014-0.549,0.023-0.823l0,0l0.911,0.032c-0.01,0.27-0.019,0.542-0.025,0.812l0,0L9.363,80.317
				L9.363,80.317z M153.407,78.535l0.909-0.043c0.012,0.274,0.026,0.547,0.036,0.823l0,0l-0.908,0.032
				C153.431,79.077,153.421,78.805,153.407,78.535L153.407,78.535z M9.424,78.58c0.012-0.273,0.026-0.549,0.043-0.821l0,0
				l0.907,0.051c-0.015,0.272-0.029,0.542-0.041,0.812l0,0L9.424,78.58L9.424,78.58z M153.305,76.821l0.906-0.066
				c0.021,0.273,0.038,0.548,0.055,0.821l0,0l-0.908,0.055C153.343,77.36,153.325,77.091,153.305,76.821L153.305,76.821z
				 M9.526,76.844c0.019-0.274,0.04-0.548,0.062-0.822l0,0l0.907,0.074c-0.022,0.271-0.043,0.541-0.062,0.812l0,0L9.526,76.844
				L9.526,76.844z M153.305,76.819c0,0,0,0.001,0,0.002l0,0l0,0V76.819L153.305,76.819z M153.161,75.108l0.905-0.086
				c0.025,0.273,0.051,0.545,0.074,0.821l0,0l-0.905,0.076C153.211,75.648,153.188,75.378,153.161,75.108L153.161,75.108z
				 M9.668,75.11c0.026-0.273,0.054-0.548,0.083-0.82l0,0l0.904,0.096c-0.028,0.269-0.057,0.539-0.082,0.809l0,0L9.668,75.11
				L9.668,75.11z M152.978,73.4h-0.001l0.904-0.108c0.032,0.272,0.065,0.544,0.092,0.818l0,0l-0.904,0.098
				C153.04,73.939,153.009,73.671,152.978,73.4L152.978,73.4z M9.852,73.38c0.032-0.272,0.066-0.545,0.102-0.816l0,0l0.902,0.118
				c-0.036,0.268-0.069,0.538-0.102,0.807l0,0L9.852,73.38L9.852,73.38z M152.752,71.699l0.902-0.131
				c0.039,0.272,0.076,0.544,0.113,0.816l0,0l-0.904,0.119C152.827,72.235,152.792,71.966,152.752,71.699L152.752,71.699z
				 M10.079,71.655c0.038-0.272,0.079-0.542,0.121-0.814l0,0l0.899,0.14c-0.042,0.266-0.082,0.534-0.121,0.804l0,0L10.079,71.655
				L10.079,71.655z M152.486,70.002V70l0.897-0.151c0.046,0.272,0.091,0.542,0.134,0.814l0,0l-0.899,0.142
				C152.575,70.537,152.53,70.269,152.486,70.002L152.486,70.002z M10.345,69.936c0.046-0.269,0.093-0.54,0.142-0.81l0,0
				l0.895,0.161c-0.049,0.266-0.094,0.532-0.14,0.801l0,0L10.345,69.936L10.345,69.936z M152.179,68.312l0.893-0.174
				c0.054,0.271,0.105,0.541,0.154,0.811l0,0l-0.895,0.163C152.282,68.845,152.23,68.578,152.179,68.312L152.179,68.312z
				 M11.547,68.397h0.002H11.547L11.547,68.397z M10.653,68.225c0.053-0.27,0.106-0.538,0.16-0.808l0,0l0.892,0.183
				c-0.053,0.264-0.106,0.53-0.159,0.797l0,0L10.653,68.225L10.653,68.225z M151.832,66.629l0.89-0.195
				c0.059,0.268,0.115,0.538,0.171,0.806l0,0l-0.891,0.186C151.947,67.159,151.89,66.895,151.832,66.629L151.832,66.629z
				 M11.003,66.521c0.058-0.268,0.119-0.536,0.181-0.805l0,0l0.886,0.204c-0.06,0.264-0.119,0.529-0.178,0.795l0,0L11.003,66.521
				L11.003,66.521z M151.445,64.957l0.884-0.217c0.065,0.268,0.129,0.535,0.191,0.803l0,0l-0.887,0.206
				C151.571,65.484,151.509,65.22,151.445,64.957L151.445,64.957z M11.394,64.827c0.066-0.268,0.132-0.535,0.2-0.801l0,0
				l0.882,0.225c-0.068,0.263-0.134,0.527-0.198,0.79l0,0L11.394,64.827L11.394,64.827z M151.018,63.293h-0.002l0.879-0.236
				c0.07,0.265,0.142,0.529,0.21,0.795l0,0l-0.882,0.229C151.156,63.816,151.087,63.556,151.018,63.293L151.018,63.293z
				 M11.826,63.142c0.07-0.266,0.144-0.531,0.217-0.795l0,0l0.876,0.245c-0.074,0.261-0.145,0.523-0.215,0.786l0,0L11.826,63.142
				L11.826,63.142z M150.549,61.64l0.873-0.257c0.078,0.263,0.152,0.527,0.229,0.79l0,0l-0.874,0.25
				C150.7,62.162,150.625,61.901,150.549,61.64L150.549,61.64z M13.169,61.723l-0.871-0.257c0.078-0.263,0.157-0.527,0.236-0.79l0,0
				l0.871,0.269c-0.079,0.258-0.158,0.519-0.234,0.778l0,0H13.169L13.169,61.723z M150.041,60l0.865-0.28
				c0.085,0.261,0.169,0.523,0.25,0.786l0,0l-0.87,0.271C150.206,60.517,150.124,60.259,150.041,60L150.041,60z M13.677,60.078
				L12.811,59.8c0.084-0.262,0.171-0.525,0.258-0.786l0,0l0.863,0.288c-0.086,0.258-0.172,0.517-0.255,0.777l0,0V60.078
				L13.677,60.078z M149.494,58.372l0.86-0.3c0.09,0.259,0.178,0.519,0.267,0.78l0,0l-0.863,0.29
				C149.671,58.884,149.582,58.629,149.494,58.372L149.494,58.372z M13.366,58.143c0.09-0.261,0.183-0.519,0.277-0.778l0,0
				l0.855,0.308c-0.092,0.257-0.183,0.514-0.274,0.771l0,0L13.366,58.143L13.366,58.143z M148.907,56.759h0.001l0.85-0.321
				c0.098,0.257,0.192,0.514,0.286,0.771l0,0l-0.855,0.313C149.097,57.267,149.002,57.012,148.907,56.759L148.907,56.759z
				 M13.961,56.502c0.096-0.256,0.196-0.515,0.294-0.77l0,0l0.848,0.329c-0.098,0.252-0.194,0.508-0.29,0.763l0,0L13.961,56.502
				L13.961,56.502z M148.283,55.159l0.843-0.342c0.101,0.255,0.203,0.51,0.306,0.765l0,0l-0.848,0.332
				C148.484,55.662,148.383,55.411,148.283,55.159L148.283,55.159z M15.438,55.218L15.438,55.218L15.438,55.218h0.002H15.438
				L15.438,55.218z M14.596,54.876c0.103-0.255,0.207-0.51,0.313-0.765l0,0l0.841,0.352c-0.106,0.251-0.21,0.501-0.312,0.755l0,0
				L14.596,54.876L14.596,54.876z M147.621,53.582l0.832-0.363c0.11,0.251,0.218,0.502,0.324,0.755l0,0l-0.839,0.351
				C147.834,54.077,147.727,53.83,147.621,53.582L147.621,53.582z M15.267,53.267c0.11-0.254,0.222-0.504,0.333-0.758l0,0
				l0.831,0.372c-0.111,0.247-0.221,0.497-0.329,0.746l0,0L15.267,53.267L15.267,53.267z M146.922,52.02l0.826-0.382
				c0.115,0.249,0.225,0.496,0.34,0.747l0,0l-0.831,0.372C147.147,52.511,147.036,52.265,146.922,52.02L146.922,52.02z
				 M15.98,51.674c0.116-0.251,0.232-0.5,0.35-0.748l0,0l0.821,0.39c-0.115,0.245-0.232,0.493-0.346,0.74l0,0L15.98,51.674
				L15.98,51.674z M146.186,50.475l0.816-0.4c0.121,0.246,0.24,0.491,0.358,0.739l0,0l-0.822,0.393
				C146.422,50.96,146.306,50.719,146.186,50.475L146.186,50.475z M16.729,50.099c0.122-0.248,0.244-0.493,0.369-0.738l0,0
				l0.812,0.41c-0.123,0.242-0.244,0.485-0.365,0.73l0,0L16.729,50.099L16.729,50.099z M145.412,48.948l0.807-0.421
				c0.126,0.244,0.252,0.486,0.377,0.731l0,0l-0.813,0.412C145.661,49.429,145.538,49.188,145.412,48.948L145.412,48.948z
				 M17.517,48.544c0.127-0.246,0.255-0.489,0.386-0.731l0,0l0.801,0.43c-0.129,0.238-0.256,0.48-0.38,0.72l0,0L17.517,48.544
				L17.517,48.544z M144.601,47.439l0.797-0.44c0.133,0.24,0.262,0.48,0.393,0.722l0,0l-0.8,0.431
				C144.862,47.914,144.733,47.675,144.601,47.439L144.601,47.439z M18.341,47.009c0.132-0.242,0.269-0.482,0.402-0.722l0,0
				l0.793,0.45c-0.137,0.236-0.268,0.472-0.399,0.71l0,0L18.341,47.009L18.341,47.009z M143.756,45.951l0.785-0.459
				c0.138,0.236,0.275,0.474,0.412,0.712l0,0l-0.792,0.45C144.028,46.417,143.892,46.183,143.756,45.951L143.756,45.951z
				 M19.203,45.492c0.138-0.238,0.277-0.474,0.419-0.71l0,0l0.78,0.469c-0.138,0.232-0.278,0.466-0.414,0.701l0,0L19.203,45.492
				L19.203,45.492z M142.874,44.481h-0.002l0.775-0.477c0.146,0.234,0.288,0.468,0.429,0.702l0,0l-0.78,0.469
				C143.157,44.942,143.016,44.712,142.874,44.481L142.874,44.481z M20.872,44.476L20.872,44.476L20.872,44.476h0.002H20.872
				L20.872,44.476z M20.098,43.997c0.146-0.234,0.291-0.466,0.438-0.698l0,0l0.769,0.485c-0.145,0.23-0.288,0.46-0.432,0.69l0,0
				L20.098,43.997L20.098,43.997z M141.957,43.035l0.762-0.497c0.149,0.23,0.297,0.461,0.444,0.691l0,0l-0.769,0.488
				C142.251,43.488,142.104,43.261,141.957,43.035L141.957,43.035z M21.031,42.526c0.151-0.23,0.302-0.458,0.455-0.688l0,0
				l0.755,0.504c-0.151,0.227-0.3,0.452-0.447,0.68l0,0L21.031,42.526L21.031,42.526z M141.005,41.608l0.751-0.513
				c0.155,0.225,0.308,0.453,0.458,0.68l0,0l-0.755,0.506C141.308,42.056,141.158,41.831,141.005,41.608L141.005,41.608z
				 M21.998,41.08c0.155-0.227,0.313-0.454,0.47-0.679l0,0l0.745,0.523c-0.155,0.221-0.31,0.444-0.463,0.669l0,0L21.998,41.08
				L21.998,41.08z M140.018,40.205l0.739-0.531c0.16,0.221,0.319,0.444,0.478,0.669l0,0l-0.745,0.523
				C140.334,40.645,140.177,40.424,140.018,40.205L140.018,40.205z M22.999,39.653c0.161-0.223,0.323-0.444,0.487-0.665l0,0
				l0.731,0.541c-0.161,0.219-0.321,0.438-0.48,0.657l0,0L22.999,39.653L22.999,39.653z M139,38.826l0.726-0.55
				c0.165,0.22,0.331,0.438,0.494,0.66l0,0l-0.731,0.54C139.326,39.259,139.162,39.042,139,38.826L139,38.826z M24.035,38.253
				c0.165-0.219,0.334-0.436,0.502-0.653l0,0l0.718,0.557c-0.166,0.215-0.331,0.431-0.495,0.646l0,0v0.002L24.035,38.253
				L24.035,38.253z M137.95,37.471l0.711-0.566c0.169,0.214,0.339,0.429,0.51,0.646l0,0l-0.72,0.56
				C138.285,37.895,138.117,37.684,137.95,37.471L137.95,37.471z M137.948,37.47c0,0,0.001,0,0.002,0.001l0,0l-0.002,0.001V37.47
				L137.948,37.47z M25.814,37.447L25.814,37.447L25.814,37.447h0.002H25.814L25.814,37.447z M25.101,36.88
				c0.172-0.215,0.344-0.429,0.518-0.642l0,0l0.706,0.574c-0.172,0.211-0.341,0.421-0.511,0.634l0,0L25.101,36.88L25.101,36.88z
				 M136.865,36.142V36.14l0.698-0.582c0.176,0.21,0.35,0.421,0.524,0.635l0,0l-0.706,0.574
				C137.21,36.557,137.038,36.35,136.865,36.142L136.865,36.142z M26.203,35.532c0.176-0.211,0.354-0.421,0.533-0.629l0,0
				l0.691,0.591c-0.178,0.206-0.352,0.414-0.524,0.622l0,0L26.203,35.532L26.203,35.532z M135.75,34.836l0.684-0.599
				c0.179,0.206,0.358,0.414,0.537,0.621l0,0l-0.691,0.594C136.106,35.245,135.928,35.041,135.75,34.836L135.75,34.836z
				 M27.334,34.209c0.181-0.206,0.364-0.412,0.547-0.615l0,0l0.676,0.608c-0.181,0.202-0.361,0.404-0.54,0.608l0,0L27.334,34.209
				L27.334,34.209z M134.601,33.56l0.67-0.616c0.185,0.202,0.37,0.406,0.553,0.61l0,0l-0.675,0.608
				C134.969,33.96,134.785,33.76,134.601,33.56L134.601,33.56z M29.167,33.531l-0.669-0.613c0.186-0.203,0.372-0.405,0.561-0.605
				l0,0l0.664,0.625c-0.188,0.196-0.373,0.395-0.555,0.595l0,0V33.531L29.167,33.531z M133.424,32.309l0.656-0.631
				c0.191,0.198,0.38,0.397,0.569,0.595l0,0l-0.663,0.625C133.801,32.702,133.613,32.506,133.424,32.309L133.424,32.309z
				 M29.691,31.65c0.189-0.197,0.381-0.393,0.574-0.589l0,0l0.648,0.64c-0.191,0.193-0.38,0.387-0.569,0.582l0,0L29.691,31.65
				L29.691,31.65z M132.219,31.089l0.639-0.648c0.195,0.193,0.389,0.388,0.584,0.584l0,0l-0.648,0.638
				C132.603,31.471,132.412,31.28,132.219,31.089L132.219,31.089z M30.914,30.415c0.194-0.193,0.391-0.386,0.589-0.577l0,0
				l0.631,0.656c-0.195,0.189-0.389,0.378-0.582,0.568l0,0L30.914,30.415L30.914,30.415z M130.982,29.895l0.626-0.662
				c0.197,0.189,0.398,0.378,0.595,0.568l0,0l-0.631,0.656C131.377,30.269,131.18,30.081,130.982,29.895L130.982,29.895z
				 M32.164,29.208c0.2-0.189,0.401-0.376,0.604-0.561l0,0l0.616,0.67c-0.201,0.184-0.399,0.369-0.598,0.554l0,0L32.164,29.208
				L32.164,29.208z M129.719,28.734l0.608-0.678c0.205,0.183,0.409,0.368,0.61,0.555l0,0l-0.616,0.669
				C130.12,29.096,129.921,28.915,129.719,28.734L129.719,28.734z M33.445,28.031c0.204-0.183,0.41-0.364,0.616-0.546l0,0l0.6,0.684
				c-0.204,0.18-0.408,0.359-0.608,0.541l0,0L33.445,28.031L33.445,28.031z M128.427,27.6l0.593-0.691
				c0.208,0.18,0.415,0.359,0.621,0.54l0,0l-0.599,0.684C128.838,27.954,128.632,27.776,128.427,27.6L128.427,27.6z M34.752,26.886
				c0.208-0.179,0.417-0.355,0.629-0.53l0,0l0.584,0.696c-0.208,0.174-0.416,0.35-0.622,0.525l0,0L34.752,26.886L34.752,26.886z
				 M127.109,26.497l0.575-0.705c0.213,0.174,0.425,0.35,0.635,0.525l0,0l-0.581,0.699C127.528,26.843,127.32,26.669,127.109,26.497
				L127.109,26.497z M127.109,26.497C127.109,26.497,127.109,26.497,127.109,26.497L127.109,26.497v0.002V26.497L127.109,26.497z
				 M36.085,25.772c0.211-0.172,0.427-0.344,0.641-0.516l0,0l0.566,0.712c-0.211,0.167-0.423,0.338-0.632,0.51l0,0L36.085,25.772
				L36.085,25.772z M125.764,25.428l0.559-0.72c0.218,0.17,0.433,0.34,0.648,0.51l0,0l-0.567,0.712
				C126.192,25.762,125.978,25.594,125.764,25.428L125.764,25.428z M37.446,24.691c0.217-0.168,0.434-0.334,0.651-0.5l0,0
				l0.55,0.726c-0.215,0.162-0.431,0.328-0.644,0.495l0,0L37.446,24.691L37.446,24.691z M124.395,24.39l0.539-0.732
				c0.222,0.163,0.442,0.329,0.661,0.494l0,0l-0.549,0.727C124.83,24.714,124.614,24.552,124.395,24.39L124.395,24.39z
				 M124.393,24.389c0.001,0,0.001,0,0.001,0l0,0l-0.001,0.001V24.389L124.393,24.389z M38.83,23.643
				c0.221-0.163,0.442-0.325,0.665-0.485l0,0l0.531,0.739c-0.219,0.158-0.438,0.317-0.656,0.479l0,0L38.83,23.643L38.83,23.643z
				 M123,23.384l0.521-0.744c0.228,0.159,0.449,0.318,0.672,0.479l0,0l-0.531,0.738C123.442,23.697,123.221,23.54,123,23.384
				L123,23.384z M40.239,22.629c0.225-0.159,0.45-0.313,0.676-0.47l0,0l0.514,0.751c-0.224,0.153-0.446,0.308-0.667,0.463l0,0
				L40.239,22.629L40.239,22.629z M121.579,22.414h0.003l0.503-0.758c0.229,0.153,0.457,0.307,0.684,0.463l0,0l-0.514,0.75
				C122.031,22.715,121.806,22.564,121.579,22.414L121.579,22.414z M41.671,21.648c0.229-0.153,0.458-0.304,0.688-0.453l0,0
				l0.496,0.763c-0.228,0.147-0.452,0.296-0.677,0.446l0,0L41.671,21.648L41.671,21.648z M120.138,21.474l0.488-0.767
				c0.232,0.146,0.464,0.295,0.695,0.445l0,0l-0.498,0.763C120.598,21.767,120.368,21.62,120.138,21.474L120.138,21.474z
				 M43.127,20.702c0.23-0.148,0.463-0.293,0.697-0.436l0,0l0.478,0.774c-0.23,0.142-0.458,0.285-0.689,0.43l0,0L43.127,20.702
				L43.127,20.702z M118.674,20.571l0.468-0.78c0.236,0.142,0.471,0.286,0.705,0.429l0,0l-0.477,0.775
				C119.139,20.853,118.906,20.711,118.674,20.571L118.674,20.571z M44.605,19.791c0.234-0.142,0.47-0.281,0.706-0.419l0,0
				l0.458,0.786c-0.232,0.136-0.466,0.274-0.696,0.414l0,0L44.605,19.791L44.605,19.791z M117.187,19.705l0.449-0.792
				c0.24,0.136,0.479,0.274,0.716,0.412l0,0l-0.459,0.786C117.66,19.975,117.424,19.839,117.187,19.705L117.187,19.705z
				 M46.102,18.914c0.238-0.134,0.478-0.268,0.718-0.4l0,0l0.439,0.795c-0.237,0.132-0.473,0.264-0.707,0.397l0,0v0.002
				L46.102,18.914L46.102,18.914z M115.682,18.873l0.428-0.803c0.244,0.13,0.485,0.263,0.725,0.395l0,0l-0.437,0.797
				C116.161,19.132,115.921,19.002,115.682,18.873L115.682,18.873z M48.05,18.879C48.051,18.878,48.051,18.878,48.05,18.879
				L48.05,18.879h0.002H48.05L48.05,18.879z M47.621,18.079c0.24-0.131,0.482-0.259,0.725-0.386l0,0l0.421,0.807
				c-0.239,0.124-0.477,0.25-0.716,0.379l0,0L47.621,18.079L47.621,18.079z M114.154,18.076l0.412-0.81
				c0.246,0.125,0.49,0.25,0.734,0.376l0,0l-0.421,0.808C114.639,18.324,114.397,18.201,114.154,18.076L114.154,18.076z
				 M49.159,17.275c0.244-0.123,0.489-0.246,0.735-0.366l0,0l0.4,0.816c-0.242,0.119-0.484,0.24-0.725,0.362l0,0L49.159,17.275
				L49.159,17.275z M114.154,18.076L114.154,18.076L114.154,18.076v0.002V18.076L114.154,18.076z M112.609,17.319L113,16.497
				c0.25,0.119,0.497,0.238,0.744,0.358l0,0l-0.4,0.818C113.1,17.553,112.854,17.436,112.609,17.319L112.609,17.319z M51.104,17.331
				C51.104,17.331,51.105,17.331,51.104,17.331L51.104,17.331l0.002,0.002L51.104,17.331L51.104,17.331z M50.714,16.512
				c0.247-0.119,0.495-0.234,0.744-0.35l0,0l0.381,0.826c-0.245,0.112-0.488,0.228-0.733,0.343l0,0L50.714,16.512L50.714,16.512z
				 M111.044,16.597l0.372-0.831c0.252,0.114,0.501,0.227,0.753,0.342l0,0l-0.38,0.827C111.542,16.82,111.294,16.708,111.044,16.597
				L111.044,16.597z M52.286,15.785c0.25-0.112,0.5-0.223,0.753-0.33l0,0l0.36,0.835c-0.247,0.107-0.495,0.215-0.741,0.327l0,0
				L52.286,15.785L52.286,15.785z M109.465,15.914l0.35-0.839c0.254,0.106,0.506,0.214,0.76,0.323l0,0l-0.361,0.835
				C109.965,16.125,109.715,16.019,109.465,15.914L109.465,15.914z M53.877,15.098c0.251-0.106,0.504-0.21,0.757-0.313l0,0
				l0.342,0.844c-0.25,0.1-0.499,0.204-0.748,0.308l0,0L53.877,15.098L53.877,15.098z M109.464,15.914
				C109.465,15.914,109.465,15.914,109.464,15.914L109.464,15.914v0.002V15.914L109.464,15.914z M107.865,15.269l0.331-0.849
				c0.258,0.101,0.513,0.203,0.768,0.307l0,0l-0.337,0.842C108.372,15.468,108.119,15.368,107.865,15.269L107.865,15.269z
				 M55.817,15.292l-0.331-0.846c0.255-0.1,0.512-0.198,0.77-0.295l0,0l0.32,0.851c-0.252,0.096-0.506,0.192-0.759,0.293l0,0V15.292
				L55.817,15.292z M106.252,14.663l0.31-0.855c0.259,0.095,0.518,0.189,0.777,0.285l0,0l-0.322,0.852
				C106.764,14.85,106.507,14.755,106.252,14.663L106.252,14.663z M57.113,13.832c0.259-0.093,0.518-0.185,0.776-0.277l0,0
				l0.301,0.859c-0.255,0.09-0.51,0.181-0.765,0.274l0,0L57.113,13.832L57.113,13.832z M104.624,14.096l0.288-0.863
				c0.262,0.087,0.522,0.178,0.784,0.267l0,0l-0.299,0.859C105.14,14.27,104.883,14.184,104.624,14.096L104.624,14.096z
				 M58.756,13.257c0.259-0.086,0.521-0.171,0.782-0.257l0,0l0.28,0.866c-0.259,0.083-0.516,0.168-0.772,0.255l0,0L58.756,13.257
				L58.756,13.257z M102.981,13.567l0.268-0.869c0.264,0.081,0.527,0.164,0.79,0.247l0,0l-0.278,0.867
				C103.502,13.73,103.242,13.649,102.981,13.567L102.981,13.567z M60.411,12.725c0.263-0.082,0.525-0.163,0.788-0.24l0,0
				l0.26,0.873c-0.26,0.078-0.521,0.155-0.78,0.236l0,0L60.411,12.725L60.411,12.725z M101.334,13.082l0.248-0.875
				c0.264,0.074,0.528,0.149,0.791,0.227l0,0l-0.256,0.873C101.855,13.231,101.596,13.156,101.334,13.082L101.334,13.082z
				 M62.327,13.105l-0.248-0.875c0.264-0.074,0.529-0.147,0.794-0.219l0,0l0.238,0.878c-0.263,0.069-0.523,0.143-0.784,0.217l0,0
				V13.105L62.327,13.105z M99.675,12.636l0.226-0.88c0.266,0.068,0.532,0.138,0.796,0.208l0,0l-0.234,0.878
				C100.201,12.772,99.938,12.704,99.675,12.636L99.675,12.636z M63.758,11.777c0.267-0.068,0.532-0.136,0.799-0.201l0,0
				l0.217,0.885c-0.265,0.064-0.527,0.13-0.79,0.198l0,0L63.758,11.777L63.758,11.777z M98.006,12.232h0.002l0.202-0.888
				c0.269,0.062,0.536,0.125,0.802,0.19l0,0l-0.213,0.884C98.534,12.355,98.27,12.292,98.006,12.232L98.006,12.232z M65.449,11.363
				c0.266-0.061,0.535-0.121,0.803-0.179l0,0l0.194,0.888c-0.264,0.059-0.528,0.117-0.793,0.179l0,0L65.449,11.363L65.449,11.363z
				 M96.329,11.865l0.183-0.891c0.269,0.056,0.539,0.111,0.805,0.169l0,0l-0.194,0.89C96.859,11.977,96.594,11.92,96.329,11.865
				L96.329,11.865z M67.147,10.993c0.268-0.056,0.538-0.109,0.806-0.163l0,0l0.176,0.894c-0.267,0.051-0.532,0.103-0.799,0.159l0,0
				L67.147,10.993L67.147,10.993z M94.642,11.54l0.16-0.895c0.271,0.049,0.54,0.1,0.81,0.151l0,0L95.44,11.69
				C95.177,11.639,94.908,11.59,94.642,11.54L94.642,11.54z M68.854,10.663c0.27-0.05,0.54-0.097,0.812-0.144l0,0l0.15,0.897
				c-0.266,0.045-0.534,0.093-0.801,0.141l0,0L68.854,10.663L68.854,10.663z M94.641,11.54C94.641,11.54,94.641,11.54,94.641,11.54
				L94.641,11.54v0.002V11.54L94.641,11.54z M92.947,11.257l0.141-0.899c0.272,0.043,0.544,0.087,0.813,0.133l0,0l-0.149,0.898
				C93.484,11.342,93.215,11.299,92.947,11.257L92.947,11.257z M70.569,10.372c0.272-0.041,0.542-0.083,0.814-0.123l0,0l0.13,0.901
				c-0.268,0.039-0.536,0.08-0.804,0.121l0,0L70.569,10.372L70.569,10.372z M91.246,11.014l0.119-0.901
				c0.272,0.036,0.544,0.071,0.816,0.111l0,0l-0.128,0.901C91.785,11.085,91.516,11.049,91.246,11.014L91.246,11.014z M72.29,10.124
				c0.272-0.036,0.546-0.07,0.818-0.104l0,0l0.108,0.903c-0.27,0.034-0.538,0.067-0.808,0.102l0,0v0.002L72.29,10.124L72.29,10.124z
				 M89.541,10.811l0.097-0.903c0.273,0.028,0.545,0.059,0.819,0.091l0,0l-0.107,0.902C90.082,10.872,89.812,10.842,89.541,10.811
				L89.541,10.811z M74.018,9.916c0.272-0.028,0.546-0.057,0.819-0.084l0,0l0.087,0.907c-0.272,0.025-0.541,0.053-0.81,0.082l0,0
				L74.018,9.916L74.018,9.916z M87.832,10.651l0.074-0.907c0.274,0.023,0.547,0.047,0.821,0.071l0,0l-0.084,0.907
				C88.372,10.696,88.102,10.674,87.832,10.651L87.832,10.651z M75.749,9.752c0.274-0.022,0.547-0.045,0.821-0.064l0,0l0.066,0.906
				c-0.272,0.021-0.542,0.042-0.812,0.064l0,0L75.749,9.752L75.749,9.752z M86.119,10.53l0.052-0.909
				c0.273,0.017,0.548,0.034,0.822,0.053l0,0l-0.062,0.908C86.659,10.564,86.389,10.545,86.119,10.53L86.119,10.53z M77.484,9.627
				c0.273-0.017,0.548-0.032,0.822-0.045l0,0l0.044,0.91c-0.27,0.011-0.543,0.026-0.813,0.043l0,0L77.484,9.627L77.484,9.627z
				 M84.402,10.451l0.032-0.911c0.273,0.01,0.55,0.021,0.824,0.034l0,0l-0.043,0.909C84.945,10.472,84.674,10.46,84.402,10.451
				L84.402,10.451z M79.221,9.544c0.274-0.009,0.548-0.019,0.822-0.024l0,0l0.022,0.909c-0.27,0.007-0.542,0.015-0.81,0.024l0,0
				L79.221,9.544L79.221,9.544z M82.685,10.412L82.696,9.5c0.274,0.004,0.551,0.007,0.824,0.016l0,0l-0.021,0.908
				C83.229,10.419,82.957,10.413,82.685,10.412L82.685,10.412z M80.956,9.502c0.274-0.003,0.548-0.005,0.824-0.005l0,0l0.002,0.911
				c-0.271,0-0.543,0.001-0.813,0.004l0,0L80.956,9.502L80.956,9.502z"/>
			<path fill="#54A2F7" d="M82.17,157.713c0.384-0.002,0.766-0.007,1.147-0.014l0,0l0.085,4.548
				c-0.404,0.008-0.809,0.013-1.215,0.016l0,0L82.17,157.713L82.17,157.713z M78.914,162.207l0.165-4.545
				c0.382,0.014,0.763,0.024,1.147,0.034l0,0l-0.097,4.547C79.723,162.235,79.319,162.223,78.914,162.207L78.914,162.207z
				 M85.258,157.639c0.382-0.017,0.765-0.038,1.146-0.061l0,0v0.002l0.269,4.541c-0.405,0.022-0.81,0.045-1.214,0.062l0,0
				L85.258,157.639L85.258,157.639z M75.642,162.024l0.349-4.536c0.382,0.029,0.764,0.055,1.146,0.079l0,0l-0.28,4.54
				C76.453,162.082,76.048,162.054,75.642,162.024L75.642,162.024z M88.342,157.441c0.382-0.034,0.765-0.069,1.144-0.106l0,0v-0.002
				l0.452,4.528c-0.402,0.04-0.808,0.078-1.212,0.11l0,0L88.342,157.441L88.342,157.441z M72.382,161.706l0.533-4.517
				c0.38,0.044,0.761,0.085,1.142,0.124l0,0v0.002l-0.465,4.523C73.188,161.799,72.784,161.754,72.382,161.706L72.382,161.706z
				 M91.417,157.117c0.379-0.048,0.759-0.099,1.137-0.153l0,0v0.003l0.637,4.501c-0.402,0.057-0.802,0.111-1.207,0.163l0,0
				L91.417,157.117L91.417,157.117z M69.137,161.256l0.716-4.492c0.378,0.06,0.756,0.118,1.135,0.173l0,0l-0.648,4.503
				C69.938,161.382,69.537,161.321,69.137,161.256L69.137,161.256z M94.474,156.667c0.378-0.062,0.755-0.128,1.131-0.196l0,0
				l0.82,4.474c-0.398,0.073-0.798,0.144-1.198,0.209l0,0L94.474,156.667L94.474,156.667z M65.913,160.674l0.9-4.459
				c0.375,0.075,0.751,0.148,1.127,0.217l0,0l-0.832,4.474C66.707,160.831,66.31,160.755,65.913,160.674L65.913,160.674z
				 M97.511,156.095c0.375-0.078,0.749-0.159,1.121-0.244l0,0l1.004,4.438c-0.396,0.089-0.792,0.176-1.189,0.26l0,0L97.511,156.095
				L97.511,156.095z M62.713,159.959l1.084-4.416c0.37,0.09,0.743,0.179,1.115,0.264l0,0l-1.013,4.435
				C63.502,160.15,63.107,160.056,62.713,159.959L62.713,159.959z M100.52,155.398c0.372-0.094,0.741-0.189,1.111-0.29l0,0
				l1.185,4.392c-0.392,0.107-0.786,0.208-1.178,0.309l0,0L100.52,155.398L100.52,155.398z M59.546,159.114l1.266-4.37
				c0.366,0.107,0.735,0.209,1.104,0.31l0,0l-1.197,4.389C60.328,159.337,59.936,159.228,59.546,159.114L59.546,159.114z
				 M103.501,154.578c0.367-0.11,0.732-0.221,1.096-0.337l0,0l1.364,4.341c-0.386,0.121-0.773,0.24-1.163,0.356l0,0L103.501,154.578
				L103.501,154.578z M56.414,158.139l1.442-4.315c0.365,0.123,0.729,0.241,1.095,0.357l0,0l-1.375,4.336
				C57.186,158.393,56.799,158.267,56.414,158.139L56.414,158.139z M106.444,153.636c0.36-0.124,0.721-0.252,1.08-0.382l0,0v0.002
				l1.544,4.279c-0.381,0.136-0.764,0.271-1.149,0.404l0,0L106.444,153.636L106.444,153.636z M80.226,157.696v-0.002V157.696
				L80.226,157.696L80.226,157.696z M53.316,157.032l1.62-4.252c0.357,0.138,0.719,0.272,1.08,0.403l0,0l-1.554,4.275
				C54.078,157.318,53.696,157.176,53.316,157.032L53.316,157.032z M109.344,152.574c0.357-0.14,0.712-0.282,1.066-0.425l0,0
				l1.717,4.213c-0.375,0.152-0.751,0.302-1.13,0.449l0,0L109.344,152.574L109.344,152.574z M50.27,155.798l1.793-4.18
				c0.354,0.15,0.707,0.299,1.062,0.444l0,0l-1.729,4.208C51.019,156.117,50.644,155.961,50.27,155.798L50.27,155.798z
				 M64.912,155.807l0-0.001L64.912,155.807L64.912,155.807L64.912,155.807z M112.193,151.395c0.349-0.153,0.697-0.309,1.044-0.467
				l0,0h0.002l1.888,4.139c-0.37,0.168-0.738,0.33-1.109,0.494l0,0L112.193,151.395L112.193,151.395z M47.277,154.442l1.964-4.105
				c0.346,0.166,0.694,0.329,1.042,0.489l0,0v0.002l-1.901,4.132C48.012,154.789,47.645,154.615,47.277,154.442L47.277,154.442z
				 M114.989,150.102c0.343-0.167,0.685-0.336,1.025-0.509l0,0l2.055,4.058c-0.362,0.184-0.722,0.363-1.086,0.539l0,0
				L114.989,150.102L114.989,150.102z M44.346,152.963l2.129-4.02c0.339,0.182,0.679,0.357,1.021,0.532l0,0l-2.068,4.052
				C45.065,153.341,44.703,153.154,44.346,152.963L44.346,152.963z M117.731,148.695c0.337-0.181,0.672-0.364,1.004-0.55l0,0
				l2.22,3.971c-0.354,0.196-0.709,0.392-1.064,0.583l0,0L117.731,148.695L117.731,148.695z M41.475,151.366l2.296-3.928
				c0.331,0.193,0.662,0.384,0.997,0.573l0,0l-2.233,3.963C42.181,151.774,41.827,151.571,41.475,151.366L41.475,151.366z
				 M120.416,147.177c0.327-0.194,0.654-0.391,0.979-0.591l0,0l2.379,3.878c-0.345,0.211-0.69,0.42-1.04,0.627l0,0L120.416,147.177
				L120.416,147.177z M38.677,149.654l2.453-3.831c0.323,0.206,0.646,0.411,0.973,0.612l0,0l-2.394,3.868
				C39.364,150.089,39.019,149.873,38.677,149.654L38.677,149.654z M123.037,145.551c0.32-0.208,0.639-0.42,0.954-0.632l0,0
				l2.536,3.778c-0.336,0.225-0.675,0.449-1.013,0.668l0,0L123.037,145.551L123.037,145.551z M35.951,147.83l2.608-3.727
				c0.314,0.219,0.629,0.437,0.947,0.65l0,0h-0.002l-2.548,3.769C36.618,148.293,36.284,148.065,35.951,147.83L35.951,147.83z
				 M125.589,143.817c0.312-0.221,0.623-0.444,0.931-0.67l0,0l2.687,3.67c-0.327,0.24-0.655,0.476-0.987,0.71l0,0L125.589,143.817
				L125.589,143.817z M33.302,145.898l2.757-3.619c0.305,0.231,0.611,0.461,0.919,0.689l0,0l-2.7,3.661
				C33.951,146.387,33.625,146.143,33.302,145.898L33.302,145.898z M128.071,141.981c0.305-0.233,0.605-0.468,0.903-0.706l0,0
				l2.833,3.558c-0.316,0.253-0.635,0.503-0.957,0.75l0,0L128.071,141.981L128.071,141.981z M30.734,143.859l2.903-3.504
				c0.295,0.244,0.591,0.486,0.89,0.726l0,0l-2.848,3.547C31.362,144.372,31.048,144.118,30.734,143.859L30.734,143.859z
				 M130.477,140.045c0.293-0.245,0.585-0.493,0.873-0.743l0,0l2.976,3.441c-0.308,0.265-0.616,0.528-0.926,0.788l0,0
				L130.477,140.045L130.477,140.045z M28.255,141.719l3.041-3.383c0.283,0.256,0.571,0.509,0.86,0.76l0,0h-0.002l-2.988,3.43
				C28.86,142.259,28.556,141.989,28.255,141.719L28.255,141.719z M132.804,138.013c0.282-0.258,0.565-0.517,0.842-0.779l0,0
				l3.113,3.318c-0.295,0.277-0.594,0.552-0.893,0.826l0,0L132.804,138.013L132.804,138.013z M25.863,139.48l3.175-3.258
				c0.274,0.267,0.55,0.533,0.828,0.796l0,0l-3.125,3.303C26.446,140.043,26.152,139.761,25.863,139.48L25.863,139.48z
				 M135.047,135.888c0.271-0.269,0.542-0.541,0.81-0.814l0,0l3.245,3.19c-0.283,0.287-0.57,0.574-0.858,0.858l0,0L135.047,135.888
				L135.047,135.888z M23.564,137.145l3.305-3.126c0.263,0.278,0.528,0.553,0.796,0.828l0,0h-0.002l-3.256,3.176
				C24.123,137.733,23.844,137.44,23.564,137.145L23.564,137.145z M137.202,133.671c0.26-0.28,0.519-0.562,0.776-0.845l0,0
				l3.371,3.054c-0.271,0.301-0.545,0.6-0.822,0.896l0,0L137.202,133.671L137.202,133.671z M21.363,134.72l3.43-2.987
				c0.251,0.288,0.504,0.575,0.76,0.858l0,0l-3.384,3.04C21.898,135.33,21.629,135.027,21.363,134.72L21.363,134.72z
				 M139.267,131.368c0.249-0.289,0.497-0.582,0.741-0.875l0,0l3.493,2.916c-0.261,0.311-0.523,0.62-0.788,0.927l0,0
				L139.267,131.368L139.267,131.368z M19.262,132.211l3.549-2.847c0.238,0.296,0.48,0.593,0.724,0.887l0,0l-3.505,2.902
				C19.773,132.841,19.515,132.527,19.262,132.211L19.262,132.211z M141.234,128.984c0.239-0.298,0.473-0.602,0.707-0.906l0,0
				l3.608,2.77c-0.248,0.322-0.497,0.644-0.75,0.961l0,0L141.234,128.984L141.234,128.984z M17.267,129.615l3.66-2.698
				c0.227,0.307,0.456,0.612,0.687,0.917l0,0h0.001l-3.621,2.755C17.749,130.268,17.508,129.942,17.267,129.615L17.267,129.615z
				 M23.535,130.251L23.535,130.251l0,0.001C23.535,130.252,23.535,130.252,23.535,130.251L23.535,130.251z M143.107,126.52
				c0.224-0.31,0.447-0.62,0.669-0.934l0,0l-0.003-0.002l3.719,2.624c-0.234,0.332-0.47,0.662-0.709,0.991l0,0L143.107,126.52
				L143.107,126.52z M15.378,126.946l3.767-2.549c0.216,0.315,0.431,0.63,0.65,0.943l0,0v0.002l-3.729,2.604
				C15.834,127.615,15.605,127.282,15.378,126.946L15.378,126.946z M144.875,123.982c0.213-0.32,0.423-0.639,0.631-0.962l0,0v0.002
				l3.821,2.466c-0.219,0.342-0.442,0.682-0.667,1.019l0,0L144.875,123.982L144.875,123.982z M13.601,124.202l3.869-2.396
				c0.201,0.326,0.403,0.648,0.609,0.97l0,0h0.002l-3.833,2.452C14.03,124.888,13.814,124.545,13.601,124.202L13.601,124.202z
				 M146.54,121.373c0.201-0.327,0.397-0.656,0.592-0.986l0,0l3.92,2.308c-0.208,0.352-0.416,0.699-0.627,1.047l0,0L146.54,121.373
				L146.54,121.373z M11.937,121.386l3.961-2.235c0.189,0.333,0.378,0.664,0.571,0.993l0,0l-3.929,2.295
				C12.338,122.09,12.136,121.738,11.937,121.386L11.937,121.386z M148.098,118.698c0.185-0.335,0.368-0.672,0.55-1.01l0,0
				l4.01,2.146c-0.19,0.359-0.386,0.716-0.582,1.072l0,0L148.098,118.698L148.098,118.698z M10.39,118.508l4.05-2.072
				c0.174,0.34,0.35,0.679,0.528,1.015l0,0l-4.018,2.133C10.761,119.227,10.574,118.868,10.39,118.508L10.39,118.508z
				 M149.545,115.959c0.172-0.342,0.342-0.687,0.508-1.033l0,0l4.096,1.98c-0.178,0.366-0.357,0.731-0.539,1.095l0,0
				L149.545,115.959L149.545,115.959z M8.963,115.57l4.132-1.906c0.158,0.348,0.321,0.693,0.485,1.036l0,0l-4.103,1.966
				C9.303,116.302,9.131,115.937,8.963,115.57L8.963,115.57z M150.878,113.163c0.159-0.35,0.314-0.7,0.468-1.053l0,0v0.002
				l4.172,1.809c-0.162,0.373-0.327,0.746-0.495,1.116l0,0L150.878,113.163L150.878,113.163z M7.656,112.575l4.206-1.732
				c0.145,0.352,0.295,0.704,0.444,1.053l0,0l-4.179,1.796C7.966,113.322,7.809,112.949,7.656,112.575L7.656,112.575z
				 M152.095,110.313c0.144-0.355,0.286-0.712,0.424-1.071l0,0l4.245,1.636c-0.147,0.38-0.297,0.759-0.449,1.136l0,0
				L152.095,110.313L152.095,110.313z M6.471,109.521l4.273-1.561c0.13,0.361,0.265,0.719,0.4,1.076l0,0l-4.248,1.624
				C6.752,110.282,6.609,109.901,6.471,109.521L6.471,109.521z M153.196,107.414c0.129-0.361,0.255-0.724,0.378-1.087l0,0v-0.001
				l4.31,1.461c-0.132,0.386-0.265,0.77-0.402,1.153l0,0L153.196,107.414L153.196,107.414z M5.411,106.418l4.335-1.381
				c0.115,0.366,0.234,0.729,0.357,1.091l0,0h-0.002l-4.311,1.448C5.661,107.191,5.535,106.806,5.411,106.418L5.411,106.418z
				 M154.176,104.473c0.112-0.365,0.222-0.731,0.331-1.098l0,0l4.366,1.279c-0.116,0.39-0.233,0.779-0.352,1.167l0,0
				L154.176,104.473L154.176,104.473z M4.479,103.278l4.389-1.203c0.1,0.369,0.204,0.738,0.312,1.104l0,0l-4.37,1.268
				C4.697,104.06,4.587,103.669,4.479,103.278L4.479,103.278z M155.031,101.502c0.098-0.369,0.192-0.739,0.284-1.111l0,0l4.416,1.1
				c-0.099,0.396-0.201,0.789-0.305,1.18l0,0L155.031,101.502L155.031,101.502z M3.68,100.1l4.432-1.021
				c0.087,0.374,0.176,0.746,0.267,1.117l0,0l-4.417,1.089C3.865,100.891,3.77,100.495,3.68,100.1L3.68,100.1z M155.762,98.502
				c0.083-0.375,0.162-0.749,0.24-1.124l0,0l4.455,0.917c-0.081,0.396-0.166,0.796-0.253,1.191l0,0L155.762,98.502L155.762,98.502z
				 M3.01,96.893l4.47-0.838c0.071,0.375,0.145,0.748,0.221,1.124l0,0l-4.458,0.907C3.161,97.688,3.084,97.291,3.01,96.893
				L3.01,96.893z M7.701,97.18L7.701,97.18l0.001,0.001C7.702,97.181,7.701,97.181,7.701,97.18L7.701,97.18z M156.369,95.47
				c0.067-0.376,0.133-0.752,0.195-1.13l0,0l4.49,0.732c-0.066,0.401-0.135,0.8-0.206,1.199l0,0L156.369,95.47L156.369,95.47z
				 M2.473,93.659l4.502-0.652c0.055,0.378,0.111,0.755,0.171,1.133l0,0l-4.49,0.724C2.593,94.462,2.53,94.062,2.473,93.659
				L2.473,93.659z M7.147,94.14L7.147,94.14l0.001,0.002C7.147,94.14,7.147,94.14,7.147,94.14L7.147,94.14z M156.85,92.418
				c0.053-0.379,0.103-0.757,0.147-1.138l0,0v-0.002l4.518,0.553c-0.049,0.402-0.103,0.805-0.157,1.206l0,0L156.85,92.418
				L156.85,92.418z M2.067,90.409l4.525-0.47c0.04,0.381,0.083,0.761,0.129,1.141l0,0l-4.518,0.539
				C2.154,91.216,2.11,90.812,2.067,90.409L2.067,90.409z M157.21,89.348c0.036-0.382,0.07-0.762,0.1-1.143l0,0l4.534,0.365
				c-0.032,0.406-0.068,0.811-0.106,1.212l0,0L157.21,89.348L157.21,89.348z M1.794,87.145l4.542-0.287
				c0.023,0.382,0.051,0.766,0.08,1.145l0,0l-4.534,0.355C1.849,87.955,1.821,87.55,1.794,87.145L1.794,87.145z M157.443,86.266
				c0.02-0.382,0.039-0.766,0.055-1.148l0,0l4.545,0.183c-0.016,0.405-0.036,0.81-0.059,1.214l0,0L157.443,86.266L157.443,86.266z
				 M1.655,83.873l4.549-0.102c0.007,0.381,0.019,0.764,0.034,1.146l0,0l-4.545,0.171C1.678,84.685,1.664,84.281,1.655,83.873
				L1.655,83.873z M157.551,83.174c0.005-0.382,0.007-0.764,0.007-1.148l0,0h0.003h4.547c0,0.407-0.003,0.811-0.008,1.216l0,0
				L157.551,83.174L157.551,83.174z M6.185,81.827l-4.549-0.01c0-0.406,0.003-0.812,0.012-1.217l0,0l4.549,0.079
				c-0.008,0.384-0.012,0.766-0.012,1.15l0,0V81.827L6.185,81.827z M157.512,79.33l4.547-0.159c0.013,0.402,0.024,0.807,0.032,1.212
				l0,0l-4.547,0.092C157.536,80.092,157.524,79.71,157.512,79.33L157.512,79.33z M1.71,78.542c0.017-0.405,0.038-0.812,0.06-1.216
				l0,0l4.542,0.263c-0.024,0.382-0.043,0.764-0.059,1.147l0,0L1.71,78.542L1.71,78.542z M157.341,76.243l4.536-0.342
				c0.031,0.403,0.059,0.807,0.083,1.214l0,0l-4.539,0.274C157.396,77.007,157.371,76.624,157.341,76.243L157.341,76.243z
				 M6.448,75.651H6.45H6.448L6.448,75.651z M1.915,75.273c0.034-0.405,0.07-0.807,0.11-1.212l0,0l4.527,0.446
				c-0.036,0.38-0.072,0.762-0.104,1.144l0,0L1.915,75.273L1.915,75.273z M157.046,73.166l4.519-0.527
				c0.048,0.403,0.091,0.807,0.132,1.21l0,0l-4.527,0.459C157.133,73.926,157.091,73.546,157.046,73.166L157.046,73.166z
				 M2.254,72.015c0.049-0.403,0.102-0.805,0.159-1.206l0,0l4.506,0.63c-0.053,0.378-0.104,0.758-0.151,1.139l0,0L2.254,72.015
				L2.254,72.015z M156.626,70.105l4.492-0.711c0.064,0.399,0.123,0.802,0.182,1.202l0,0l-4.504,0.643
				C156.742,70.859,156.685,70.482,156.626,70.105L156.626,70.105z M2.725,68.772c0.066-0.401,0.136-0.799,0.208-1.198l0,0
				l4.475,0.812c-0.068,0.376-0.132,0.754-0.196,1.132l0,0L2.725,68.772L2.725,68.772z M156.079,67.062l4.463-0.894
				c0.079,0.397,0.155,0.796,0.228,1.195l0,0l-4.474,0.826C156.227,67.813,156.156,67.437,156.079,67.062L156.079,67.062z
				 M3.328,65.55c0.083-0.397,0.17-0.794,0.257-1.187l0,0l4.439,0.997c-0.084,0.372-0.165,0.746-0.244,1.121l0,0L3.328,65.55
				L3.328,65.55z M155.41,64.047h0.002l4.419-1.078c0.097,0.395,0.19,0.789,0.279,1.185l0,0l-4.435,1.01
				C155.59,64.789,155.502,64.417,155.41,64.047L155.41,64.047z M4.063,62.356c0.101-0.394,0.203-0.785,0.306-1.178l0,0l4.395,1.18
				c-0.098,0.369-0.195,0.739-0.289,1.112l0,0L4.063,62.356L4.063,62.356z M154.618,61.06l4.372-1.258
				c0.111,0.389,0.221,0.781,0.327,1.172l0,0l-4.391,1.191C154.827,61.795,154.723,61.426,154.618,61.06L154.618,61.06z
				 M4.93,59.197c0.116-0.39,0.234-0.777,0.356-1.165l0,0l4.341,1.357c-0.113,0.367-0.225,0.732-0.335,1.099l0,0L4.93,59.197
				L4.93,59.197z M153.703,58.11l4.317-1.438c0.126,0.384,0.253,0.77,0.375,1.157l0,0l-4.338,1.371
				C153.942,58.836,153.824,58.472,153.703,58.11L153.703,58.11z M153.703,58.108c0,0,0,0.001,0,0.002l0,0l0,0V58.108
				L153.703,58.108z M10.232,57.536l0.002,0l-0.002,0.002C10.231,57.538,10.232,57.537,10.232,57.536L10.232,57.536z M5.928,56.067
				c0.132-0.386,0.267-0.771,0.404-1.153l0,0l4.281,1.538c-0.13,0.36-0.256,0.721-0.381,1.084l0,0L5.928,56.067L5.928,56.067z
				 M152.666,55.198l4.255-1.613c0.144,0.378,0.283,0.76,0.423,1.14l0,0l-4.279,1.548C152.935,55.914,152.802,55.555,152.666,55.198
				L152.666,55.198z M7.055,52.978c0.147-0.38,0.299-0.758,0.452-1.135l0,0l4.215,1.712c-0.146,0.355-0.287,0.713-0.425,1.07l0,0
				v0.001L7.055,52.978L7.055,52.978z M151.513,52.335l4.184-1.786c0.16,0.371,0.314,0.743,0.467,1.118l0,0l-4.208,1.723
				C151.809,53.037,151.662,52.686,151.513,52.335L151.513,52.335z M8.308,49.939c0.163-0.373,0.329-0.745,0.498-1.116l0,0
				l4.141,1.885c-0.16,0.35-0.316,0.7-0.469,1.052l0,0L8.308,49.939L8.308,49.939z M150.246,49.529l4.109-1.957
				c0.172,0.365,0.344,0.731,0.512,1.101l0,0l-4.137,1.893C150.572,50.217,150.411,49.872,150.246,49.529L150.246,49.529z
				 M9.685,46.955c0.178-0.365,0.359-0.729,0.543-1.091l0,0l4.059,2.052c-0.174,0.342-0.343,0.686-0.512,1.031l0,0L9.685,46.955
				L9.685,46.955z M148.867,46.774l4.023-2.124c0.189,0.359,0.375,0.719,0.558,1.078l0,0l-4.055,2.062
				C149.22,47.449,149.044,47.111,148.867,46.774L148.867,46.774z M15.187,46.19l-4.004-2.156c0.193-0.359,0.388-0.715,0.586-1.07
				l0,0l3.973,2.217c-0.188,0.335-0.373,0.671-0.555,1.01l0,0V46.19L15.187,46.19z M147.373,44.078l3.934-2.286
				c0.203,0.35,0.402,0.702,0.601,1.056l0,0l-3.969,2.223C147.752,44.738,147.564,44.408,147.373,44.078L147.373,44.078z
				 M147.372,44.076c0,0.001,0,0.001,0.001,0.002l0,0l-0.001,0V44.076L147.372,44.076z M12.797,41.175
				c0.209-0.348,0.418-0.696,0.63-1.044l0,0l3.878,2.378c-0.2,0.328-0.399,0.656-0.594,0.986l0,0L12.797,41.175L12.797,41.175z
				 M145.769,41.442V41.44l3.838-2.441c0.217,0.34,0.431,0.684,0.645,1.028l0,0l-3.875,2.384
				C146.178,42.087,145.975,41.763,145.769,41.442L145.769,41.442z M14.528,38.388c0.221-0.34,0.446-0.681,0.671-1.017l0,0
				l3.777,2.536c-0.213,0.317-0.423,0.637-0.633,0.958l0,0L14.528,38.388L14.528,38.388z M144.059,38.872l3.734-2.596
				c0.233,0.331,0.459,0.666,0.687,1.001l0,0l-3.775,2.54C144.493,39.502,144.277,39.186,144.059,38.872L144.059,38.872z
				 M16.369,35.675c0.236-0.333,0.473-0.662,0.713-0.989l0,0l3.672,2.687c-0.227,0.309-0.45,0.62-0.673,0.933l0,0L16.369,35.675
				L16.369,35.675z M142.246,36.375l3.627-2.748c0.244,0.323,0.486,0.648,0.726,0.976l0,0l-3.666,2.69
				C142.705,36.985,142.477,36.679,142.246,36.375L142.246,36.375z M21.921,35.816l-3.6-2.777c0.248-0.321,0.499-0.641,0.75-0.959
				l0,0l3.559,2.834c-0.239,0.299-0.476,0.6-0.709,0.904l0,0V35.816L21.921,35.816z M140.333,33.95l3.511-2.891
				c0.257,0.313,0.512,0.627,0.766,0.943l0,0l-3.556,2.839C140.816,34.542,140.575,34.245,140.333,33.95L140.333,33.95z
				 M20.376,30.484c0.261-0.31,0.523-0.62,0.789-0.926l0,0l3.441,2.976c-0.249,0.29-0.499,0.58-0.744,0.875l0,0L20.376,30.484
				L20.376,30.484z M138.32,31.606l3.393-3.031c0.271,0.303,0.538,0.606,0.804,0.913l0,0l-3.438,2.98
				C138.829,32.179,138.576,31.891,138.32,31.606L138.32,31.606z M25.895,31.08l-3.362-3.064c0.273-0.299,0.548-0.597,0.826-0.892
				l0,0l3.316,3.112c-0.263,0.28-0.522,0.561-0.779,0.844l0,0H25.895L25.895,31.08z M136.214,29.344l3.268-3.165
				c0.282,0.289,0.561,0.584,0.84,0.879l0,0l-3.314,3.116C136.745,29.896,136.48,29.621,136.214,29.344L136.214,29.344z
				 M28.022,28.838l-3.235-3.198c0.286-0.288,0.573-0.574,0.862-0.858l0,0l3.189,3.245c-0.274,0.269-0.545,0.539-0.814,0.812l0,0
				H28.022L28.022,28.838z M134.019,27.17l3.134-3.295c0.293,0.278,0.584,0.559,0.876,0.843l0,0l-3.184,3.25
				C134.571,27.699,134.296,27.435,134.019,27.17L134.019,27.17z M30.238,26.684l-3.102-3.326c0.297-0.276,0.596-0.55,0.894-0.822
				l0,0l3.056,3.372c-0.286,0.257-0.567,0.516-0.845,0.776l0,0H30.238L30.238,26.684z M131.735,25.085h0.001l2.997-3.422
				c0.305,0.268,0.61,0.537,0.91,0.809l0,0l-3.05,3.375C132.309,25.593,132.024,25.337,131.735,25.085L131.735,25.085z
				 M29.575,21.172c0.306-0.263,0.616-0.525,0.926-0.784l0,0l2.915,3.492c-0.295,0.246-0.586,0.491-0.877,0.741l0,0v0.002
				L29.575,21.172L29.575,21.172z M129.37,23.095l2.854-3.542c0.318,0.255,0.631,0.512,0.943,0.773l0,0l-2.91,3.497
				C129.963,23.577,129.666,23.335,129.37,23.095L129.37,23.095z M32.099,19.088c0.318-0.251,0.637-0.499,0.957-0.747l0,0
				l2.772,3.61c-0.305,0.232-0.605,0.467-0.906,0.705l0,0L32.099,19.088L32.099,19.088z M126.923,21.201l2.709-3.653
				c0.327,0.242,0.65,0.486,0.974,0.733l0,0l-2.766,3.612C127.535,21.66,127.231,21.429,126.923,21.201L126.923,21.201z
				 M34.704,17.111c0.327-0.239,0.656-0.475,0.987-0.709l0,0l2.623,3.719c-0.314,0.22-0.624,0.442-0.932,0.667l0,0L34.704,17.111
				L34.704,17.111z M124.4,19.408l2.561-3.759c0.334,0.227,0.669,0.458,1.002,0.692l0,0l-2.618,3.721
				C125.032,19.843,124.718,19.625,124.4,19.408L124.4,19.408z M37.388,15.239c0.336-0.226,0.674-0.447,1.015-0.665l0,0l2.467,3.821
				c-0.319,0.206-0.639,0.416-0.956,0.628l0,0v0.002L37.388,15.239L37.388,15.239z M121.806,17.719l2.406-3.861
				c0.343,0.214,0.688,0.431,1.028,0.653l0,0l-2.462,3.823C122.456,18.127,122.133,17.921,121.806,17.719L121.806,17.719z
				 M40.144,13.48c0.346-0.212,0.692-0.42,1.042-0.626l0,0l2.311,3.919c-0.331,0.195-0.658,0.392-0.983,0.59l0,0L40.144,13.48
				L40.144,13.48z M119.146,16.139l2.244-3.958c0.354,0.201,0.705,0.404,1.056,0.608l0,0l-2.303,3.924
				C119.811,16.518,119.481,16.328,119.146,16.139L119.146,16.139z M42.97,11.835c0.354-0.197,0.709-0.392,1.066-0.582l0,0
				l2.148,4.01c-0.336,0.18-0.671,0.363-1.005,0.548l0,0L42.97,11.835L42.97,11.835z M116.421,14.668v-0.002l2.08-4.045
				c0.361,0.186,0.723,0.375,1.082,0.566l0,0l-2.144,4.014C117.102,15.019,116.763,14.842,116.421,14.668L116.421,14.668z
				 M45.859,10.305c0.361-0.181,0.725-0.359,1.087-0.537l0,0l1.983,4.096c-0.343,0.166-0.686,0.335-1.026,0.506l0,0L45.859,10.305
				L45.859,10.305z M113.638,13.308l1.911-4.127c0.37,0.17,0.738,0.344,1.104,0.52l0,0l-1.975,4.1
				C114.333,13.633,113.985,13.469,113.638,13.308L113.638,13.308z M50.682,13.041l-1.876-4.143
				c0.369-0.166,0.738-0.331,1.108-0.492l0,0l1.813,4.171c-0.35,0.153-0.698,0.306-1.044,0.463l0,0H50.682L50.682,13.041z
				 M110.799,12.064l1.739-4.204c0.377,0.155,0.752,0.314,1.125,0.475l0,0l-1.803,4.177
				C111.508,12.361,111.154,12.209,110.799,12.064L110.799,12.064z M51.807,7.613c0.376-0.153,0.754-0.302,1.133-0.448l0,0
				l1.641,4.244c-0.358,0.138-0.712,0.278-1.068,0.421l0,0L51.807,7.613L51.807,7.613z M107.912,10.937l1.564-4.271
				c0.384,0.14,0.763,0.284,1.144,0.429l0,0l-1.63,4.247C108.633,11.205,108.272,11.069,107.912,10.937L107.912,10.937z
				 M56.4,10.731l-1.529-4.284c0.381-0.137,0.765-0.271,1.149-0.401l0,0l1.466,4.308c-0.363,0.123-0.725,0.249-1.083,0.378l0,0H56.4
				L56.4,10.731z M104.977,9.931l1.388-4.332c0.389,0.123,0.775,0.252,1.161,0.38l0,0l-1.454,4.311
				C105.709,10.167,105.345,10.048,104.977,9.931L104.977,9.931z M57.979,5.408c0.387-0.122,0.775-0.238,1.165-0.353l0,0
				l1.285,4.364c-0.367,0.108-0.734,0.219-1.097,0.333l0,0L57.979,5.408L57.979,5.408z M102.017,9.05l1.209-4.387
				c0.391,0.108,0.78,0.219,1.169,0.332l0,0l-1.274,4.366C102.754,9.255,102.385,9.15,102.017,9.05L102.017,9.05z M61.127,4.499
				c0.392-0.106,0.785-0.208,1.179-0.307l0,0l1.106,4.413c-0.373,0.093-0.742,0.189-1.112,0.288l0,0L61.127,4.499L61.127,4.499z
				 M99.021,8.289l1.026-4.432c0.396,0.092,0.791,0.187,1.184,0.283l0,0l-1.095,4.418C99.766,8.465,99.394,8.376,99.021,8.289
				L99.021,8.289z M64.309,3.718c0.396-0.089,0.792-0.174,1.189-0.255l0,0l0.925,4.453c-0.375,0.079-0.749,0.159-1.122,0.242l0,0
				L64.309,3.718L64.309,3.718z M95.996,7.654h0.002l0.841-4.47c0.4,0.076,0.798,0.153,1.195,0.234l0,0l-0.912,4.457
				C96.748,7.8,96.375,7.726,95.996,7.654L95.996,7.654z M67.522,3.069c0.398-0.071,0.798-0.14,1.198-0.206l0,0l0.742,4.487
				c-0.378,0.062-0.754,0.128-1.131,0.197l0,0L67.522,3.069L67.522,3.069z M92.948,7.143l0.66-4.501
				c0.402,0.06,0.803,0.121,1.205,0.187l0,0l-0.73,4.489C93.706,7.257,93.328,7.199,92.948,7.143L92.948,7.143z M71.382,7.059
				C71.382,7.059,71.383,7.059,71.382,7.059l0.001-0.001v0.001H71.382L71.382,7.059z M70.757,2.553
				c0.401-0.055,0.804-0.108,1.207-0.157l0,0l0.557,4.516c-0.381,0.045-0.759,0.094-1.138,0.147l0,0L70.757,2.553L70.757,2.553z
				 M89.882,6.758h0.002l0.475-4.524c0.404,0.043,0.807,0.088,1.21,0.136l0,0l-0.545,4.517C90.643,6.841,90.263,6.797,89.882,6.758
				L89.882,6.758z M74.011,2.169c0.404-0.038,0.808-0.076,1.212-0.108l0,0l0.373,4.535c-0.382,0.03-0.764,0.064-1.144,0.102l0,0
				L74.011,2.169L74.011,2.169z M86.803,6.497h-0.002l0.293-4.54c0.405,0.026,0.81,0.055,1.213,0.087l0,0l-0.361,4.534
				C87.566,6.548,87.184,6.522,86.803,6.497L86.803,6.497z M77.278,1.92c0.404-0.023,0.808-0.044,1.215-0.061l0,0l0.189,4.545
				c-0.384,0.017-0.766,0.035-1.147,0.057l0,0L77.278,1.92L77.278,1.92z M83.714,6.361l0.107-4.547
				c0.407,0.01,0.812,0.021,1.218,0.038l0,0l-0.178,4.545C84.48,6.382,84.098,6.371,83.714,6.361L83.714,6.361z M80.546,1.8
				c0.404-0.006,0.811-0.009,1.218-0.011l0,0l0.005,4.549c-0.384,0.002-0.768,0.003-1.15,0.011l0,0L80.546,1.8L80.546,1.8z"/>
		</g>
		<g>
			<g>
				<path fill="#2579CC" d="M110.487,122.672c-0.396,1.506-1.937,2.408-3.442,2.011c-1.506-0.395-2.405-1.937-2.011-3.445
					c0.395-1.506,1.938-2.405,3.445-2.009C109.986,119.627,110.882,121.169,110.487,122.672z"/>
				<path fill="#2579CC" d="M103.569,115.723c-1.102-1.102-1.102-2.887,0-3.988c1.101-1.101,2.888-1.101,3.988-0.002
					c1.102,1.103,1.1,2.886-0.002,3.987C106.454,116.826,104.669,116.826,103.569,115.723z"/>
				<path fill="#2579CC" d="M114.283,108.246c-0.395,1.505-1.938,2.408-3.441,2.008c-1.506-0.397-2.407-1.936-2.01-3.439
					c0.394-1.507,1.937-2.41,3.442-2.014C113.782,105.198,114.682,106.737,114.283,108.246z"/>
				<circle fill="#2579CC" cx="119.963" cy="109.741" r="2.82"/>
				<path fill="#2579CC" d="M124.483,118.707c-0.396,1.503-1.939,2.403-3.445,2.006c-1.505-0.393-2.403-1.934-2.009-3.441
					c0.394-1.505,1.941-2.406,3.443-2.008C123.976,115.66,124.875,117.203,124.483,118.707z"/>
				<path fill="#2579CC" d="M118.895,124.887c-0.395,1.506-1.938,2.406-3.445,2.01c-1.507-0.396-2.405-1.937-2.011-3.447
					c0.4-1.505,1.939-2.404,3.444-2.008C118.39,121.839,119.291,123.38,118.895,124.887z"/>
				<path fill="#2579CC" d="M116.46,116.595c-0.396,1.507-1.937,2.408-3.444,2.01c-1.506-0.396-2.406-1.937-2.01-3.444
					c0.397-1.505,1.938-2.402,3.443-2.007C115.955,113.548,116.854,115.089,116.46,116.595z"/>
				<path fill="#2579CC" d="M110.487,122.672c-0.396,1.506-1.937,2.408-3.442,2.011c-1.506-0.395-2.405-1.937-2.011-3.445
					c0.395-1.506,1.938-2.405,3.445-2.009C109.986,119.627,110.882,121.169,110.487,122.672z"/>
				<path fill="#2579CC" d="M103.569,115.723c-1.102-1.102-1.102-2.887,0-3.988c1.101-1.101,2.888-1.101,3.988-0.002
					c1.102,1.103,1.1,2.886-0.002,3.987C106.454,116.826,104.669,116.826,103.569,115.723z"/>
				<path fill="#2579CC" d="M114.283,108.246c-0.395,1.505-1.938,2.408-3.441,2.008c-1.506-0.397-2.407-1.936-2.01-3.439
					c0.394-1.507,1.937-2.41,3.442-2.014C113.782,105.198,114.682,106.737,114.283,108.246z"/>
				<circle fill="#2579CC" cx="119.963" cy="109.741" r="2.82"/>
				<path fill="#2579CC" d="M124.483,118.707c-0.396,1.503-1.939,2.403-3.445,2.006c-1.505-0.393-2.403-1.934-2.009-3.441
					c0.394-1.505,1.941-2.406,3.443-2.008C123.976,115.66,124.875,117.203,124.483,118.707z"/>
				<path fill="#2579CC" d="M118.895,124.887c-0.395,1.506-1.938,2.406-3.445,2.01c-1.507-0.396-2.405-1.937-2.011-3.447
					c0.4-1.505,1.939-2.404,3.444-2.008C118.39,121.839,119.291,123.38,118.895,124.887z"/>
				<path fill="#2579CC" d="M116.46,116.595c-0.396,1.507-1.937,2.408-3.444,2.01c-1.506-0.396-2.406-1.937-2.01-3.444
					c0.397-1.505,1.938-2.402,3.443-2.007C115.955,113.548,116.854,115.089,116.46,116.595z"/>
			</g>
			<path fill="#2579CC" d="M99.273,121.583c-0.394,1.505-1.936,2.404-3.442,2.008c-1.505-0.396-2.404-1.939-2.006-3.44
				c0.395-1.508,1.937-2.409,3.44-2.011C98.769,118.535,99.67,120.077,99.273,121.583z"/>
			<g>
				<path fill="#2579CC" d="M72.81,132.281c-1.344,0.785-3.072,0.331-3.855-1.014c-0.787-1.345-0.332-3.07,1.014-3.857
					c1.343-0.785,3.069-0.33,3.857,1.016C74.608,129.772,74.152,131.496,72.81,132.281z"/>
				<circle fill="#2579CC" cx="75.653" cy="122.473" r="2.819"/>
				<path fill="#2579CC" d="M85.694,124.763c-1.342,0.785-3.071,0.331-3.854-1.013c-0.783-1.346-0.333-3.07,1.012-3.855
					c1.343-0.787,3.073-0.333,3.858,1.011C87.495,122.252,87.045,123.98,85.694,124.763z"/>
				<circle fill="#2579CC" cx="88.655" cy="129.835" r="2.82"/>
				<path fill="#2579CC" d="M85.51,139.371c-1.342,0.785-3.07,0.329-3.856-1.017c-0.785-1.341-0.331-3.066,1.015-3.853
					c1.343-0.787,3.073-0.329,3.854,1.015C87.306,136.861,86.853,138.586,85.51,139.371z"/>
				<path fill="#2579CC" d="M77.19,139.791c-1.345,0.785-3.072,0.331-3.857-1.014c-0.786-1.346-0.331-3.073,1.014-3.86
					c1.347-0.782,3.07-0.33,3.855,1.016C78.989,137.278,78.536,139.005,77.19,139.791z"/>
				<path fill="#2579CC" d="M81.33,132.207c-1.345,0.783-3.072,0.332-3.857-1.016c-0.784-1.344-0.33-3.071,1.017-3.858
					c1.345-0.782,3.07-0.326,3.854,1.017C83.127,129.694,82.674,131.422,81.33,132.207z"/>
				<path fill="#2579CC" d="M72.81,132.281c-1.344,0.785-3.072,0.331-3.855-1.014c-0.787-1.345-0.332-3.07,1.014-3.857
					c1.343-0.785,3.069-0.33,3.857,1.016C74.608,129.772,74.152,131.496,72.81,132.281z"/>
				<circle fill="#2579CC" cx="75.653" cy="122.473" r="2.819"/>
				<path fill="#2579CC" d="M85.694,124.763c-1.342,0.785-3.071,0.331-3.854-1.013c-0.783-1.346-0.333-3.07,1.012-3.855
					c1.343-0.787,3.073-0.333,3.858,1.011C87.495,122.252,87.045,123.98,85.694,124.763z"/>
				<circle fill="#2579CC" cx="88.655" cy="129.835" r="2.82"/>
				<path fill="#2579CC" d="M85.51,139.371c-1.342,0.785-3.07,0.329-3.856-1.017c-0.785-1.341-0.331-3.066,1.015-3.853
					c1.343-0.787,3.073-0.329,3.854,1.015C87.306,136.861,86.853,138.586,85.51,139.371z"/>
				<path fill="#2579CC" d="M77.19,139.791c-1.345,0.785-3.072,0.331-3.857-1.014c-0.786-1.346-0.331-3.073,1.014-3.86
					c1.347-0.782,3.07-0.33,3.855,1.016C78.989,137.278,78.536,139.005,77.19,139.791z"/>
				<path fill="#2579CC" d="M81.33,132.207c-1.345,0.783-3.072,0.332-3.857-1.016c-0.784-1.344-0.33-3.071,1.017-3.858
					c1.345-0.782,3.07-0.326,3.854,1.017C83.127,129.694,82.674,131.422,81.33,132.207z"/>
			</g>
			<path fill="#2579CC" d="M65.65,123.58c-1.341,0.786-3.068,0.33-3.853-1.015c-0.786-1.344-0.329-3.069,1.013-3.852
				c1.346-0.788,3.073-0.333,3.855,1.011C67.451,121.069,66.997,122.794,65.65,123.58z"/>
			<g>
				<path fill="#2579CC" d="M39.454,112.375c-1.504-0.396-2.406-1.937-2.009-3.442c0.394-1.507,1.935-2.406,3.444-2.012
					c1.504,0.396,2.405,1.938,2.008,3.446C42.5,111.872,40.959,112.769,39.454,112.375z"/>
				<path fill="#2579CC" d="M46.406,105.455c1.1-1.101,2.886-1.101,3.987,0c1.101,1.101,1.101,2.888,0,3.988
					c-1.102,1.103-2.886,1.101-3.986,0C45.303,108.341,45.303,106.556,46.406,105.455z"/>
				<path fill="#2579CC" d="M53.882,116.169c-1.504-0.394-2.407-1.938-2.009-3.441c0.397-1.505,1.936-2.406,3.44-2.01
					c1.507,0.395,2.409,1.938,2.013,3.443C56.929,115.669,55.39,116.571,53.882,116.169z"/>
				<circle fill="#2579CC" cx="52.387" cy="121.85" r="2.82"/>
				<path fill="#2579CC" d="M43.421,126.37c-1.504-0.396-2.403-1.939-2.008-3.446c0.394-1.505,1.936-2.404,3.443-2.01
					c1.505,0.395,2.406,1.941,2.007,3.445C46.467,125.863,44.926,126.763,43.421,126.37z"/>
				<path fill="#2579CC" d="M37.241,120.781c-1.505-0.395-2.406-1.938-2.009-3.443c0.396-1.507,1.938-2.406,3.446-2.012
					c1.505,0.399,2.404,1.938,2.008,3.443C40.29,120.276,38.748,121.178,37.241,120.781z"/>
				<path fill="#2579CC" d="M45.532,118.348c-1.506-0.396-2.407-1.938-2.009-3.445c0.395-1.506,1.938-2.406,3.445-2.01
					c1.505,0.398,2.403,1.94,2.007,3.444C48.579,117.841,47.037,118.742,45.532,118.348z"/>
				<path fill="#2579CC" d="M39.454,112.375c-1.504-0.396-2.406-1.937-2.009-3.442c0.394-1.507,1.935-2.406,3.444-2.012
					c1.504,0.396,2.405,1.938,2.008,3.446C42.5,111.872,40.959,112.769,39.454,112.375z"/>
				<path fill="#2579CC" d="M46.406,105.455c1.1-1.101,2.886-1.101,3.987,0c1.101,1.101,1.101,2.888,0,3.988
					c-1.102,1.103-2.886,1.101-3.986,0C45.303,108.341,45.303,106.556,46.406,105.455z"/>
				<path fill="#2579CC" d="M53.882,116.169c-1.504-0.394-2.407-1.938-2.009-3.441c0.397-1.505,1.936-2.406,3.44-2.01
					c1.507,0.395,2.409,1.938,2.013,3.443C56.929,115.669,55.39,116.571,53.882,116.169z"/>
				<circle fill="#2579CC" cx="52.387" cy="121.85" r="2.82"/>
				<path fill="#2579CC" d="M43.421,126.37c-1.504-0.396-2.403-1.939-2.008-3.446c0.394-1.505,1.936-2.404,3.443-2.01
					c1.505,0.395,2.406,1.941,2.007,3.445C46.467,125.863,44.926,126.763,43.421,126.37z"/>
				<path fill="#2579CC" d="M37.241,120.781c-1.505-0.395-2.406-1.938-2.009-3.443c0.396-1.507,1.938-2.406,3.446-2.012
					c1.505,0.399,2.404,1.938,2.008,3.443C40.29,120.276,38.748,121.178,37.241,120.781z"/>
				<path fill="#2579CC" d="M45.532,118.348c-1.506-0.396-2.407-1.938-2.009-3.445c0.395-1.506,1.938-2.406,3.445-2.01
					c1.505,0.398,2.403,1.94,2.007,3.444C48.579,117.841,47.037,118.742,45.532,118.348z"/>
			</g>
			<path fill="#2579CC" d="M40.545,101.159c-1.505-0.393-2.405-1.936-2.008-3.442c0.395-1.505,1.938-2.402,3.44-2.006
				c1.508,0.395,2.409,1.936,2.011,3.439C43.594,100.658,42.053,101.557,40.545,101.159z"/>
			<g>
				<path fill="#2579CC" d="M29.846,75.092c-0.783-1.343-0.331-3.071,1.014-3.854c1.344-0.788,3.07-0.333,3.857,1.013
					c0.784,1.343,0.331,3.069-1.016,3.856C32.355,76.891,30.632,76.435,29.846,75.092z"/>
				<circle fill="#2579CC" cx="39.655" cy="77.935" r="2.819"/>
				<path fill="#2579CC" d="M37.365,87.977c-0.786-1.343-0.332-3.072,1.012-3.855c1.346-0.784,3.072-0.333,3.855,1.013
					c0.787,1.343,0.333,3.072-1.012,3.857C39.874,89.778,38.147,89.327,37.365,87.977z"/>
				<path fill="#2579CC" d="M32.291,88.118c1.557,0,2.819,1.26,2.818,2.818c0,1.56-1.261,2.818-2.817,2.822
					c-1.559-0.002-2.822-1.264-2.822-2.822C29.471,89.378,30.734,88.116,32.291,88.118z"/>
				<path fill="#2579CC" d="M22.756,87.791c-0.784-1.342-0.329-3.068,1.015-3.854c1.344-0.788,3.068-0.332,3.856,1.015
					c0.785,1.343,0.328,3.071-1.016,3.853C25.268,89.588,23.541,89.135,22.756,87.791z"/>
				<path fill="#2579CC" d="M22.336,79.472c-0.785-1.344-0.331-3.072,1.015-3.856c1.346-0.785,3.071-0.331,3.858,1.015
					c0.783,1.347,0.331,3.07-1.015,3.854C24.849,81.27,23.122,80.818,22.336,79.472z"/>
				<path fill="#2579CC" d="M29.919,83.614c-0.783-1.346-0.331-3.073,1.015-3.858c1.345-0.783,3.073-0.33,3.858,1.017
					c0.784,1.346,0.328,3.07-1.015,3.855C32.432,85.411,30.705,84.956,29.919,83.614z"/>
				<path fill="#2579CC" d="M29.846,75.092c-0.783-1.343-0.331-3.071,1.014-3.854c1.344-0.788,3.07-0.333,3.857,1.013
					c0.784,1.343,0.331,3.069-1.016,3.856C32.355,76.891,30.632,76.435,29.846,75.092z"/>
				<circle fill="#2579CC" cx="39.655" cy="77.935" r="2.819"/>
				<path fill="#2579CC" d="M37.365,87.977c-0.786-1.343-0.332-3.072,1.012-3.855c1.346-0.784,3.072-0.333,3.855,1.013
					c0.787,1.343,0.333,3.072-1.012,3.857C39.874,89.778,38.147,89.327,37.365,87.977z"/>
				<path fill="#2579CC" d="M32.291,88.118c1.557,0,2.819,1.26,2.818,2.818c0,1.56-1.261,2.818-2.817,2.822
					c-1.559-0.002-2.822-1.264-2.822-2.822C29.471,89.378,30.734,88.116,32.291,88.118z"/>
				<path fill="#2579CC" d="M22.756,87.791c-0.784-1.342-0.329-3.068,1.015-3.854c1.344-0.788,3.068-0.332,3.856,1.015
					c0.785,1.343,0.328,3.071-1.016,3.853C25.268,89.588,23.541,89.135,22.756,87.791z"/>
				<path fill="#2579CC" d="M22.336,79.472c-0.785-1.344-0.331-3.072,1.015-3.856c1.346-0.785,3.071-0.331,3.858,1.015
					c0.783,1.347,0.331,3.07-1.015,3.854C24.849,81.27,23.122,80.818,22.336,79.472z"/>
				<path fill="#2579CC" d="M29.919,83.614c-0.783-1.346-0.331-3.073,1.015-3.858c1.345-0.783,3.073-0.33,3.858,1.017
					c0.784,1.346,0.328,3.07-1.015,3.855C32.432,85.411,30.705,84.956,29.919,83.614z"/>
			</g>
			<path fill="#2579CC" d="M38.546,67.933c-0.785-1.342-0.331-3.069,1.015-3.854c1.345-0.786,3.069-0.329,3.852,1.013
				c0.788,1.346,0.333,3.072-1.01,3.855C41.058,69.733,39.332,69.279,38.546,67.933z"/>
			<g>
				<path fill="#2579CC" d="M49.751,41.34c0.397-1.504,1.938-2.406,3.443-2.009c1.507,0.395,2.406,1.936,2.011,3.445
					c-0.396,1.504-1.938,2.405-3.445,2.009C50.254,44.386,49.357,42.845,49.751,41.34z"/>
				<path fill="#2579CC" d="M56.672,48.291c1.1,1.1,1.101,2.887,0,3.988c-1.102,1.1-2.888,1.1-3.988,0
					c-1.102-1.103-1.101-2.887,0.001-3.987C53.785,47.188,55.571,47.19,56.672,48.291z"/>
				<path fill="#2579CC" d="M45.957,55.768c0.394-1.506,1.938-2.407,3.441-2.01c1.505,0.398,2.407,1.937,2.01,3.441
					c-0.393,1.507-1.937,2.409-3.443,2.013C46.459,58.815,45.556,57.275,45.957,55.768z"/>
				<circle fill="#2579CC" cx="40.277" cy="54.273" r="2.821"/>
				<path fill="#2579CC" d="M35.758,45.307c0.396-1.504,1.939-2.403,3.445-2.008c1.506,0.394,2.403,1.936,2.009,3.444
					c-0.395,1.504-1.941,2.404-3.443,2.007C36.265,48.353,35.364,46.811,35.758,45.307z"/>
				<path fill="#2579CC" d="M41.344,39.126c0.397-1.505,1.94-2.406,3.445-2.009c1.507,0.396,2.405,1.938,2.011,3.446
					c-0.398,1.505-1.936,2.405-3.443,2.007C41.85,42.175,40.949,40.634,41.344,39.126z"/>
				<path fill="#2579CC" d="M43.779,47.417c0.397-1.506,1.939-2.408,3.446-2.009c1.505,0.396,2.406,1.938,2.01,3.445
					c-0.398,1.505-1.939,2.403-3.444,2.008C44.285,50.464,43.385,48.923,43.779,47.417z"/>
				<path fill="#2579CC" d="M49.751,41.34c0.397-1.504,1.938-2.406,3.443-2.009c1.507,0.395,2.406,1.936,2.011,3.445
					c-0.396,1.504-1.938,2.405-3.445,2.009C50.254,44.386,49.357,42.845,49.751,41.34z"/>
				<path fill="#2579CC" d="M56.672,48.291c1.1,1.1,1.101,2.887,0,3.988c-1.102,1.1-2.888,1.1-3.988,0
					c-1.102-1.103-1.101-2.887,0.001-3.987C53.785,47.188,55.571,47.19,56.672,48.291z"/>
				<path fill="#2579CC" d="M45.957,55.768c0.394-1.506,1.938-2.407,3.441-2.01c1.505,0.398,2.407,1.937,2.01,3.441
					c-0.393,1.507-1.937,2.409-3.443,2.013C46.459,58.815,45.556,57.275,45.957,55.768z"/>
				<circle fill="#2579CC" cx="40.277" cy="54.273" r="2.821"/>
				<path fill="#2579CC" d="M35.758,45.307c0.396-1.504,1.939-2.403,3.445-2.008c1.506,0.394,2.403,1.936,2.009,3.444
					c-0.395,1.504-1.941,2.404-3.443,2.007C36.265,48.353,35.364,46.811,35.758,45.307z"/>
				<path fill="#2579CC" d="M41.344,39.126c0.397-1.505,1.94-2.406,3.445-2.009c1.507,0.396,2.405,1.938,2.011,3.446
					c-0.398,1.505-1.936,2.405-3.443,2.007C41.85,42.175,40.949,40.634,41.344,39.126z"/>
				<path fill="#2579CC" d="M43.779,47.417c0.397-1.506,1.939-2.408,3.446-2.009c1.505,0.396,2.406,1.938,2.01,3.445
					c-0.398,1.505-1.939,2.403-3.444,2.008C44.285,50.464,43.385,48.923,43.779,47.417z"/>
			</g>
			<path fill="#2579CC" d="M61.392,42.489c0.393-1.504,1.936-2.405,3.441-2.007c1.506,0.396,2.403,1.938,2.008,3.439
				c-0.395,1.509-1.937,2.409-3.44,2.012C61.894,45.538,60.994,43.997,61.392,42.489z"/>
			<g>
				<path fill="#2579CC" d="M87.431,31.731c1.344-0.783,3.071-0.33,3.854,1.013c0.789,1.345,0.333,3.07-1.013,3.858
					c-1.343,0.784-3.071,0.331-3.856-1.016C85.632,34.242,86.087,32.517,87.431,31.731z"/>
				<path fill="#2579CC" d="M87.409,41.54c0,1.556-1.263,2.819-2.82,2.819c-1.558-0.001-2.82-1.264-2.82-2.819
					c0-1.559,1.265-2.82,2.82-2.818C86.147,38.719,87.409,39.982,87.409,41.54z"/>
				<path fill="#2579CC" d="M74.546,39.25c1.341-0.786,3.072-0.332,3.853,1.012c0.784,1.346,0.333,3.072-1.012,3.855
					c-1.343,0.788-3.072,0.333-3.857-1.011C72.746,41.76,73.195,40.034,74.546,39.25z"/>
				<circle fill="#2579CC" cx="71.587" cy="34.177" r="2.82"/>
				<path fill="#2579CC" d="M74.731,24.642c1.344-0.784,3.07-0.329,3.855,1.016c0.787,1.344,0.332,3.068-1.014,3.857
					c-1.344,0.784-3.075,0.327-3.855-1.016C72.936,27.154,73.388,25.427,74.731,24.642z"/>
				<path fill="#2579CC" d="M83.051,24.222c1.344-0.784,3.073-0.331,3.857,1.015c0.785,1.346,0.331,3.071-1.016,3.858
					c-1.346,0.783-3.069,0.331-3.854-1.015C81.252,26.735,81.706,25.007,83.051,24.222z"/>
				<path fill="#2579CC" d="M78.911,31.806c1.345-0.784,3.073-0.332,3.857,1.016c0.785,1.343,0.33,3.072-1.016,3.856
					c-1.347,0.784-3.07,0.328-3.854-1.015C77.112,34.318,77.567,32.591,78.911,31.806z"/>
				<path fill="#2579CC" d="M87.431,31.731c1.344-0.783,3.071-0.33,3.854,1.013c0.789,1.345,0.333,3.07-1.013,3.858
					c-1.343,0.784-3.071,0.331-3.856-1.016C85.632,34.242,86.087,32.517,87.431,31.731z"/>
				<path fill="#2579CC" d="M87.409,41.54c0,1.556-1.263,2.819-2.82,2.819c-1.558-0.001-2.82-1.264-2.82-2.819
					c0-1.559,1.265-2.82,2.82-2.818C86.147,38.719,87.409,39.982,87.409,41.54z"/>
				<path fill="#2579CC" d="M74.546,39.25c1.341-0.786,3.072-0.332,3.853,1.012c0.784,1.346,0.333,3.072-1.012,3.855
					c-1.343,0.788-3.072,0.333-3.857-1.011C72.746,41.76,73.195,40.034,74.546,39.25z"/>
				<circle fill="#2579CC" cx="71.587" cy="34.177" r="2.82"/>
				<path fill="#2579CC" d="M74.731,24.642c1.344-0.784,3.07-0.329,3.855,1.016c0.787,1.344,0.332,3.068-1.014,3.857
					c-1.344,0.784-3.075,0.327-3.855-1.016C72.936,27.154,73.388,25.427,74.731,24.642z"/>
				<path fill="#2579CC" d="M83.051,24.222c1.344-0.784,3.073-0.331,3.857,1.015c0.785,1.346,0.331,3.071-1.016,3.858
					c-1.346,0.783-3.069,0.331-3.854-1.015C81.252,26.735,81.706,25.007,83.051,24.222z"/>
				<path fill="#2579CC" d="M78.911,31.806c1.345-0.784,3.073-0.332,3.857,1.016c0.785,1.343,0.33,3.072-1.016,3.856
					c-1.347,0.784-3.07,0.328-3.854-1.015C77.112,34.318,77.567,32.591,78.911,31.806z"/>
			</g>
			<path fill="#2579CC" d="M94.59,40.433c1.341-0.786,3.07-0.331,3.853,1.015c0.786,1.345,0.33,3.07-1.012,3.851
				c-1.346,0.788-3.072,0.334-3.854-1.01C92.79,42.945,93.243,41.218,94.59,40.433z"/>
			<g>
				<path fill="#2579CC" d="M120.465,51.558c1.506,0.396,2.407,1.938,2.01,3.441c-0.393,1.509-1.935,2.406-3.443,2.012
					c-1.504-0.396-2.406-1.938-2.01-3.446C117.419,52.06,118.961,51.164,120.465,51.558z"/>
				<path fill="#2579CC" d="M113.513,58.477c-1.098,1.101-2.886,1.101-3.985-0.001c-1.101-1.101-1.101-2.887-0.002-3.987
					c1.104-1.102,2.888-1.1,3.987,0.001C114.617,55.591,114.616,57.376,113.513,58.477z"/>
				<path fill="#2579CC" d="M106.038,47.763c1.504,0.395,2.407,1.939,2.011,3.442c-0.399,1.505-1.939,2.407-3.442,2.01
					c-1.507-0.393-2.41-1.938-2.014-3.444C102.992,48.265,104.531,47.363,106.038,47.763z"/>
				<circle fill="#2579CC" cx="107.534" cy="42.083" r="2.82"/>
				<path fill="#2579CC" d="M116.499,37.564c1.504,0.396,2.403,1.939,2.007,3.445c-0.393,1.506-1.935,2.403-3.443,2.009
					c-1.503-0.395-2.405-1.942-2.007-3.443C113.453,38.071,114.994,37.171,116.499,37.564z"/>
				<path fill="#2579CC" d="M122.679,43.15c1.507,0.397,2.406,1.939,2.01,3.445c-0.396,1.507-1.938,2.406-3.446,2.011
					c-1.506-0.398-2.404-1.937-2.008-3.443C119.631,43.657,121.173,42.755,122.679,43.15z"/>
				<path fill="#2579CC" d="M114.389,45.585c1.506,0.396,2.408,1.938,2.009,3.445c-0.394,1.505-1.938,2.406-3.444,2.009
					c-1.506-0.396-2.403-1.938-2.009-3.442C111.342,46.091,112.883,45.191,114.389,45.585z"/>
				<path fill="#2579CC" d="M120.465,51.558c1.506,0.396,2.407,1.938,2.01,3.441c-0.393,1.509-1.935,2.406-3.443,2.012
					c-1.504-0.396-2.406-1.938-2.01-3.446C117.419,52.06,118.961,51.164,120.465,51.558z"/>
				<path fill="#2579CC" d="M113.513,58.477c-1.098,1.101-2.886,1.101-3.985-0.001c-1.101-1.101-1.101-2.887-0.002-3.987
					c1.104-1.102,2.888-1.1,3.987,0.001C114.617,55.591,114.616,57.376,113.513,58.477z"/>
				<path fill="#2579CC" d="M106.038,47.763c1.504,0.395,2.407,1.939,2.011,3.442c-0.399,1.505-1.939,2.407-3.442,2.01
					c-1.507-0.393-2.41-1.938-2.014-3.444C102.992,48.265,104.531,47.363,106.038,47.763z"/>
				<circle fill="#2579CC" cx="107.534" cy="42.083" r="2.82"/>
				<path fill="#2579CC" d="M116.499,37.564c1.504,0.396,2.403,1.939,2.007,3.445c-0.393,1.506-1.935,2.403-3.443,2.009
					c-1.503-0.395-2.405-1.942-2.007-3.443C113.453,38.071,114.994,37.171,116.499,37.564z"/>
				<path fill="#2579CC" d="M122.679,43.15c1.507,0.397,2.406,1.939,2.01,3.445c-0.396,1.507-1.938,2.406-3.446,2.011
					c-1.506-0.398-2.404-1.937-2.008-3.443C119.631,43.657,121.173,42.755,122.679,43.15z"/>
				<path fill="#2579CC" d="M114.389,45.585c1.506,0.396,2.408,1.938,2.009,3.445c-0.394,1.505-1.938,2.406-3.444,2.009
					c-1.506-0.396-2.403-1.938-2.009-3.442C111.342,46.091,112.883,45.191,114.389,45.585z"/>
			</g>
		</g>
	</g>
</g>
<g>
</g>
<g>
</g>
<g>
</g>
<g>
</g>
<g>
</g>
<g>
</g>
<g>
</g>
<g>
</g>
<g>
</g>
<g>
</g>
<g>
</g>
<g>
</g>
<g>
</g>
<g>
</g>
<g>
</g>
</svg>
