<?xml version="1.0" encoding="utf-8"?>
<!-- Generator: Adobe Illustrator 18.1.0, SVG Export Plug-In . SVG Version: 6.00 Build 0)  -->
<svg version="1.1" id="Layer_1" xmlns="http://www.w3.org/2000/svg" xmlns:xlink="http://www.w3.org/1999/xlink" x="0px" y="0px"
	 viewBox="0 0 611.111 115.216" enable-background="new 0 0 611.111 115.216" xml:space="preserve">
<g>
	<path fill="#54A2F7" d="M160.235,47.475c-2.348-2.861-5.896-4.579-9.503-4.579c-8.071,0-12.709,7.442-12.709,14.884
		c0,7.272,4.809,14.541,12.652,14.541c3.605,0,7.212-1.888,9.56-4.579V77.76c-3.149,1.487-6.297,2.576-9.79,2.576
		c-12.136,0-21.124-10.477-21.124-22.384c0-12.252,8.644-23.072,21.297-23.072c3.377,0,6.698,0.916,9.617,2.52V47.475z"/>
	<path fill="#54A2F7" d="M177.061,79.191h-8.414V36.027h8.414V79.191z"/>
	<path fill="#54A2F7" d="M201.562,65.107h0.114l9.617-29.08h9.046l-16.773,44.309h-4.923l-16.488-44.309h9.045L201.562,65.107z"/>
	<path fill="#54A2F7" d="M233.901,79.191h-8.414V36.027h8.414V79.191z"/>
	<path fill="#54A2F7" d="M271.74,47.475c-2.346-2.861-5.896-4.579-9.503-4.579c-8.071,0-12.709,7.442-12.709,14.884
		c0,7.272,4.81,14.541,12.653,14.541c3.605,0,7.212-1.888,9.559-4.579V77.76c-3.147,1.487-6.297,2.576-9.788,2.576
		c-12.136,0-21.124-10.477-21.124-22.384c0-12.252,8.644-23.072,21.295-23.072c3.378,0,6.698,0.916,9.617,2.52V47.475z"/>
	<path fill="#3699DD" d="M328.409,47.475c-2.347-2.861-5.896-4.579-9.503-4.579c-8.073,0-12.709,7.442-12.709,14.884
		c0,7.272,4.809,14.541,12.652,14.541c3.607,0,7.214-1.888,9.56-4.579V77.76c-3.149,1.487-6.297,2.576-9.79,2.576
		c-12.136,0-21.124-10.477-21.124-22.384c0-12.252,8.644-23.072,21.296-23.072c3.377,0,6.697,0.916,9.617,2.52V47.475z"/>
	<path fill="#3699DD" d="M356.112,80.336c-13.167,0-21.354-10.076-21.354-22.785c0-12.823,8.472-22.671,21.354-22.671
		c12.88,0,21.354,9.848,21.354,22.671C377.465,70.26,369.279,80.336,356.112,80.336z M356.112,43.183
		c-7.957,0-12.651,7.041-12.651,14.026c0,6.64,3.32,14.825,12.651,14.825c9.332,0,12.652-8.186,12.652-14.825
		C368.763,50.223,364.069,43.183,356.112,43.183z"/>
	<path fill="#3699DD" d="M416.674,52.399h-0.114l-9.788,27.364h-2.92l-9.446-27.364h-0.114l-3.836,26.793h-8.472l7.271-44.311h5.953
		l10.649,28.453l10.189-28.453h6.069l6.468,44.311h-8.472L416.674,52.399z"/>
	<path fill="#3699DD" d="M467.389,52.399h-0.114l-9.789,27.364h-2.92l-9.446-27.364h-0.114l-3.836,26.793h-8.472l7.271-44.311h5.953
		l10.649,28.453l10.19-28.453h6.069l6.469,44.311h-8.472L467.389,52.399z"/>
	<path fill="#3699DD" d="M505.168,80.336c-13.167,0-21.354-10.076-21.354-22.785c0-12.823,8.472-22.671,21.354-22.671
		c12.88,0,21.354,9.848,21.354,22.671C526.521,70.26,518.334,80.336,505.168,80.336z M505.168,43.183
		c-7.957,0-12.652,7.041-12.652,14.026c0,6.64,3.32,14.825,12.652,14.825c9.332,0,12.652-8.186,12.652-14.825
		C517.819,50.223,513.125,43.183,505.168,43.183z"/>
	<path fill="#3699DD" d="M533.499,34.88h6.068l22.728,30.171h0.114V36.027h8.415v44.022h-6.068l-22.728-30.169h-0.114v29.311h-8.415
		V34.88z"/>
	<path fill="#3699DD" d="M600.129,45.53c-1.603-2.175-3.664-3.551-6.47-3.551c-2.69,0-5.267,2.061-5.267,4.866
		c0,7.272,17.117,4.236,17.117,18.721c0,8.643-5.381,14.77-14.197,14.77c-5.953,0-10.305-3.434-13.281-8.417l5.438-5.323
		c1.145,3.32,4.179,6.297,7.786,6.297c3.434,0,5.552-2.921,5.552-6.241c0-4.465-4.121-5.724-7.499-7.041
		c-5.554-2.289-9.617-5.094-9.617-11.792c0-7.158,5.324-12.94,12.594-12.94c3.835,0,9.159,1.891,11.792,4.81L600.129,45.53z"/>
</g>
<g>
	<g>
		<path fill="#54A2F7" d="M57.619,105.452c0.181,0,0.362-0.001,0.542-0.003l0,0l0.008,0.608c-0.184,0.001-0.366,0.003-0.55,0.003
			l0,0V105.452L57.619,105.452z M56.457,106.049l0.013-0.609c0.184,0.004,0.363,0.009,0.545,0.01l0,0l-0.008,0.608
			C56.823,106.055,56.639,106.052,56.457,106.049L56.457,106.049z M58.764,105.439c0.182-0.006,0.362-0.011,0.543-0.017l0,0l0,0
			l0.021,0.606c-0.183,0.006-0.365,0.013-0.548,0.017l0,0L58.764,105.439L58.764,105.439z M55.296,106.008l0.027-0.607
			c0.182,0.008,0.363,0.016,0.544,0.022l0,0l-0.021,0.607C55.661,106.023,55.478,106.016,55.296,106.008L55.296,106.008z
			 M59.911,105.397c0.18-0.01,0.361-0.02,0.541-0.03l0,0l0,0l0.037,0.608c-0.184,0.01-0.366,0.02-0.55,0.029l0,0L59.911,105.397
			L59.911,105.397z M54.135,105.94l0.041-0.606c0.183,0.013,0.363,0.023,0.543,0.035l0,0l-0.035,0.606
			C54.502,105.965,54.319,105.953,54.135,105.94L54.135,105.94z M61.055,105.328c0.182-0.013,0.361-0.028,0.542-0.042l0,0
			l0.05,0.606c-0.183,0.014-0.365,0.029-0.549,0.042l0,0L61.055,105.328L61.055,105.328z M52.977,105.846l0.057-0.606
			c0.181,0.016,0.361,0.033,0.541,0.049l0,0l-0.051,0.604C53.343,105.878,53.161,105.863,52.977,105.846L52.977,105.846z
			 M62.199,105.232c0.181-0.018,0.36-0.037,0.54-0.055l0,0l0.066,0.605c-0.184,0.019-0.367,0.038-0.549,0.056l0,0L62.199,105.232
			L62.199,105.232z M51.821,105.721l0.072-0.603c0.18,0.02,0.359,0.041,0.539,0.061l0,0l-0.062,0.604
			C52.186,105.763,52.005,105.744,51.821,105.721L51.821,105.721z M63.339,105.109c0.179-0.021,0.359-0.044,0.538-0.067l0,0v-0.002
			l0.08,0.604c-0.182,0.023-0.363,0.046-0.545,0.067l0,0L63.339,105.109L63.339,105.109z M50.67,105.572l0.086-0.602
			c0.179,0.025,0.358,0.051,0.538,0.073l0,0l-0.078,0.604C51.033,105.623,50.852,105.597,50.67,105.572L50.67,105.572z
			 M64.476,104.959c0.181-0.027,0.358-0.053,0.538-0.081l0,0v0.002l0.094,0.6c-0.182,0.028-0.362,0.056-0.545,0.08l0,0
			L64.476,104.959L64.476,104.959z M49.521,105.392l0.1-0.598c0.178,0.029,0.358,0.058,0.537,0.086l0,0l-0.094,0.602
			C49.883,105.454,49.703,105.423,49.521,105.392L49.521,105.392z M65.61,104.781c0.179-0.03,0.357-0.06,0.535-0.094l0,0v0.002
			l0.108,0.597c-0.181,0.032-0.36,0.064-0.542,0.095l0,0L65.61,104.781L65.61,104.781z M48.378,105.188l0.115-0.597
			c0.178,0.034,0.355,0.066,0.534,0.101l0,0l-0.108,0.598C48.739,105.256,48.557,105.222,48.378,105.188L48.378,105.188z
			 M66.739,104.576c0.178-0.035,0.355-0.07,0.532-0.105l0,0v-0.002l0.123,0.597c-0.179,0.037-0.36,0.072-0.539,0.109l0,0
			L66.739,104.576L66.739,104.576z M47.24,104.954l0.129-0.592c0.177,0.038,0.354,0.074,0.531,0.111l0,0l-0.122,0.595
			C47.598,105.032,47.419,104.994,47.24,104.954L47.24,104.954z M67.862,104.345c0.179-0.039,0.354-0.079,0.531-0.12l0,0
			l0.137,0.593c-0.18,0.042-0.357,0.082-0.537,0.121l0,0L67.862,104.345L67.862,104.345z M46.106,104.695l0.145-0.592
			c0.176,0.043,0.352,0.084,0.529,0.126l0,0l-0.137,0.593C46.463,104.779,46.286,104.738,46.106,104.695L46.106,104.695z
			 M68.981,104.086c0.176-0.043,0.352-0.088,0.525-0.133l0,0l0.152,0.59c-0.178,0.045-0.355,0.09-0.535,0.134l0,0L68.981,104.086
			L68.981,104.086z M44.981,104.405l0.158-0.584c0.174,0.046,0.349,0.092,0.525,0.138l0,0l-0.151,0.588
			C45.336,104.5,45.157,104.455,44.981,104.405L44.981,104.405z M70.092,103.802c0.174-0.049,0.349-0.097,0.522-0.146l0,0
			l0.167,0.584c-0.178,0.051-0.354,0.099-0.532,0.146l0,0L70.092,103.802L70.092,103.802z M43.863,104.093l0.171-0.584
			c0.174,0.051,0.348,0.102,0.523,0.15l0,0l-0.166,0.586C44.215,104.194,44.039,104.143,43.863,104.093L43.863,104.093z
			 M68.392,104.223L68.392,104.223L68.392,104.223L68.392,104.223L68.392,104.223L68.392,104.223z M71.194,103.487
			c0.176-0.051,0.348-0.104,0.521-0.156l0,0l0.18,0.578c-0.175,0.055-0.351,0.108-0.527,0.161l0,0L71.194,103.487L71.194,103.487z
			 M42.751,103.748l0.185-0.576c0.173,0.055,0.347,0.109,0.521,0.163l0,0l-0.18,0.581C43.101,103.861,42.924,103.805,42.751,103.748
			L42.751,103.748z M72.292,103.147c0.173-0.057,0.344-0.111,0.516-0.169l0,0l0.193,0.576c-0.174,0.059-0.349,0.116-0.523,0.171l0,0
			L72.292,103.147L72.292,103.147z M70.614,103.654l0.002,0.001C70.615,103.655,70.615,103.655,70.614,103.654L70.614,103.654
			L70.614,103.654L70.614,103.654z M41.643,103.379l0.199-0.574c0.172,0.061,0.345,0.118,0.517,0.178l0,0l-0.192,0.575
			C41.992,103.5,41.817,103.439,41.643,103.379L41.643,103.379z M73.379,102.782c0.171-0.061,0.343-0.121,0.513-0.182l0,0
			l0.207,0.571c-0.174,0.062-0.346,0.124-0.52,0.183l0,0L73.379,102.782L73.379,102.782z M43.456,103.335L43.456,103.335
			L43.456,103.335L43.456,103.335L43.456,103.335z M40.546,102.982l0.215-0.57c0.17,0.066,0.34,0.127,0.511,0.19l0,0l0,0
			l-0.207,0.571C40.891,103.11,40.717,103.047,40.546,102.982L40.546,102.982z M74.457,102.389c0.17-0.063,0.339-0.128,0.507-0.194
			l0,0l0.221,0.567c-0.17,0.067-0.342,0.132-0.514,0.197l0,0L74.457,102.389L74.457,102.389z M39.46,102.559l0.229-0.564
			c0.168,0.07,0.336,0.137,0.505,0.201l0,0l-0.221,0.566C39.801,102.696,39.63,102.628,39.46,102.559L39.46,102.559z
			 M75.526,101.972c0.167-0.068,0.334-0.137,0.498-0.205l0,0h0.003l0.233,0.561c-0.168,0.069-0.338,0.141-0.506,0.207l0,0
			L75.526,101.972L75.526,101.972z M38.384,102.109l0.24-0.558c0.167,0.072,0.335,0.145,0.501,0.213l0,0v0.003l-0.232,0.559
			C38.721,102.255,38.553,102.182,38.384,102.109L38.384,102.109z M76.579,101.531c0.166-0.072,0.331-0.145,0.497-0.218l0,0
			l0.247,0.555c-0.167,0.076-0.335,0.148-0.502,0.22l0,0L76.579,101.531L76.579,101.531z M37.319,101.636l0.255-0.552
			c0.165,0.076,0.331,0.149,0.495,0.226l0,0l-0.247,0.555C37.655,101.788,37.487,101.712,37.319,101.636L37.319,101.636z
			 M77.622,101.064c0.164-0.076,0.328-0.152,0.49-0.23l0,0l0.262,0.549c-0.164,0.077-0.331,0.156-0.496,0.234l0,0L77.622,101.064
			L77.622,101.064z M36.268,101.136l0.267-0.547c0.163,0.08,0.327,0.159,0.491,0.238l0,0l-0.262,0.549
			C36.598,101.297,36.433,101.215,36.268,101.136L36.268,101.136z M78.655,100.571c0.162-0.078,0.322-0.159,0.484-0.241l0,0
			l0.274,0.544c-0.163,0.081-0.327,0.163-0.491,0.243l0,0L78.655,100.571L78.655,100.571z M35.228,100.609l0.281-0.538
			c0.16,0.083,0.321,0.166,0.484,0.248l0,0h-0.001l-0.273,0.543C35.555,100.777,35.391,100.693,35.228,100.609L35.228,100.609z
			 M79.674,100.055c0.16-0.083,0.32-0.168,0.479-0.254l0,0l0.287,0.536c-0.162,0.087-0.322,0.172-0.485,0.257l0,0L79.674,100.055
			L79.674,100.055z M34.202,100.059l0.293-0.533c0.159,0.088,0.319,0.175,0.479,0.26l0,0h0.001l-0.288,0.537
			C34.524,100.236,34.362,100.148,34.202,100.059L34.202,100.059z M80.683,99.513c0.156-0.087,0.314-0.175,0.472-0.264l0,0
			l0.3,0.527c-0.159,0.092-0.317,0.181-0.478,0.27l0,0L80.683,99.513L80.683,99.513z M33.19,99.484l0.306-0.525
			c0.155,0.092,0.313,0.181,0.472,0.272l0,0l-0.301,0.529C33.506,99.669,33.348,99.577,33.19,99.484L33.19,99.484z M81.676,98.949
			c0.157-0.092,0.312-0.183,0.469-0.276l0,0l0.311,0.521c-0.156,0.095-0.314,0.189-0.471,0.279l0,0L81.676,98.949L81.676,98.949z
			 M81.155,99.25h0.002C81.156,99.25,81.156,99.25,81.155,99.25L81.155,99.25L81.155,99.25L81.155,99.25z M32.19,98.886l0.32-0.518
			c0.154,0.095,0.309,0.189,0.466,0.284l0,0h-0.001l-0.312,0.521C32.505,99.078,32.346,98.982,32.19,98.886L32.19,98.886z
			 M82.659,98.36c0.153-0.095,0.307-0.19,0.459-0.287l0,0v-0.001l0.326,0.515c-0.156,0.098-0.311,0.194-0.466,0.291l0,0
			L82.659,98.36L82.659,98.36z M31.208,98.263l0.332-0.51c0.151,0.1,0.304,0.198,0.458,0.295l0,0l-0.325,0.513
			C31.516,98.462,31.362,98.362,31.208,98.263L31.208,98.263z M83.626,97.748c0.15-0.099,0.303-0.199,0.453-0.3l0,0l0.337,0.506
			c-0.151,0.103-0.304,0.203-0.458,0.303l0,0L83.626,97.748L83.626,97.748z M30.241,97.618l0.342-0.502
			c0.15,0.102,0.301,0.204,0.451,0.305l0,0l-0.338,0.505C30.544,97.824,30.391,97.721,30.241,97.618L30.241,97.618z M84.579,97.111
			c0.148-0.102,0.297-0.204,0.443-0.309l0,0l0.352,0.496c-0.151,0.106-0.301,0.211-0.453,0.313l0,0L84.579,97.111L84.579,97.111z
			 M29.289,96.949l0.354-0.493c0.149,0.105,0.295,0.21,0.443,0.315l0,0l-0.35,0.497C29.588,97.162,29.438,97.055,29.289,96.949
			L29.289,96.949z M85.516,96.453c0.146-0.106,0.292-0.213,0.438-0.319l0,0l0.361,0.488c-0.148,0.11-0.297,0.217-0.445,0.324l0,0
			L85.516,96.453L85.516,96.453z M28.354,96.257l0.365-0.483c0.145,0.108,0.29,0.218,0.436,0.325l0,0l-0.361,0.489
			C28.646,96.478,28.5,96.368,28.354,96.257L28.354,96.257z M86.436,95.773c0.145-0.11,0.287-0.221,0.43-0.332l0,0l0.002,0.002
			l0.373,0.479c-0.146,0.112-0.291,0.224-0.437,0.334l0,0L86.436,95.773L86.436,95.773z M27.433,95.545l0.38-0.475
			c0.141,0.111,0.283,0.225,0.426,0.334l0,0l-0.371,0.481C27.722,95.773,27.579,95.658,27.433,95.545L27.433,95.545z M87.342,95.07
			c0.142-0.112,0.282-0.226,0.422-0.341l0,0l0.385,0.471c-0.143,0.116-0.285,0.231-0.429,0.345l0,0L87.342,95.07L87.342,95.07z
			 M28.239,95.404L28.239,95.404L28.239,95.404L28.239,95.404L28.239,95.404z M26.532,94.809l0.391-0.467
			c0.141,0.117,0.279,0.232,0.42,0.349l0,0l-0.384,0.468C26.815,95.045,26.674,94.928,26.532,94.809L26.532,94.809z M88.229,94.346
			c0.141-0.116,0.277-0.233,0.416-0.352l0,0l0.395,0.463c-0.139,0.12-0.278,0.236-0.42,0.355l0,0L88.229,94.346L88.229,94.346z
			 M25.65,94.055l0.401-0.458c0.136,0.12,0.273,0.239,0.41,0.356l0,0l-0.396,0.461C25.927,94.295,25.788,94.175,25.65,94.055
			L25.65,94.055z M89.102,93.599c0.137-0.119,0.271-0.238,0.406-0.358l0,0l0.404,0.451c-0.136,0.123-0.273,0.244-0.41,0.365l0,0
			L89.102,93.599L89.102,93.599z M24.786,93.277l0.412-0.448c0.133,0.124,0.266,0.245,0.4,0.366l0,0l-0.406,0.453
			C25.056,93.525,24.921,93.401,24.786,93.277L24.786,93.277z M89.955,92.833c0.134-0.122,0.267-0.245,0.397-0.368l0,0l0.416,0.441
			c-0.133,0.126-0.267,0.252-0.402,0.376l0,0L89.955,92.833L89.955,92.833z M23.939,92.48l0.423-0.438
			c0.131,0.127,0.262,0.252,0.393,0.376l0,0h0.002l-0.418,0.442C24.204,92.734,24.072,92.607,23.939,92.48L23.939,92.48z
			 M90.79,92.048c0.13-0.124,0.26-0.253,0.389-0.38l0,0v0.002l0.427,0.43c-0.131,0.13-0.262,0.26-0.394,0.386l0,0L90.79,92.048
			L90.79,92.048z M23.114,91.665l0.432-0.427c0.128,0.128,0.255,0.257,0.385,0.385l0,0l-0.428,0.432
			C23.372,91.925,23.243,91.795,23.114,91.665L23.114,91.665z M91.605,91.241c0.128-0.129,0.254-0.257,0.38-0.389l0,0l0.438,0.424
			c-0.129,0.131-0.256,0.262-0.385,0.394l0,0L91.605,91.241L91.605,91.241z M22.307,90.829l0.443-0.418
			c0.123,0.133,0.247,0.264,0.373,0.394l0,0v0.002l-0.438,0.422C22.559,91.096,22.432,90.963,22.307,90.829L22.307,90.829z
			 M92.403,90.416c0.124-0.132,0.248-0.265,0.369-0.396l0,0l0.449,0.41c-0.126,0.136-0.25,0.271-0.376,0.403l0,0L92.403,90.416
			L92.403,90.416z M21.52,89.975l0.453-0.408c0.121,0.136,0.242,0.27,0.365,0.404l0,0l-0.447,0.41
			C21.766,90.246,21.643,90.111,21.52,89.975L21.52,89.975z M93.178,89.572c0.121-0.136,0.243-0.27,0.363-0.406l0,0l0.455,0.4
			c-0.121,0.139-0.242,0.275-0.365,0.412l0,0L93.178,89.572L93.178,89.572z M20.756,89.1l0.461-0.395
			c0.117,0.138,0.236,0.273,0.355,0.41l0,0v0.002l-0.457,0.398C20.994,89.38,20.874,89.242,20.756,89.1L20.756,89.1z M93.936,88.709
			c0.117-0.137,0.234-0.276,0.351-0.415l0,0v0.002l0.467,0.388c-0.118,0.141-0.236,0.282-0.356,0.42l0,0L93.936,88.709
			L93.936,88.709z M20.011,88.211l0.471-0.384c0.114,0.14,0.229,0.279,0.345,0.419l0,0l-0.465,0.388
			C20.243,88.494,20.128,88.353,20.011,88.211L20.011,88.211z M94.672,87.828c0.114-0.141,0.227-0.281,0.342-0.423l0,0l0.475,0.38
			c-0.113,0.143-0.229,0.284-0.346,0.427l0,0L94.672,87.828L94.672,87.828z M19.289,87.303l0.479-0.373
			c0.112,0.143,0.224,0.287,0.337,0.428l0,0l-0.477,0.377C19.514,87.593,19.401,87.449,19.289,87.303L19.289,87.303z M95.387,86.93
			c0.11-0.143,0.221-0.286,0.331-0.432l0,0l0.483,0.368c-0.11,0.146-0.222,0.292-0.336,0.437l0,0L95.387,86.93L95.387,86.93z
			 M18.588,86.379l0.488-0.363c0.106,0.147,0.216,0.291,0.325,0.437l0,0l-0.484,0.366C18.806,86.672,18.697,86.526,18.588,86.379
			L18.588,86.379z M95.717,86.498L95.717,86.498L95.717,86.498L95.717,86.498L95.717,86.498L95.717,86.498z M96.081,86.014
			c0.107-0.146,0.215-0.294,0.32-0.438l0,0v-0.002l0.493,0.357c-0.108,0.149-0.216,0.296-0.324,0.444l0,0L96.081,86.014
			L96.081,86.014z M17.91,85.437l0.497-0.35c0.104,0.146,0.209,0.295,0.315,0.442l0,0h-0.003l-0.492,0.354
			C18.122,85.735,18.014,85.587,17.91,85.437L17.91,85.437z M96.753,85.084c0.104-0.15,0.207-0.298,0.311-0.447l0,0l0.5,0.343
			c-0.104,0.152-0.209,0.302-0.313,0.452l0,0L96.753,85.084L96.753,85.084z M17.254,84.481l0.505-0.339
			c0.101,0.149,0.203,0.301,0.305,0.449l0,0l-0.501,0.342C17.458,84.784,17.355,84.631,17.254,84.481L17.254,84.481z M97.401,84.135
			c0.102-0.15,0.201-0.301,0.3-0.455l0,0l0.509,0.332c-0.1,0.155-0.2,0.309-0.303,0.46l0,0L97.401,84.135L97.401,84.135z
			 M16.623,83.508l0.513-0.324c0.097,0.152,0.194,0.305,0.293,0.455l0,0l-0.51,0.332C16.819,83.816,16.719,83.663,16.623,83.508
			L16.623,83.508z M98.028,83.172c0.098-0.152,0.193-0.307,0.289-0.462l0,0l0.516,0.319c-0.096,0.155-0.193,0.313-0.293,0.469l0,0
			L98.028,83.172L98.028,83.172z M16.014,82.52l0.52-0.312c0.094,0.155,0.188,0.309,0.283,0.463l0,0l-0.52,0.318
			C16.202,82.835,16.107,82.679,16.014,82.52L16.014,82.52z M98.631,82.193c0.093-0.155,0.186-0.312,0.276-0.469l0,0v-0.001
			l0.524,0.309c-0.092,0.158-0.186,0.317-0.279,0.475l0,0L98.631,82.193L98.631,82.193z M15.428,81.521l0.527-0.3
			c0.09,0.156,0.181,0.312,0.272,0.468l0,0l-0.525,0.308C15.61,81.839,15.518,81.68,15.428,81.521L15.428,81.521z M99.211,81.2
			c0.09-0.158,0.179-0.317,0.267-0.476l0,0l0.532,0.295c-0.089,0.161-0.179,0.322-0.27,0.481l0,0L99.211,81.2L99.211,81.2z
			 M14.868,80.508l0.535-0.289c0.086,0.16,0.172,0.318,0.259,0.477l0,0v0.001l-0.532,0.292
			C15.042,80.828,14.954,80.669,14.868,80.508L14.868,80.508z M99.766,80.194c0.085-0.159,0.172-0.321,0.254-0.48l0,0l0.539,0.28
			c-0.084,0.164-0.17,0.326-0.258,0.486l0,0L99.766,80.194L99.766,80.194z M14.332,79.479l0.542-0.273
			c0.081,0.16,0.164,0.321,0.247,0.48l0,0l-0.538,0.281C14.499,79.806,14.414,79.644,14.332,79.479L14.332,79.479z M15.121,79.686
			L15.121,79.686l0.001,0.002C15.122,79.688,15.122,79.686,15.121,79.686L15.121,79.686z M100.297,79.175
			c0.082-0.162,0.162-0.326,0.243-0.486l0,0l0.545,0.267c-0.08,0.165-0.162,0.33-0.246,0.495l0,0L100.297,79.175L100.297,79.175z
			 M13.821,78.441l0.549-0.263c0.076,0.164,0.156,0.327,0.236,0.488l0,0l-0.547,0.268C13.978,78.771,13.899,78.606,13.821,78.441
			L13.821,78.441z M100.804,78.142c0.078-0.165,0.155-0.329,0.23-0.494l0,0l0.554,0.255c-0.079,0.167-0.157,0.333-0.235,0.5l0,0
			L100.804,78.142L100.804,78.142z M13.335,77.391l0.555-0.251c0.074,0.166,0.149,0.33,0.224,0.494l0,0l-0.551,0.255
			C13.485,77.723,13.409,77.558,13.335,77.391L13.335,77.391z M101.287,77.098c0.074-0.168,0.146-0.333,0.22-0.501l0,0v0.001
			l0.558,0.241c-0.073,0.17-0.148,0.336-0.224,0.507l0,0L101.287,77.098L101.287,77.098z M12.875,76.328l0.559-0.234
			c0.072,0.165,0.142,0.333,0.213,0.498l0,0l0,0l-0.559,0.241C13.016,76.665,12.945,76.497,12.875,76.328L12.875,76.328z
			 M101.742,76.042c0.071-0.17,0.14-0.337,0.208-0.505l0,0l0.564,0.229c-0.068,0.169-0.141,0.34-0.211,0.509l0,0L101.742,76.042
			L101.742,76.042z M12.438,75.253l0.568-0.22c0.065,0.168,0.131,0.336,0.199,0.505l0,0l-0.562,0.228
			C12.575,75.596,12.505,75.426,12.438,75.253L12.438,75.253z M102.173,74.973c0.065-0.17,0.132-0.34,0.196-0.511l0,0l0.566,0.215
			c-0.064,0.174-0.129,0.346-0.195,0.517l0,0L102.173,74.973L102.173,74.973z M12.029,74.167l0.571-0.209
			c0.062,0.171,0.125,0.342,0.188,0.511l0,0l-0.568,0.215C12.155,74.512,12.092,74.341,12.029,74.167L12.029,74.167z
			 M102.579,73.896c0.062-0.172,0.122-0.343,0.183-0.515l0,0l0.574,0.2c-0.06,0.173-0.122,0.348-0.185,0.521l0,0L102.579,73.896
			L102.579,73.896z M11.645,73.069l0.575-0.192c0.058,0.17,0.118,0.342,0.177,0.513l0,0v0.002l-0.574,0.2
			C11.762,73.418,11.704,73.243,11.645,73.069L11.645,73.069z M102.957,72.808c0.058-0.174,0.115-0.347,0.171-0.519l0,0v-0.002
			l0.58,0.187c-0.058,0.176-0.116,0.352-0.174,0.527l0,0L102.957,72.808L102.957,72.808z M11.288,71.965l0.58-0.18
			c0.053,0.173,0.109,0.347,0.164,0.518l0,0v0.001l-0.578,0.185C11.397,72.315,11.342,72.14,11.288,71.965L11.288,71.965z
			 M103.31,71.71c0.053-0.172,0.104-0.346,0.157-0.52l0,0v-0.001l0.582,0.174c-0.052,0.176-0.104,0.351-0.158,0.525l0,0
			L103.31,71.71L103.31,71.71z M10.958,70.85l0.584-0.166c0.049,0.175,0.1,0.349,0.151,0.523l0,0l-0.583,0.171
			C11.058,71.203,11.007,71.027,10.958,70.85L10.958,70.85z M103.634,70.609c0.05-0.173,0.098-0.348,0.144-0.523l0,0l0.588,0.158
			c-0.049,0.178-0.097,0.354-0.147,0.53l0,0L103.634,70.609L103.634,70.609z M10.655,69.729l0.588-0.153
			c0.045,0.175,0.091,0.351,0.139,0.525l0,0l-0.587,0.16C10.747,70.084,10.7,69.906,10.655,69.729L10.655,69.729z M103.932,69.502
			c0.045-0.175,0.088-0.351,0.131-0.527l0,0l0.592,0.145c-0.043,0.179-0.089,0.355-0.135,0.534l0,0L103.932,69.502L103.932,69.502z
			 M10.379,68.6l0.592-0.14c0.04,0.18,0.083,0.354,0.125,0.531l0,0l-0.59,0.144C10.462,68.956,10.419,68.778,10.379,68.6
			L10.379,68.6z M104.202,68.387c0.042-0.177,0.082-0.353,0.121-0.53l0,0l0.592,0.13c-0.038,0.181-0.078,0.358-0.119,0.537l0,0
			L104.202,68.387L104.202,68.387z M10.13,67.466l0.594-0.124c0.037,0.179,0.075,0.355,0.114,0.533l0,0l-0.595,0.128
			C10.204,67.825,10.167,67.644,10.13,67.466L10.13,67.466z M104.447,67.265c0.036-0.178,0.071-0.355,0.106-0.532l0,0l0.597,0.115
			c-0.035,0.18-0.071,0.36-0.108,0.538l0,0L104.447,67.265L104.447,67.265z M9.907,66.324l0.599-0.11
			c0.033,0.18,0.066,0.357,0.1,0.536l0,0l-0.597,0.116C9.974,66.685,9.94,66.505,9.907,66.324L9.907,66.324z M104.663,66.139
			c0.033-0.178,0.064-0.357,0.096-0.535l0,0l0.598,0.1c-0.03,0.182-0.063,0.362-0.094,0.543l0,0L104.663,66.139L104.663,66.139z
			 M9.713,65.179l0.6-0.095c0.028,0.18,0.057,0.358,0.088,0.536l0,0v0.002l-0.6,0.1C9.77,65.54,9.743,65.361,9.713,65.179
			L9.713,65.179z M104.756,65.604h0.002l0,0l0,0H104.756L104.756,65.604z M104.854,65.007c0.027-0.178,0.054-0.356,0.079-0.537l0,0
			h0.001l0.602,0.087c-0.025,0.183-0.055,0.364-0.082,0.545l0,0L104.854,65.007L104.854,65.007z M9.547,64.029l0.603-0.08
			c0.025,0.181,0.051,0.359,0.075,0.538l0,0l-0.602,0.088C9.597,64.391,9.572,64.211,9.547,64.029L9.547,64.029z M105.016,63.871
			c0.022-0.178,0.045-0.358,0.066-0.539l0,0v-0.001l0.604,0.073c-0.021,0.182-0.045,0.365-0.067,0.548l0,0L105.016,63.871
			L105.016,63.871z M9.409,62.877l0.603-0.066c0.019,0.18,0.041,0.359,0.062,0.537l0,0l-0.603,0.075
			C9.45,63.239,9.428,63.057,9.409,62.877L9.409,62.877z M105.151,62.731c0.02-0.181,0.037-0.358,0.055-0.54l0,0l0,0l0.604,0.058
			c-0.016,0.183-0.034,0.365-0.053,0.548l0,0L105.151,62.731L105.151,62.731z M9.297,61.719l0.606-0.051
			c0.016,0.181,0.031,0.361,0.049,0.54l0,0l-0.604,0.058C9.33,62.084,9.313,61.902,9.297,61.719L9.297,61.719z M105.258,61.591
			c0.016-0.181,0.029-0.361,0.041-0.544l0,0l0.607,0.043c-0.014,0.185-0.027,0.366-0.043,0.55l0,0L105.258,61.591L105.258,61.591z
			 M9.213,60.56l0.608-0.036c0.01,0.181,0.022,0.36,0.035,0.541l0,0l0.002,0.002l-0.607,0.042
			C9.236,60.926,9.225,60.742,9.213,60.56L9.213,60.56z M105.339,60.445c0.011-0.181,0.021-0.361,0.028-0.543l0,0l0.607,0.028
			c-0.008,0.183-0.018,0.368-0.029,0.55l0,0L105.339,60.445L105.339,60.445z M9.158,59.399l0.606-0.022
			c0.008,0.181,0.016,0.363,0.024,0.543l0,0L9.18,59.95C9.172,59.766,9.165,59.583,9.158,59.399L9.158,59.399z M105.393,59.298
			c0.006-0.179,0.012-0.36,0.016-0.543l0,0l0.607,0.015c-0.004,0.184-0.01,0.368-0.016,0.55l0,0L105.393,59.298L105.393,59.298z
			 M9.13,58.24l0.607-0.007c0.002,0.181,0.006,0.361,0.01,0.542l0,0L9.139,58.79C9.135,58.607,9.131,58.425,9.13,58.24L9.13,58.24z
			 M105.419,58.151c0.002-0.181,0.002-0.361,0.002-0.543l0,0c0-0.014,0-0.026,0-0.041l0,0h0.609c0,0.013,0,0.027,0,0.041l0,0
			c0,0.184-0.002,0.365-0.002,0.552l0,0L105.419,58.151L105.419,58.151z M9.126,57.608c0-0.177,0.001-0.354,0.002-0.529l0,0
			l0.608,0.008c-0.001,0.172-0.002,0.347-0.002,0.521l0,0H9.126L9.126,57.608z M105.407,56.421l0.609-0.015
			c0.004,0.184,0.008,0.367,0.01,0.549l0,0l-0.608,0.009C105.416,56.783,105.413,56.602,105.407,56.421L105.407,56.421z
			 M9.139,56.467c0.004-0.183,0.01-0.366,0.016-0.55l0,0l0.607,0.022c-0.006,0.18-0.012,0.361-0.017,0.542l0,0L9.139,56.467
			L9.139,56.467z M105.366,55.276l0.607-0.029c0.008,0.184,0.018,0.365,0.023,0.55l0,0l-0.606,0.021
			C105.381,55.638,105.376,55.456,105.366,55.276L105.366,55.276z M9.18,55.306c0.007-0.184,0.018-0.367,0.028-0.549l0,0
			l0.606,0.033c-0.011,0.183-0.02,0.363-0.028,0.544l0,0L9.18,55.306L9.18,55.306z M105.297,54.131l0.606-0.043
			c0.014,0.182,0.025,0.365,0.037,0.549l0,0l-0.606,0.036C105.323,54.492,105.31,54.311,105.297,54.131L105.297,54.131z
			 M9.249,54.146c0.012-0.183,0.025-0.365,0.04-0.549l0,0l0.606,0.049c-0.016,0.182-0.029,0.36-0.042,0.543l0,0L9.249,54.146
			L9.249,54.146z M105.297,54.13C105.297,54.13,105.297,54.13,105.297,54.13L105.297,54.13L105.297,54.13L105.297,54.13
			L105.297,54.13z M105.202,52.987l0.604-0.058c0.018,0.182,0.034,0.363,0.05,0.549l0,0l-0.605,0.051
			C105.235,53.346,105.219,53.168,105.202,52.987L105.202,52.987z M9.342,52.988c0.017-0.183,0.037-0.366,0.056-0.547l0,0
			l0.604,0.064c-0.019,0.179-0.038,0.359-0.055,0.54l0,0L9.342,52.988L9.342,52.988z M105.079,51.846L105.079,51.846l0.604-0.071
			c0.021,0.182,0.043,0.364,0.062,0.546l0,0l-0.605,0.066C105.121,52.206,105.099,52.026,105.079,51.846L105.079,51.846z
			 M9.465,51.834c0.023-0.184,0.045-0.366,0.068-0.547l0,0l0.603,0.078c-0.023,0.179-0.047,0.359-0.068,0.539l0,0L9.465,51.834
			L9.465,51.834z M104.928,50.709l0.602-0.087c0.026,0.182,0.051,0.363,0.076,0.546l0,0l-0.604,0.079
			C104.978,51.067,104.955,50.888,104.928,50.709L104.928,50.709z M9.618,50.68c0.025-0.182,0.053-0.362,0.08-0.544l0,0l0.602,0.093
			c-0.029,0.178-0.055,0.357-0.081,0.538l0,0L9.618,50.68L9.618,50.68z M104.751,49.575L104.751,49.575l0.6-0.102
			c0.031,0.182,0.061,0.362,0.09,0.544l0,0l-0.602,0.095C104.81,49.933,104.78,49.754,104.751,49.575L104.751,49.575z M9.796,49.531
			c0.03-0.179,0.063-0.359,0.094-0.54l0,0l0.599,0.107c-0.032,0.178-0.064,0.356-0.093,0.534l0,0L9.796,49.531L9.796,49.531z
			 M104.546,48.446l0.596-0.115c0.037,0.181,0.071,0.361,0.104,0.542l0,0l-0.598,0.108C104.614,48.804,104.58,48.624,104.546,48.446
			L104.546,48.446z M10.598,48.503L10.598,48.503L10.598,48.503L10.598,48.503z M10.001,48.388c0.036-0.181,0.07-0.359,0.107-0.54
			l0,0l0.596,0.123c-0.035,0.176-0.07,0.354-0.106,0.531l0,0L10.001,48.388L10.001,48.388z M104.313,47.322l0.595-0.13
			c0.039,0.18,0.077,0.36,0.114,0.538l0,0l-0.595,0.124C104.391,47.677,104.352,47.5,104.313,47.322L104.313,47.322z M10.235,47.251
			c0.039-0.18,0.078-0.358,0.12-0.538l0,0l0.593,0.137c-0.041,0.177-0.08,0.352-0.119,0.53l0,0L10.235,47.251L10.235,47.251z
			 M104.055,46.205l0.59-0.146c0.044,0.18,0.087,0.358,0.128,0.538l0,0l-0.593,0.137C104.139,46.557,104.097,46.382,104.055,46.205
			L104.055,46.205z M10.496,46.119c0.044-0.181,0.088-0.356,0.134-0.536l0,0l0.589,0.151c-0.045,0.175-0.089,0.351-0.132,0.527l0,0
			L10.496,46.119L10.496,46.119z M103.77,45.094h-0.002l0.588-0.158c0.047,0.178,0.096,0.354,0.141,0.532l0,0l-0.59,0.152
			C103.862,45.443,103.816,45.27,103.77,45.094L103.77,45.094z M10.784,44.993c0.047-0.178,0.096-0.355,0.145-0.531l0,0l0.585,0.163
			c-0.049,0.176-0.096,0.351-0.143,0.525l0,0L10.784,44.993L10.784,44.993z M103.457,43.989l0.583-0.172
			c0.052,0.176,0.102,0.353,0.152,0.528l0,0l-0.584,0.167C103.557,44.338,103.507,44.164,103.457,43.989L103.457,43.989z
			 M11.682,44.046L11.1,43.874c0.051-0.176,0.104-0.354,0.157-0.528l0,0l0.582,0.18c-0.054,0.173-0.106,0.347-0.156,0.521l0,0
			H11.682L11.682,44.046z M103.117,42.894l0.579-0.188c0.056,0.175,0.112,0.35,0.166,0.526l0,0l-0.58,0.181
			C103.227,43.24,103.172,43.066,103.117,42.894L103.117,42.894z M12.021,42.945l-0.579-0.185c0.057-0.175,0.115-0.352,0.173-0.524
			l0,0l0.577,0.191c-0.059,0.172-0.115,0.346-0.171,0.52l0,0V42.945L12.021,42.945z M102.752,41.806l0.575-0.2
			c0.06,0.174,0.119,0.348,0.178,0.521l0,0l-0.576,0.195C102.87,42.148,102.811,41.979,102.752,41.806L102.752,41.806z
			 M11.813,41.654c0.061-0.175,0.122-0.347,0.186-0.52l0,0l0.571,0.205c-0.061,0.171-0.122,0.343-0.183,0.516l0,0L11.813,41.654
			L11.813,41.654z M102.36,40.729L102.36,40.729l0.568-0.215c0.064,0.171,0.128,0.343,0.19,0.516l0,0l-0.57,0.208
			C102.487,41.068,102.422,40.898,102.36,40.729L102.36,40.729z M12.21,40.557c0.066-0.171,0.132-0.345,0.197-0.515l0,0l0.567,0.22
			c-0.065,0.169-0.13,0.339-0.194,0.509l0,0L12.21,40.557L12.21,40.557z M101.942,39.66l0.564-0.226
			c0.066,0.169,0.135,0.34,0.203,0.51l0,0l-0.566,0.222C102.077,39.996,102.009,39.828,101.942,39.66L101.942,39.66z M13.197,39.699
			h0.001l0,0l0,0H13.197L13.197,39.699z M12.635,39.471c0.068-0.17,0.138-0.341,0.209-0.51l0,0l0.562,0.233
			c-0.071,0.168-0.141,0.336-0.208,0.505l0,0L12.635,39.471L12.635,39.471z M101.501,38.606l0.557-0.241
			c0.072,0.167,0.145,0.336,0.215,0.504l0,0l-0.56,0.234C101.643,38.938,101.571,38.771,101.501,38.606L101.501,38.606z
			 M13.083,38.396c0.074-0.169,0.148-0.337,0.223-0.507l0,0l0.557,0.249c-0.075,0.165-0.148,0.332-0.221,0.499l0,0L13.083,38.396
			L13.083,38.396z M101.034,37.564l0.552-0.256c0.077,0.167,0.151,0.332,0.228,0.5l0,0l-0.555,0.248
			C101.184,37.891,101.11,37.727,101.034,37.564L101.034,37.564z M13.559,37.333c0.077-0.168,0.155-0.335,0.234-0.501l0,0
			l0.548,0.261c-0.077,0.164-0.155,0.329-0.231,0.495l0,0L13.559,37.333L13.559,37.333z M100.542,36.53l0.545-0.267
			c0.081,0.163,0.16,0.328,0.24,0.493l0,0l-0.549,0.263C100.7,36.856,100.622,36.693,100.542,36.53L100.542,36.53z M14.06,36.28
			c0.081-0.166,0.163-0.33,0.246-0.493l0,0l0.543,0.273c-0.083,0.162-0.163,0.324-0.243,0.486l0,0L14.06,36.28L14.06,36.28z
			 M100.025,35.512l0.538-0.282c0.084,0.164,0.17,0.324,0.252,0.489l0,0l-0.543,0.274C100.19,35.832,100.109,35.671,100.025,35.512
			L100.025,35.512z M14.587,35.241c0.084-0.164,0.17-0.326,0.258-0.488l0,0l0.535,0.288c-0.086,0.159-0.171,0.321-0.254,0.48l0,0
			L14.587,35.241L14.587,35.241z M99.483,34.503l0.533-0.293c0.088,0.16,0.174,0.32,0.262,0.48l0,0l-0.535,0.289
			C99.657,34.82,99.571,34.661,99.483,34.503L99.483,34.503z M15.136,34.216c0.089-0.161,0.181-0.322,0.27-0.482l0,0l0.53,0.3
			c-0.092,0.158-0.18,0.316-0.268,0.476l0,0L15.136,34.216L15.136,34.216z M98.919,33.509l0.524-0.307
			c0.092,0.158,0.185,0.317,0.275,0.476l0,0l-0.528,0.301C99.1,33.82,99.01,33.664,98.919,33.509L98.919,33.509z M15.712,33.202
			c0.093-0.159,0.186-0.317,0.281-0.475l0,0l0.522,0.312c-0.093,0.155-0.187,0.312-0.277,0.469l0,0L15.712,33.202L15.712,33.202z
			 M98.329,32.527L98.329,32.527l0.518-0.319c0.097,0.156,0.191,0.313,0.285,0.47l0,0l-0.52,0.313
			C98.518,32.836,98.424,32.681,98.329,32.527L98.329,32.527z M16.828,32.524v-0.002l0,0V32.524L16.828,32.524L16.828,32.524z
			 M16.31,32.204c0.097-0.157,0.194-0.312,0.292-0.467l0,0l0.514,0.324c-0.098,0.153-0.192,0.308-0.288,0.461l0,0L16.31,32.204
			L16.31,32.204z M97.717,31.56l0.509-0.331c0.1,0.153,0.198,0.308,0.296,0.461l0,0l-0.513,0.326
			C97.913,31.864,97.815,31.712,97.717,31.56L97.717,31.56z M16.934,31.222c0.102-0.155,0.201-0.308,0.303-0.46l0,0l0.506,0.337
			c-0.101,0.15-0.201,0.301-0.299,0.454l0,0L16.934,31.222L16.934,31.222z M97.081,30.607l0.502-0.342
			c0.104,0.149,0.206,0.302,0.307,0.453l0,0l-0.505,0.338C97.284,30.907,97.182,30.757,97.081,30.607L97.081,30.607z M17.58,30.255
			c0.104-0.151,0.21-0.302,0.313-0.453l0,0l0.498,0.35c-0.104,0.149-0.207,0.296-0.31,0.446l0,0L17.58,30.255L17.58,30.255z
			 M96.422,29.671l0.493-0.356c0.107,0.148,0.214,0.297,0.32,0.446l0,0l-0.498,0.351C96.632,29.964,96.528,29.815,96.422,29.671
			L96.422,29.671z M18.249,29.303c0.107-0.15,0.215-0.298,0.325-0.446l0,0l0.489,0.362c-0.108,0.146-0.215,0.292-0.321,0.44l0,0
			L18.249,29.303L18.249,29.303z M95.742,28.749l0.484-0.368c0.11,0.148,0.221,0.294,0.33,0.441l0,0l-0.489,0.361
			C95.96,29.039,95.85,28.893,95.742,28.749L95.742,28.749z M18.94,28.367c0.111-0.146,0.224-0.292,0.336-0.438l0,0l0.479,0.373
			c-0.109,0.144-0.221,0.287-0.33,0.432l0,0v0.001L18.94,28.367L18.94,28.367z M95.04,27.844l0.475-0.378
			c0.113,0.143,0.228,0.286,0.341,0.432l0,0l-0.479,0.374C95.263,28.127,95.151,27.986,95.04,27.844L95.04,27.844z M95.039,27.844
			L95.039,27.844L95.039,27.844v0.002V27.844L95.039,27.844z M20.129,27.828L20.129,27.828L20.129,27.828L20.129,27.828
			L20.129,27.828L20.129,27.828z M19.653,27.449c0.114-0.143,0.229-0.287,0.346-0.429l0,0l0.472,0.383
			c-0.114,0.142-0.228,0.281-0.341,0.425l0,0L19.653,27.449L19.653,27.449z M94.315,26.957v-0.002l0.466-0.39
			c0.117,0.142,0.233,0.282,0.351,0.425l0,0l-0.472,0.384C94.546,27.233,94.431,27.095,94.315,26.957L94.315,26.957z M20.389,26.549
			c0.117-0.143,0.234-0.282,0.355-0.42l0,0l0.461,0.394c-0.118,0.137-0.234,0.276-0.35,0.415l0,0L20.389,26.549L20.389,26.549z
			 M93.57,26.083l0.457-0.399c0.12,0.138,0.239,0.276,0.359,0.414l0,0l-0.462,0.396C93.807,26.357,93.689,26.221,93.57,26.083
			L93.57,26.083z M21.145,25.666c0.12-0.139,0.243-0.275,0.365-0.412l0,0l0.451,0.406c-0.121,0.136-0.24,0.27-0.36,0.406l0,0
			L21.145,25.666L21.145,25.666z M92.803,25.231l0.447-0.412c0.124,0.136,0.247,0.272,0.369,0.408l0,0l-0.45,0.406
			C93.048,25.499,92.925,25.365,92.803,25.231L92.803,25.231z M22.368,25.212l-0.446-0.409c0.124-0.136,0.249-0.271,0.375-0.405l0,0
			l0.442,0.418C22.615,24.946,22.491,25.08,22.368,25.212L22.368,25.212L22.368,25.212L22.368,25.212z M92.016,24.396l0.438-0.422
			c0.129,0.133,0.254,0.266,0.381,0.397l0,0l-0.443,0.417C92.268,24.659,92.143,24.526,92.016,24.396L92.016,24.396z M22.719,23.955
			c0.126-0.132,0.254-0.263,0.383-0.393l0,0l0.434,0.427c-0.128,0.13-0.254,0.26-0.381,0.39l0,0L22.719,23.955L22.719,23.955z
			 M91.212,23.581l0.427-0.433c0.13,0.128,0.26,0.258,0.39,0.389l0,0l-0.433,0.426C91.467,23.835,91.34,23.708,91.212,23.581
			L91.212,23.581z M23.536,23.131c0.13-0.13,0.261-0.258,0.394-0.387l0,0l0.422,0.44c-0.131,0.127-0.261,0.252-0.389,0.379l0,0
			L23.536,23.131L23.536,23.131z M90.385,22.784l0.418-0.443c0.132,0.127,0.266,0.253,0.396,0.38l0,0l-0.422,0.438
			C90.649,23.032,90.518,22.908,90.385,22.784L90.385,22.784z M24.371,22.324c0.134-0.127,0.269-0.251,0.404-0.375l0,0l0.411,0.447
			c-0.135,0.122-0.267,0.246-0.399,0.371l0,0L24.371,22.324L24.371,22.324z M89.541,22.007l0.406-0.453
			c0.138,0.123,0.274,0.246,0.407,0.371l0,0l-0.41,0.446C89.809,22.249,89.676,22.128,89.541,22.007L89.541,22.007z M25.226,21.537
			c0.137-0.123,0.274-0.242,0.411-0.364l0,0l0.401,0.457c-0.136,0.12-0.272,0.24-0.406,0.36l0,0L25.226,21.537L25.226,21.537z
			 M88.678,21.249l0.396-0.461c0.14,0.12,0.277,0.24,0.415,0.361l0,0l-0.4,0.457C88.953,21.486,88.815,21.368,88.678,21.249
			L88.678,21.249z M26.099,20.772c0.14-0.12,0.279-0.237,0.421-0.353l0,0l0.39,0.465c-0.139,0.116-0.277,0.234-0.415,0.351l0,0
			L26.099,20.772L26.099,20.772z M87.797,20.513l0.385-0.471c0.143,0.117,0.283,0.234,0.424,0.351l0,0l-0.389,0.467
			C88.077,20.744,87.939,20.629,87.797,20.513L87.797,20.513z M87.797,20.513L87.797,20.513L87.797,20.513v0.002V20.513
			L87.797,20.513z M26.991,20.029c0.141-0.115,0.285-0.232,0.428-0.346l0,0l0.379,0.476c-0.142,0.111-0.283,0.226-0.423,0.34l0,0
			L26.991,20.029L26.991,20.029z M86.899,19.798l0.373-0.479c0.145,0.113,0.289,0.227,0.433,0.34l0,0l-0.378,0.476
			C87.185,20.022,87.043,19.909,86.899,19.798L86.899,19.798z M27.899,19.306c0.144-0.112,0.29-0.224,0.435-0.334l0,0l0.367,0.484
			c-0.143,0.108-0.288,0.22-0.43,0.331l0,0L27.899,19.306L27.899,19.306z M85.985,19.105l0.359-0.489
			c0.148,0.109,0.295,0.22,0.441,0.33l0,0l-0.367,0.485C86.276,19.322,86.13,19.214,85.985,19.105L85.985,19.105z M85.983,19.105
			c0.001,0,0.001,0,0.002,0l0,0H85.983L85.983,19.105L85.983,19.105z M28.824,18.605c0.148-0.108,0.296-0.217,0.444-0.322l0,0
			l0.356,0.492c-0.148,0.105-0.293,0.211-0.439,0.321l0,0L28.824,18.605L28.824,18.605z M85.052,18.433l0.349-0.498
			c0.151,0.107,0.299,0.213,0.449,0.32l0,0l-0.355,0.492C85.348,18.642,85.2,18.538,85.052,18.433L85.052,18.433z M29.766,17.929
			c0.149-0.106,0.3-0.209,0.451-0.315l0,0l0.343,0.502c-0.148,0.104-0.298,0.206-0.444,0.31l0,0L29.766,17.929L29.766,17.929z
			 M84.104,17.785L84.104,17.785l0.338-0.507c0.152,0.104,0.305,0.205,0.457,0.31l0,0l-0.344,0.502
			C84.405,17.986,84.255,17.885,84.104,17.785L84.104,17.785z M30.721,17.273c0.152-0.102,0.307-0.202,0.46-0.303l0,0l0.331,0.511
			c-0.152,0.098-0.303,0.198-0.453,0.297l0,0L30.721,17.273L30.721,17.273z M83.141,17.157l0.326-0.512
			c0.154,0.097,0.308,0.197,0.463,0.298l0,0l-0.332,0.509C83.448,17.353,83.295,17.255,83.141,17.157L83.141,17.157z M31.694,16.642
			c0.154-0.101,0.311-0.196,0.467-0.292l0,0l0.318,0.517c-0.153,0.095-0.306,0.191-0.459,0.286l0,0L31.694,16.642L31.694,16.642z
			 M82.163,16.555l0.313-0.521c0.157,0.095,0.314,0.19,0.471,0.286l0,0l-0.318,0.518C82.473,16.742,82.318,16.646,82.163,16.555
			L82.163,16.555z M32.682,16.033c0.155-0.095,0.314-0.188,0.472-0.279l0,0l0.306,0.524c-0.154,0.092-0.311,0.183-0.465,0.276l0,0
			L32.682,16.033L32.682,16.033z M81.17,15.975l0.3-0.528c0.161,0.089,0.32,0.183,0.479,0.274l0,0l-0.307,0.525
			C81.486,16.156,81.328,16.065,81.17,15.975L81.17,15.975z M33.682,15.447c0.159-0.089,0.319-0.179,0.479-0.267l0,0l0.294,0.531
			c-0.159,0.089-0.316,0.176-0.473,0.265l0,0v0.002L33.682,15.447L33.682,15.447z M80.165,15.421l0.285-0.537
			c0.162,0.087,0.324,0.176,0.484,0.264l0,0l-0.291,0.533C80.483,15.593,80.323,15.506,80.165,15.421L80.165,15.421z M34.983,15.424
			c0.001,0,0.001,0,0.001,0l0,0h0.001H34.983L34.983,15.424z M34.697,14.888c0.16-0.087,0.321-0.172,0.484-0.258l0,0l0.282,0.539
			c-0.16,0.083-0.319,0.168-0.479,0.254l0,0L34.697,14.888L34.697,14.888z M79.143,14.888l0.275-0.542
			c0.164,0.084,0.328,0.167,0.49,0.251l0,0l-0.281,0.541C79.467,15.053,79.305,14.971,79.143,14.888L79.143,14.888z M35.723,14.351
			c0.164-0.082,0.328-0.163,0.491-0.244l0,0l0.268,0.546c-0.161,0.079-0.323,0.159-0.483,0.241l0,0L35.723,14.351L35.723,14.351z
			 M79.143,14.888L79.143,14.888L79.143,14.888L79.143,14.888L79.143,14.888L79.143,14.888z M78.111,14.383l0.262-0.55
			c0.167,0.08,0.331,0.159,0.497,0.239l0,0l-0.268,0.548C78.44,14.538,78.274,14.46,78.111,14.383L78.111,14.383z M37.024,14.389
			L37.024,14.389L37.024,14.389l0.001,0.002L37.024,14.389L37.024,14.389z M36.762,13.843c0.166-0.079,0.331-0.157,0.498-0.233l0,0
			l0.254,0.552c-0.164,0.075-0.326,0.152-0.49,0.228l0,0L36.762,13.843L36.762,13.843z M77.065,13.898l0.249-0.554
			c0.169,0.076,0.335,0.152,0.503,0.229l0,0l-0.254,0.552C77.399,14.049,77.233,13.973,77.065,13.898L77.065,13.898z M37.813,13.357
			c0.167-0.075,0.335-0.149,0.504-0.222l0,0l0.24,0.559c-0.166,0.072-0.331,0.144-0.496,0.219l0,0L37.813,13.357L37.813,13.357z
			 M76.01,13.443l0.234-0.562c0.17,0.072,0.338,0.144,0.507,0.217l0,0l-0.241,0.558C76.344,13.584,76.178,13.513,76.01,13.443
			L76.01,13.443z M38.877,12.897c0.167-0.07,0.337-0.14,0.505-0.209l0,0l0.229,0.565c-0.166,0.066-0.332,0.136-0.5,0.204l0,0
			L38.877,12.897L38.877,12.897z M76.01,13.443L76.01,13.443L76.01,13.443L76.01,13.443L76.01,13.443L76.01,13.443z M74.942,13.013
			l0.221-0.566c0.172,0.066,0.343,0.135,0.513,0.204l0,0l-0.225,0.563C75.28,13.145,75.112,13.078,74.942,13.013L74.942,13.013z
			 M40.172,13.028l-0.221-0.565c0.17-0.067,0.341-0.133,0.514-0.197l0,0l0.214,0.568c-0.169,0.063-0.338,0.128-0.507,0.196l0,0
			V13.028L40.172,13.028z M73.864,12.606l0.208-0.571c0.173,0.064,0.345,0.126,0.519,0.191l0,0l-0.215,0.57
			C74.207,12.732,74.036,12.669,73.864,12.606L73.864,12.606z M41.038,12.053c0.172-0.062,0.346-0.124,0.519-0.186l0,0l0.199,0.574
			c-0.17,0.061-0.34,0.121-0.51,0.184l0,0L41.038,12.053L41.038,12.053z M72.777,12.228l0.192-0.577
			c0.175,0.059,0.349,0.119,0.523,0.178l0,0l-0.199,0.574C73.122,12.345,72.95,12.286,72.777,12.228L72.777,12.228z M42.135,11.669
			c0.173-0.058,0.348-0.116,0.521-0.172l0,0l0.188,0.578c-0.173,0.055-0.344,0.112-0.516,0.171l0,0L42.135,11.669L42.135,11.669z
			 M71.679,11.876l0.179-0.581c0.177,0.055,0.352,0.11,0.527,0.165l0,0l-0.185,0.58C72.028,11.984,71.854,11.93,71.679,11.876
			L71.679,11.876z M43.241,11.313c0.176-0.056,0.351-0.11,0.525-0.161l0,0l0.175,0.583c-0.175,0.052-0.349,0.104-0.521,0.157l0,0
			L43.241,11.313L43.241,11.313z M70.579,11.552l0.166-0.584c0.176,0.049,0.353,0.099,0.527,0.15l0,0l-0.17,0.583
			C70.927,11.651,70.755,11.6,70.579,11.552L70.579,11.552z M44.521,11.567l-0.166-0.586c0.177-0.049,0.354-0.099,0.53-0.144l0,0
			l0.158,0.586C44.869,11.469,44.694,11.517,44.521,11.567L44.521,11.567L44.521,11.567L44.521,11.567z M69.47,11.254l0.151-0.588
			c0.178,0.045,0.355,0.092,0.532,0.138l0,0l-0.157,0.587C69.823,11.345,69.646,11.299,69.47,11.254L69.47,11.254z M45.477,10.68
			c0.178-0.046,0.355-0.092,0.533-0.135l0,0l0.146,0.591c-0.177,0.044-0.353,0.087-0.528,0.134l0,0L45.477,10.68L45.477,10.68z
			 M68.356,10.983h0.002l0.135-0.593c0.179,0.041,0.357,0.083,0.535,0.127l0,0l-0.143,0.591
			C68.709,11.065,68.532,11.024,68.356,10.983L68.356,10.983z M46.606,10.403c0.178-0.041,0.357-0.082,0.536-0.121l0,0l0.13,0.594
			c-0.176,0.039-0.353,0.079-0.529,0.12l0,0L46.606,10.403L46.606,10.403z M67.235,10.737l0.123-0.595
			c0.18,0.038,0.359,0.074,0.537,0.114l0,0l-0.129,0.594C67.589,10.812,67.413,10.775,67.235,10.737L67.235,10.737z M47.741,10.155
			c0.179-0.037,0.359-0.072,0.539-0.108l0,0l0.117,0.598c-0.178,0.034-0.355,0.069-0.533,0.106l0,0L47.741,10.155L47.741,10.155z
			 M66.109,10.521l0.106-0.598c0.182,0.032,0.361,0.066,0.542,0.101l0,0l-0.116,0.597C66.465,10.587,66.286,10.555,66.109,10.521
			L66.109,10.521z M48.881,9.935c0.18-0.034,0.361-0.065,0.543-0.097l0,0l0.101,0.599c-0.178,0.031-0.357,0.063-0.536,0.096l0,0
			L48.881,9.935L48.881,9.935z M66.108,10.521C66.108,10.521,66.108,10.521,66.108,10.521L66.108,10.521v0.002V10.521L66.108,10.521
			z M64.976,10.333l0.094-0.601c0.183,0.027,0.363,0.058,0.544,0.089l0,0l-0.1,0.599C65.335,10.389,65.155,10.359,64.976,10.333
			L64.976,10.333z M50.027,9.74c0.183-0.026,0.362-0.055,0.544-0.082l0,0l0.086,0.602c-0.178,0.025-0.357,0.054-0.536,0.081l0,0
			L50.027,9.74L50.027,9.74z M63.84,10.169l0.08-0.601c0.182,0.024,0.363,0.047,0.545,0.073l0,0l-0.086,0.602
			C64.2,10.217,64.02,10.193,63.84,10.169L63.84,10.169z M51.176,9.575c0.182-0.023,0.365-0.046,0.547-0.069l0,0l0.072,0.603
			c-0.18,0.022-0.358,0.045-0.539,0.069l0,0l0,0L51.176,9.575L51.176,9.575z M62.702,10.035l0.064-0.603
			c0.183,0.019,0.364,0.039,0.547,0.061l0,0l-0.072,0.602C63.062,10.075,62.881,10.055,62.702,10.035L62.702,10.035z M52.331,9.437
			c0.183-0.021,0.365-0.04,0.548-0.057l0,0l0.058,0.606c-0.182,0.017-0.361,0.035-0.541,0.055l0,0L52.331,9.437L52.331,9.437z
			 M61.559,9.928l0.049-0.606c0.184,0.016,0.365,0.031,0.549,0.048l0,0L62.1,9.975C61.921,9.958,61.74,9.942,61.559,9.928
			L61.559,9.928z M53.487,9.326c0.184-0.015,0.366-0.03,0.549-0.043l0,0l0.044,0.606c-0.181,0.013-0.362,0.027-0.542,0.043l0,0
			L53.487,9.326L53.487,9.326z M60.415,9.847l0.035-0.608c0.183,0.012,0.366,0.023,0.549,0.036l0,0l-0.041,0.606
			C60.776,9.869,60.595,9.856,60.415,9.847L60.415,9.847z M54.647,9.244c0.182-0.012,0.365-0.023,0.549-0.031l0,0l0.029,0.608
			c-0.181,0.008-0.363,0.017-0.543,0.029l0,0L54.647,9.244L54.647,9.244z M59.268,9.794l0.021-0.607
			c0.183,0.005,0.368,0.013,0.551,0.02l0,0l-0.028,0.608C59.631,9.808,59.45,9.8,59.268,9.794L59.268,9.794z M55.806,9.187
			c0.183-0.006,0.366-0.013,0.55-0.017l0,0l0.014,0.607c-0.18,0.005-0.361,0.01-0.541,0.016l0,0L55.806,9.187L55.806,9.187z
			 M58.121,9.767l0.007-0.608c0.184,0.002,0.369,0.004,0.551,0.01l0,0l-0.014,0.606C58.484,9.772,58.302,9.768,58.121,9.767
			L58.121,9.767z M56.965,9.159c0.184-0.001,0.366-0.003,0.551-0.003l0,0l0.002,0.608c-0.182,0-0.363,0.001-0.544,0.003l0,0
			L56.965,9.159L56.965,9.159z"/>
		<path fill="#54A2F7" d="M57.777,108.171c0.257-0.002,0.512-0.006,0.767-0.011l0,0l0.057,3.039c-0.27,0.006-0.54,0.008-0.812,0.011
			l0,0L57.777,108.171L57.777,108.171z M55.602,111.172l0.11-3.037c0.255,0.011,0.51,0.018,0.766,0.024l0,0l-0.063,3.037
			C56.143,111.19,55.873,111.183,55.602,111.172L55.602,111.172z M59.839,108.121c0.255-0.012,0.511-0.025,0.767-0.041l0,0v0.002
			l0.179,3.032c-0.271,0.016-0.541,0.029-0.812,0.042l0,0L59.839,108.121L59.839,108.121z M53.417,111.05l0.232-3.03
			c0.255,0.02,0.51,0.037,0.766,0.054l0,0l-0.188,3.032C53.958,111.089,53.686,111.07,53.417,111.05L53.417,111.05z M61.9,107.988
			c0.255-0.022,0.511-0.045,0.764-0.07l0,0v-0.001l0.303,3.023c-0.269,0.027-0.54,0.053-0.81,0.075l0,0L61.9,107.988L61.9,107.988z
			 M51.238,110.838l0.356-3.018c0.254,0.028,0.508,0.057,0.764,0.084l0,0v0.001l-0.312,3.021
			C51.777,110.9,51.506,110.869,51.238,110.838L51.238,110.838z M63.954,107.771c0.254-0.031,0.508-0.065,0.76-0.102l0,0v0.001
			l0.426,3.008c-0.269,0.038-0.536,0.074-0.807,0.109l0,0L63.954,107.771L63.954,107.771z M49.07,110.536l0.479-3
			c0.252,0.04,0.504,0.078,0.758,0.115l0,0l-0.434,3.009C49.605,110.622,49.338,110.581,49.07,110.536L49.07,110.536z
			 M65.997,107.472c0.252-0.043,0.504-0.087,0.755-0.133l0,0l0.548,2.989c-0.266,0.049-0.533,0.096-0.801,0.14l0,0L65.997,107.472
			L65.997,107.472z M46.917,110.148l0.601-2.979c0.25,0.05,0.501,0.098,0.752,0.146l0,0l-0.555,2.988
			C47.447,110.254,47.182,110.203,46.917,110.148L46.917,110.148z M68.024,107.09c0.252-0.052,0.502-0.107,0.75-0.163l0,0
			l0.67,2.965c-0.264,0.059-0.529,0.117-0.794,0.173l0,0L68.024,107.09L68.024,107.09z M44.779,109.67l0.725-2.949
			c0.247,0.059,0.495,0.119,0.745,0.176l0,0l-0.678,2.963C45.305,109.798,45.042,109.736,44.779,109.67L44.779,109.67z
			 M70.036,106.623c0.248-0.062,0.494-0.125,0.742-0.193l0,0l0.791,2.934c-0.262,0.071-0.524,0.138-0.787,0.205l0,0L70.036,106.623
			L70.036,106.623z M42.663,109.107l0.846-2.92c0.245,0.07,0.492,0.14,0.738,0.207l0,0l-0.8,2.933
			C43.185,109.255,42.923,109.181,42.663,109.107L42.663,109.107z M72.026,106.076c0.246-0.074,0.49-0.148,0.733-0.225l0,0l0.91,2.9
			c-0.257,0.08-0.517,0.159-0.776,0.236l0,0L72.026,106.076L72.026,106.076z M40.571,108.454l0.964-2.882
			c0.243,0.082,0.486,0.162,0.73,0.238l0,0l-0.918,2.897C41.087,108.625,40.828,108.54,40.571,108.454L40.571,108.454z
			 M73.993,105.446c0.24-0.083,0.481-0.167,0.722-0.255l0,0v0.001l1.03,2.858c-0.254,0.092-0.51,0.182-0.767,0.271l0,0
			L73.993,105.446L73.993,105.446z M56.478,108.159L56.478,108.159L56.478,108.159L56.478,108.159L56.478,108.159z M38.501,107.716
			l1.083-2.842c0.239,0.093,0.48,0.182,0.722,0.27l0,0L39.267,108C39.01,107.906,38.755,107.81,38.501,107.716L38.501,107.716z
			 M75.929,104.737c0.239-0.093,0.476-0.188,0.712-0.285l0,0l1.147,2.815c-0.251,0.102-0.503,0.202-0.755,0.301l0,0L75.929,104.737
			L75.929,104.737z M36.466,106.89l1.198-2.791c0.236,0.1,0.472,0.199,0.709,0.296l0,0l-1.155,2.812
			C36.966,107.104,36.717,107,36.466,106.89L36.466,106.89z M46.249,106.896L46.249,106.896L46.249,106.896L46.249,106.896
			L46.249,106.896z M77.834,103.95c0.233-0.102,0.466-0.206,0.696-0.312l0,0h0.002l1.262,2.765c-0.248,0.112-0.494,0.22-0.742,0.33
			l0,0L77.834,103.95L77.834,103.95z M34.467,105.985l1.312-2.742c0.23,0.11,0.463,0.219,0.695,0.326l0,0v0.001l-1.27,2.761
			C34.958,106.217,34.713,106.099,34.467,105.985L34.467,105.985z M79.702,103.087c0.229-0.113,0.457-0.226,0.685-0.342l0,0
			l1.373,2.712c-0.242,0.122-0.482,0.242-0.726,0.36l0,0L79.702,103.087L79.702,103.087z M32.508,104.997l1.422-2.687
			c0.227,0.122,0.454,0.24,0.683,0.355l0,0l-1.382,2.707C32.989,105.249,32.748,105.125,32.508,104.997L32.508,104.997z
			 M81.533,102.145c0.226-0.121,0.449-0.242,0.671-0.366l0,0l1.483,2.651c-0.237,0.132-0.474,0.262-0.712,0.39l0,0L81.533,102.145
			L81.533,102.145z M30.591,103.93l1.533-2.624c0.222,0.128,0.442,0.255,0.666,0.382l0,0l-1.491,2.648
			C31.063,104.204,30.827,104.067,30.591,103.93L30.591,103.93z M83.327,101.132c0.219-0.13,0.438-0.261,0.654-0.396l0,0l1.589,2.59
			c-0.229,0.143-0.46,0.282-0.694,0.419l0,0L83.327,101.132L83.327,101.132z M28.721,102.786l1.64-2.559
			c0.216,0.139,0.432,0.273,0.649,0.409l0,0l-1.6,2.584C29.18,103.077,28.951,102.932,28.721,102.786L28.721,102.786z
			 M85.078,100.046c0.214-0.139,0.427-0.281,0.638-0.422l0,0l1.693,2.523c-0.224,0.15-0.451,0.301-0.676,0.445l0,0L85.078,100.046
			L85.078,100.046z M26.901,101.567l1.742-2.489c0.209,0.146,0.42,0.292,0.633,0.435l0,0h-0.002l-1.703,2.518
			C27.346,101.877,27.123,101.725,26.901,101.567L26.901,101.567z M86.782,98.888c0.209-0.148,0.416-0.298,0.623-0.447l0,0
			l1.795,2.451c-0.219,0.161-0.438,0.319-0.66,0.476l0,0L86.782,98.888L86.782,98.888z M25.131,100.277l1.842-2.418
			c0.203,0.155,0.408,0.309,0.613,0.461l0,0l-1.804,2.444C25.564,100.604,25.346,100.44,25.131,100.277L25.131,100.277z
			 M88.44,97.66c0.203-0.155,0.404-0.312,0.603-0.471l0,0l1.893,2.377c-0.211,0.169-0.424,0.335-0.641,0.5l0,0L88.44,97.66
			L88.44,97.66z M23.415,98.916l1.94-2.342c0.197,0.163,0.396,0.326,0.596,0.485l0,0l-1.902,2.369
			C23.835,99.259,23.626,99.088,23.415,98.916L23.415,98.916z M90.047,96.367c0.196-0.164,0.391-0.329,0.584-0.495l0,0l1.988,2.298
			c-0.205,0.178-0.412,0.353-0.619,0.525l0,0L90.047,96.367L90.047,96.367z M21.76,97.485l2.031-2.26
			c0.188,0.171,0.381,0.34,0.574,0.508l0,0h-0.002l-1.996,2.291C22.164,97.846,21.96,97.666,21.76,97.485L21.76,97.485z
			 M91.602,95.01c0.188-0.172,0.377-0.346,0.562-0.521l0,0l2.08,2.218c-0.197,0.185-0.397,0.368-0.598,0.551l0,0L91.602,95.01
			L91.602,95.01z M20.162,95.99l2.12-2.177c0.184,0.178,0.368,0.355,0.554,0.532l0,0l-2.088,2.206
			C20.551,96.367,20.355,96.178,20.162,95.99L20.162,95.99z M93.1,93.591c0.182-0.181,0.361-0.361,0.541-0.545l0,0l2.168,2.132
			c-0.189,0.191-0.381,0.384-0.573,0.574l0,0L93.1,93.591L93.1,93.591z M18.626,94.429l2.208-2.086
			c0.176,0.185,0.353,0.368,0.532,0.553l0,0h-0.002l-2.175,2.121C18.999,94.822,18.813,94.628,18.626,94.429L18.626,94.429z
			 M94.54,92.109c0.174-0.188,0.348-0.375,0.52-0.565l0,0l2.251,2.041c-0.181,0.2-0.364,0.4-0.549,0.599l0,0L94.54,92.109
			L94.54,92.109z M17.156,92.81l2.29-1.996c0.169,0.192,0.338,0.384,0.508,0.573l0,0l-2.261,2.031
			C17.513,93.217,17.334,93.015,17.156,92.81L17.156,92.81z M95.92,90.57c0.167-0.192,0.332-0.389,0.495-0.585l0,0l2.334,1.948
			c-0.174,0.209-0.35,0.414-0.526,0.619l0,0L95.92,90.57L95.92,90.57z M15.753,91.134l2.37-1.901
			c0.159,0.197,0.321,0.397,0.483,0.592l0,0l-2.342,1.938C16.092,91.555,15.922,91.345,15.753,91.134L15.753,91.134z M97.234,88.978
			c0.159-0.2,0.315-0.402,0.472-0.605l0,0l2.411,1.85c-0.166,0.216-0.333,0.432-0.501,0.642l0,0L97.234,88.978L97.234,88.978z
			 M14.419,89.4l2.445-1.803c0.152,0.204,0.305,0.408,0.459,0.611l0,0h0.002l-2.419,1.841C14.741,89.836,14.581,89.618,14.419,89.4
			L14.419,89.4z M18.606,89.824L18.606,89.824v0.002C18.606,89.824,18.606,89.824,18.606,89.824L18.606,89.824z M98.485,87.332
			c0.15-0.207,0.299-0.415,0.447-0.623l0,0l-0.002-0.002l2.484,1.754c-0.156,0.221-0.314,0.441-0.474,0.661l0,0L98.485,87.332
			L98.485,87.332z M13.157,87.617l2.518-1.704c0.144,0.212,0.287,0.422,0.434,0.631l0,0v0.001l-2.49,1.739
			C13.462,88.064,13.309,87.841,13.157,87.617L13.157,87.617z M99.667,85.637c0.142-0.213,0.282-0.426,0.421-0.642l0,0l0,0
			l2.553,1.647c-0.147,0.229-0.296,0.455-0.446,0.681l0,0L99.667,85.637L99.667,85.637z M11.97,85.784l2.585-1.601
			c0.133,0.217,0.268,0.434,0.406,0.647l0,0l0,0l-2.56,1.638C12.256,86.241,12.113,86.013,11.97,85.784L11.97,85.784z
			 M100.778,83.892c0.135-0.217,0.266-0.438,0.396-0.657l0,0l2.618,1.541c-0.14,0.235-0.278,0.468-0.419,0.701l0,0L100.778,83.892
			L100.778,83.892z M10.859,83.903l2.645-1.493c0.127,0.222,0.253,0.443,0.383,0.662l0,0l-2.626,1.533
			C11.126,84.373,10.991,84.137,10.859,83.903L10.859,83.903z M101.819,82.105c0.125-0.223,0.246-0.448,0.367-0.674l0,0l2.68,1.434
			c-0.127,0.24-0.258,0.479-0.389,0.716l0,0L101.819,82.105L101.819,82.105z M9.826,81.98l2.705-1.384
			c0.116,0.227,0.233,0.453,0.353,0.677l0,0L10.2,82.698C10.073,82.46,9.948,82.22,9.826,81.98L9.826,81.98z M102.786,80.277
			c0.115-0.229,0.229-0.458,0.34-0.689l0,0l2.736,1.323c-0.119,0.244-0.239,0.488-0.36,0.73l0,0L102.786,80.277L102.786,80.277z
			 M8.872,80.016l2.76-1.273c0.106,0.232,0.215,0.464,0.324,0.694l0,0l-2.74,1.312C9.099,80.506,8.984,80.263,8.872,80.016
			L8.872,80.016z M103.676,78.41c0.106-0.234,0.21-0.469,0.312-0.704l0,0l0,0l2.787,1.209c-0.109,0.25-0.219,0.498-0.331,0.746l0,0
			L103.676,78.41L103.676,78.41z M7.999,78.016l2.81-1.156c0.097,0.233,0.197,0.47,0.297,0.702l0,0l-2.792,1.2
			C8.206,78.514,8.1,78.266,7.999,78.016L7.999,78.016z M104.489,76.506c0.097-0.237,0.191-0.477,0.283-0.715l0,0l2.836,1.092
			c-0.098,0.255-0.198,0.508-0.3,0.76l0,0L104.489,76.506L104.489,76.506z M7.207,75.975l2.855-1.043
			c0.087,0.241,0.177,0.481,0.267,0.72l0,0l-2.838,1.086C7.395,76.484,7.299,76.23,7.207,75.975L7.207,75.975z M105.224,74.569
			c0.086-0.241,0.171-0.484,0.253-0.727l0,0v-0.001l2.879,0.977c-0.088,0.257-0.178,0.514-0.269,0.771l0,0L105.224,74.569
			L105.224,74.569z M6.5,73.903l2.895-0.923c0.076,0.246,0.156,0.487,0.238,0.729l0,0H9.631l-2.879,0.968
			C6.667,74.42,6.581,74.163,6.5,73.903L6.5,73.903z M105.88,72.602c0.074-0.244,0.148-0.487,0.221-0.731l0,0l2.916,0.854
			c-0.076,0.261-0.154,0.52-0.234,0.779l0,0L105.88,72.602L105.88,72.602z M5.877,71.805l2.933-0.804
			c0.066,0.247,0.136,0.493,0.208,0.737l0,0l-2.92,0.848C6.022,72.328,5.949,72.066,5.877,71.805L5.877,71.805z M106.45,70.619
			c0.066-0.245,0.129-0.493,0.191-0.741l0,0l2.949,0.733c-0.066,0.265-0.135,0.527-0.203,0.79l0,0L106.45,70.619L106.45,70.619z
			 M5.342,69.681L8.303,69c0.059,0.25,0.117,0.498,0.178,0.746l0,0L5.53,70.474C5.466,70.211,5.403,69.946,5.342,69.681
			L5.342,69.681z M106.939,68.615c0.055-0.251,0.108-0.501,0.159-0.751l0,0l2.977,0.612c-0.054,0.266-0.11,0.532-0.169,0.796l0,0
			L106.939,68.615L106.939,68.615z M4.895,67.54l2.986-0.56c0.048,0.251,0.098,0.501,0.147,0.752l0,0l-2.977,0.606
			C4.996,68.07,4.944,67.806,4.895,67.54L4.895,67.54z M8.028,67.732H8.03l0,0H8.028L8.028,67.732z M107.344,66.59
			c0.045-0.251,0.088-0.503,0.13-0.755l0,0l2.999,0.489c-0.044,0.269-0.09,0.535-0.138,0.802l0,0L107.344,66.59L107.344,66.59z
			 M4.536,65.379l3.008-0.436c0.037,0.253,0.074,0.505,0.115,0.758l0,0l-3,0.483C4.616,65.917,4.574,65.648,4.536,65.379
			L4.536,65.379z M7.659,65.701L7.659,65.701L7.659,65.701C7.659,65.701,7.659,65.701,7.659,65.701L7.659,65.701z M107.667,64.55
			c0.035-0.253,0.068-0.505,0.098-0.759l0,0v-0.002l3.019,0.37c-0.032,0.268-0.068,0.537-0.105,0.806l0,0L107.667,64.55
			L107.667,64.55z M4.265,63.208l3.023-0.312c0.026,0.254,0.055,0.508,0.086,0.762l0,0l-3.018,0.359
			C4.323,63.749,4.294,63.477,4.265,63.208L4.265,63.208z M107.907,62.499c0.023-0.256,0.047-0.508,0.066-0.764l0,0l3.029,0.244
			c-0.021,0.272-0.046,0.542-0.071,0.81l0,0L107.907,62.499L107.907,62.499z M4.083,61.027l3.035-0.191
			c0.014,0.255,0.033,0.512,0.053,0.766l0,0l-3.029,0.237C4.12,61.569,4.1,61.299,4.083,61.027L4.083,61.027z M108.061,60.44
			c0.015-0.255,0.026-0.51,0.037-0.766l0,0l3.036,0.121c-0.011,0.271-0.022,0.542-0.038,0.811l0,0L108.061,60.44L108.061,60.44z
			 M3.989,58.843l3.039-0.067c0.006,0.255,0.014,0.51,0.023,0.764l0,0l-3.037,0.114C4.005,59.385,3.996,59.115,3.989,58.843
			L3.989,58.843z M108.133,58.376c0.004-0.256,0.005-0.511,0.005-0.768l0,0h0.003h3.037c0,0.272-0.002,0.542-0.006,0.813l0,0
			L108.133,58.376L108.133,58.376z M7.016,57.475l-3.039-0.007c0-0.272,0.002-0.543,0.008-0.813l0,0l3.039,0.053
			C7.018,56.964,7.016,57.221,7.016,57.475L7.016,57.475L7.016,57.475L7.016,57.475z M108.108,55.806l3.037-0.105
			c0.008,0.27,0.016,0.54,0.021,0.812l0,0l-3.038,0.061C108.124,56.316,108.116,56.06,108.108,55.806L108.108,55.806z M4.026,55.281
			c0.012-0.271,0.025-0.542,0.04-0.812l0,0l3.035,0.176c-0.017,0.256-0.028,0.511-0.04,0.767l0,0L4.026,55.281L4.026,55.281z
			 M107.993,53.745l3.031-0.228c0.02,0.269,0.039,0.538,0.056,0.81l0,0l-3.032,0.184C108.031,54.256,108.014,54,107.993,53.745
			L107.993,53.745z M7.192,53.349L7.192,53.349L7.192,53.349L7.192,53.349z M4.164,53.097c0.023-0.271,0.046-0.539,0.073-0.809l0,0
			l3.024,0.297c-0.024,0.254-0.048,0.51-0.069,0.765l0,0L4.164,53.097L4.164,53.097z M107.797,51.689l3.02-0.352
			c0.032,0.27,0.06,0.54,0.088,0.81l0,0l-3.024,0.307C107.854,52.197,107.827,51.943,107.797,51.689L107.797,51.689z M4.389,50.921
			c0.033-0.27,0.069-0.539,0.107-0.807l0,0l3.011,0.422c-0.035,0.252-0.07,0.506-0.102,0.76l0,0L4.389,50.921L4.389,50.921z
			 M107.516,49.644l3.002-0.475c0.043,0.266,0.081,0.535,0.121,0.803l0,0l-3.01,0.431C107.593,50.147,107.555,49.896,107.516,49.644
			L107.516,49.644z M4.705,48.754c0.044-0.268,0.091-0.534,0.139-0.8l0,0l2.989,0.542C7.788,48.749,7.745,49,7.702,49.254l0,0
			L4.705,48.754L4.705,48.754z M107.151,47.611l2.982-0.597c0.053,0.266,0.104,0.532,0.152,0.799l0,0l-2.988,0.552
			C107.25,48.114,107.202,47.862,107.151,47.611L107.151,47.611z M5.107,46.601c0.056-0.265,0.114-0.53,0.173-0.793l0,0l2.965,0.666
			c-0.055,0.248-0.109,0.498-0.162,0.749l0,0L5.107,46.601L5.107,46.601z M106.704,45.597h0.002l2.951-0.72
			c0.064,0.264,0.127,0.526,0.187,0.791l0,0l-2.963,0.675C106.824,46.094,106.765,45.846,106.704,45.597L106.704,45.597z
			 M5.598,44.469c0.067-0.264,0.136-0.524,0.205-0.787l0,0l2.936,0.789c-0.066,0.245-0.13,0.492-0.193,0.741l0,0L5.598,44.469
			L5.598,44.469z M106.174,43.602l2.92-0.841c0.075,0.26,0.148,0.522,0.219,0.783l0,0l-2.933,0.796
			C106.314,44.094,106.246,43.846,106.174,43.602L106.174,43.602z M6.177,42.357c0.077-0.26,0.156-0.519,0.237-0.777l0,0l2.9,0.907
			c-0.076,0.244-0.15,0.487-0.224,0.733l0,0L6.177,42.357L6.177,42.357z M105.563,41.632l2.885-0.96
			c0.084,0.257,0.168,0.514,0.25,0.773l0,0l-2.898,0.916C105.723,42.117,105.645,41.873,105.563,41.632L105.563,41.632z
			 M105.563,41.631L105.563,41.631L105.563,41.631L105.563,41.631L105.563,41.631L105.563,41.631z M9.719,41.248H9.72L9.719,41.25
			V41.248L9.719,41.248z M6.844,40.268c0.088-0.26,0.178-0.517,0.269-0.772l0,0l2.86,1.027c-0.087,0.241-0.171,0.482-0.255,0.725
			l0,0L6.844,40.268L6.844,40.268z M104.871,39.685l2.843-1.076c0.096,0.251,0.19,0.508,0.283,0.762l0,0l-2.859,1.034
			C105.051,40.165,104.962,39.926,104.871,39.685L104.871,39.685z M7.596,38.203c0.1-0.254,0.2-0.507,0.303-0.758l0,0l2.815,1.143
			c-0.097,0.237-0.192,0.477-0.284,0.716l0,0v0.001L7.596,38.203L7.596,38.203z M104.1,37.774l2.795-1.193
			c0.107,0.248,0.211,0.496,0.312,0.747l0,0l-2.812,1.15C104.298,38.242,104.2,38.009,104.1,37.774L104.1,37.774z M8.434,36.173
			c0.109-0.248,0.22-0.497,0.333-0.744l0,0l2.767,1.258c-0.108,0.234-0.211,0.467-0.315,0.703l0,0L8.434,36.173L8.434,36.173z
			 M103.254,35.899L106,34.592c0.114,0.244,0.229,0.488,0.342,0.735l0,0l-2.765,1.265C103.471,36.359,103.364,36.128,103.254,35.899
			L103.254,35.899z M9.354,34.18c0.119-0.243,0.24-0.487,0.362-0.729l0,0l2.712,1.371c-0.115,0.229-0.229,0.458-0.342,0.688l0,0
			L9.354,34.18L9.354,34.18z M102.333,34.058l2.688-1.419c0.126,0.24,0.25,0.479,0.373,0.721l0,0l-2.709,1.377
			C102.569,34.51,102.452,34.284,102.333,34.058L102.333,34.058z M13.03,33.668l-2.676-1.438c0.129-0.241,0.26-0.479,0.393-0.716
			l0,0l2.653,1.482c-0.125,0.225-0.249,0.448-0.37,0.675l0,0V33.668L13.03,33.668z M101.336,32.258l2.627-1.528
			c0.136,0.234,0.27,0.47,0.401,0.706l0,0l-2.65,1.485C101.588,32.699,101.463,32.477,101.336,32.258L101.336,32.258z
			 M101.335,32.256c0,0.002,0,0.002,0.001,0.002l0,0h-0.001V32.256L101.335,32.256z M11.433,30.318
			c0.14-0.231,0.279-0.465,0.421-0.697l0,0l2.59,1.588c-0.133,0.221-0.266,0.439-0.396,0.659l0,0L11.433,30.318L11.433,30.318z
			 M100.263,30.497L100.263,30.497l2.564-1.632c0.145,0.227,0.288,0.457,0.431,0.687l0,0l-2.589,1.593
			C100.536,30.928,100.401,30.712,100.263,30.497L100.263,30.497z M12.588,28.457c0.148-0.227,0.299-0.455,0.449-0.68l0,0
			l2.523,1.694c-0.143,0.212-0.283,0.425-0.424,0.639l0,0L12.588,28.457L12.588,28.457z M99.122,28.78l2.494-1.733
			c0.155,0.22,0.307,0.444,0.459,0.669l0,0l-2.521,1.696C99.411,29.201,99.266,28.989,99.122,28.78L99.122,28.78z M13.819,26.644
			c0.158-0.223,0.316-0.442,0.477-0.661l0,0l2.453,1.796c-0.151,0.206-0.301,0.413-0.449,0.622l0,0L13.819,26.644L13.819,26.644z
			 M97.91,27.111l2.423-1.836c0.164,0.217,0.324,0.433,0.484,0.653l0,0l-2.448,1.797C98.216,27.519,98.064,27.314,97.91,27.111
			L97.91,27.111z M17.528,26.738l-2.404-1.855c0.164-0.214,0.332-0.427,0.501-0.641l0,0l2.378,1.893
			c-0.16,0.2-0.318,0.4-0.475,0.606l0,0V26.738L17.528,26.738z M96.631,25.492l2.346-1.931c0.172,0.209,0.342,0.419,0.512,0.63l0,0
			l-2.375,1.897C96.955,25.888,96.794,25.689,96.631,25.492L96.631,25.492z M16.497,23.176c0.174-0.207,0.349-0.413,0.526-0.617l0,0
			l2.298,1.987c-0.166,0.193-0.333,0.388-0.496,0.585l0,0L16.497,23.176L16.497,23.176z M95.288,23.927l2.266-2.025
			c0.182,0.201,0.359,0.404,0.537,0.609l0,0l-2.297,1.991C95.628,24.308,95.458,24.117,95.288,23.927L95.288,23.927z M20.184,23.575
			l-2.247-2.047c0.183-0.2,0.366-0.398,0.552-0.597l0,0l2.216,2.079C20.529,23.199,20.356,23.387,20.184,23.575L20.184,23.575
			L20.184,23.575L20.184,23.575z M93.88,22.414l2.184-2.114c0.188,0.193,0.375,0.391,0.561,0.589l0,0l-2.213,2.08
			C94.235,22.784,94.058,22.599,93.88,22.414L93.88,22.414z M21.604,22.076l-2.161-2.136c0.191-0.192,0.383-0.384,0.576-0.573l0,0
			l2.13,2.169c-0.184,0.178-0.365,0.359-0.543,0.54l0,0H21.604L21.604,22.076z M92.415,20.962l2.094-2.201
			c0.195,0.186,0.39,0.374,0.584,0.564l0,0l-2.127,2.172C92.783,21.315,92.598,21.139,92.415,20.962L92.415,20.962z M23.085,20.637
			l-2.073-2.221c0.199-0.186,0.398-0.367,0.598-0.549l0,0l2.042,2.252C23.46,20.29,23.272,20.464,23.085,20.637L23.085,20.637
			L23.085,20.637L23.085,20.637z M90.887,19.569h0.002l2.002-2.285c0.203,0.18,0.407,0.358,0.607,0.54l0,0l-2.037,2.256
			C91.272,19.909,91.081,19.738,90.887,19.569L90.887,19.569z M22.641,16.956c0.205-0.177,0.411-0.351,0.619-0.523l0,0l1.947,2.333
			c-0.197,0.163-0.392,0.327-0.586,0.493l0,0v0.002L22.641,16.956L22.641,16.956z M89.308,18.24l1.907-2.365
			c0.212,0.169,0.422,0.342,0.629,0.517l0,0l-1.943,2.336C89.704,18.562,89.506,18.401,89.308,18.24L89.308,18.24z M24.328,15.563
			c0.212-0.168,0.425-0.333,0.64-0.499l0,0l1.851,2.412c-0.204,0.154-0.404,0.312-0.605,0.471l0,0L24.328,15.563L24.328,15.563z
			 M87.673,16.975l1.81-2.442c0.219,0.163,0.434,0.325,0.65,0.491l0,0l-1.848,2.412C88.083,17.281,87.88,17.128,87.673,16.975
			L87.673,16.975z M26.067,14.243c0.219-0.159,0.439-0.317,0.66-0.474l0,0l1.752,2.483c-0.209,0.148-0.416,0.297-0.622,0.447l0,0
			L26.067,14.243L26.067,14.243z M85.989,15.777l1.71-2.512c0.224,0.152,0.446,0.306,0.67,0.463l0,0l-1.749,2.485
			C86.41,16.068,86.201,15.923,85.989,15.777L85.989,15.777z M27.86,12.992c0.226-0.151,0.451-0.298,0.68-0.444l0,0l1.648,2.553
			c-0.214,0.139-0.427,0.276-0.639,0.419l0,0v0.002L27.86,12.992L27.86,12.992z M84.255,14.649l1.606-2.58
			c0.229,0.143,0.46,0.288,0.688,0.438l0,0l-1.645,2.553C84.689,14.922,84.473,14.785,84.255,14.649L84.255,14.649z M29.702,11.816
			c0.232-0.141,0.463-0.28,0.696-0.417l0,0l1.544,2.618c-0.221,0.13-0.44,0.262-0.657,0.395l0,0L29.702,11.816L29.702,11.816z
			 M82.478,13.593l1.499-2.644c0.236,0.134,0.472,0.271,0.705,0.406l0,0l-1.539,2.622C82.922,13.847,82.702,13.72,82.478,13.593
			L82.478,13.593z M31.589,10.718c0.236-0.131,0.474-0.261,0.712-0.388l0,0l1.436,2.679c-0.225,0.12-0.448,0.242-0.672,0.367l0,0
			L31.589,10.718L31.589,10.718z M80.658,12.611v-0.002l1.39-2.702c0.24,0.124,0.482,0.251,0.723,0.378l0,0l-1.432,2.682
			C81.112,12.845,80.886,12.726,80.658,12.611L80.658,12.611z M33.52,9.696c0.24-0.121,0.483-0.239,0.726-0.358l0,0l1.324,2.734
			c-0.229,0.111-0.459,0.225-0.686,0.339l0,0L33.52,9.696L33.52,9.696z M78.798,11.702l1.276-2.757
			c0.247,0.114,0.493,0.229,0.738,0.347l0,0l-1.32,2.739C79.263,11.92,79.03,11.809,78.798,11.702L78.798,11.702z M36.743,11.523
			l-1.254-2.768c0.246-0.11,0.493-0.22,0.74-0.327l0,0l1.211,2.786C37.208,11.317,36.974,11.419,36.743,11.523L36.743,11.523
			L36.743,11.523L36.743,11.523z M76.902,10.872l1.163-2.809c0.251,0.103,0.502,0.21,0.75,0.317l0,0l-1.204,2.788
			C77.376,11.069,77.139,10.968,76.902,10.872L76.902,10.872z M37.493,7.898c0.252-0.103,0.505-0.203,0.758-0.301l0,0l1.096,2.835
			c-0.238,0.092-0.477,0.187-0.713,0.282l0,0L37.493,7.898L37.493,7.898z M74.973,10.118l1.045-2.853
			c0.256,0.094,0.51,0.189,0.764,0.287l0,0l-1.089,2.836C75.455,10.298,75.214,10.207,74.973,10.118L74.973,10.118z M40.561,9.98
			L39.54,7.118c0.255-0.09,0.512-0.181,0.768-0.267l0,0l0.979,2.877c-0.242,0.083-0.483,0.167-0.723,0.253l0,0H40.561L40.561,9.98z
			 M73.013,9.447l0.927-2.894c0.26,0.082,0.518,0.168,0.775,0.254l0,0l-0.971,2.88C73.503,9.603,73.258,9.524,73.013,9.447
			L73.013,9.447z M41.616,6.424c0.26-0.08,0.52-0.159,0.779-0.235l0,0l0.858,2.916c-0.245,0.071-0.49,0.146-0.733,0.222l0,0
			L41.616,6.424L41.616,6.424z M71.036,8.857l0.807-2.93C72.103,6,72.364,6.073,72.624,6.149l0,0l-0.852,2.917
			C71.528,8.996,71.281,8.925,71.036,8.857L71.036,8.857z M43.719,5.817c0.262-0.071,0.524-0.14,0.787-0.204l0,0l0.738,2.946
			c-0.248,0.064-0.494,0.127-0.742,0.193l0,0L43.719,5.817L43.719,5.817z M69.034,8.349l0.687-2.961
			c0.265,0.062,0.528,0.126,0.79,0.189l0,0l-0.73,2.95C69.532,8.467,69.284,8.407,69.034,8.349L69.034,8.349z M45.845,5.296
			c0.265-0.06,0.528-0.116,0.794-0.171l0,0l0.618,2.975c-0.251,0.053-0.5,0.106-0.749,0.163l0,0L45.845,5.296L45.845,5.296z
			 M67.013,7.925L67.013,7.925l0.563-2.984c0.268,0.049,0.533,0.102,0.799,0.155l0,0l-0.609,2.977
			C67.515,8.022,67.266,7.972,67.013,7.925L67.013,7.925z M47.992,4.862c0.266-0.048,0.533-0.094,0.8-0.138l0,0l0.496,2.997
			c-0.252,0.041-0.504,0.086-0.756,0.132l0,0L47.992,4.862L47.992,4.862z M64.977,7.585l0.44-3.007
			c0.269,0.039,0.537,0.08,0.806,0.124l0,0l-0.488,2.999C65.483,7.66,65.231,7.62,64.977,7.585L64.977,7.585z M50.57,7.527
			L50.57,7.527L50.57,7.527L50.57,7.527L50.57,7.527L50.57,7.527z M50.153,4.517c0.268-0.037,0.536-0.072,0.806-0.104l0,0
			l0.372,3.017c-0.254,0.03-0.507,0.062-0.76,0.098l0,0L50.153,4.517L50.153,4.517z M62.928,7.327h0.002l0.316-3.023
			c0.271,0.028,0.539,0.06,0.809,0.091l0,0L63.69,7.412C63.436,7.382,63.184,7.352,62.928,7.327L62.928,7.327z M52.327,4.262
			c0.27-0.025,0.539-0.051,0.809-0.073l0,0l0.25,3.03c-0.255,0.02-0.51,0.042-0.764,0.067l0,0L52.327,4.262L52.327,4.262z
			 M60.872,7.152H60.87l0.196-3.033c0.27,0.019,0.541,0.037,0.81,0.058l0,0l-0.241,3.029C61.381,7.185,61.128,7.169,60.872,7.152
			L60.872,7.152z M54.508,4.094c0.269-0.016,0.54-0.029,0.812-0.039l0,0l0.125,3.035c-0.256,0.012-0.512,0.024-0.766,0.038l0,0
			L54.508,4.094L54.508,4.094z M58.807,7.061l0.072-3.038c0.271,0.007,0.542,0.014,0.813,0.025l0,0l-0.118,3.037
			C59.32,7.076,59.065,7.067,58.807,7.061L58.807,7.061z M56.692,4.014c0.269-0.004,0.543-0.007,0.814-0.008l0,0l0.003,3.039
			c-0.257,0.002-0.513,0.002-0.769,0.008l0,0L56.692,4.014L56.692,4.014z"/>
	</g>
	<g>
		<g>
			<path fill="#2579CC" d="M76.694,84.762c-0.265,1.006-1.294,1.608-2.299,1.343c-1.007-0.264-1.607-1.293-1.344-2.3
				c0.264-1.006,1.294-1.607,2.301-1.342C76.359,82.727,76.958,83.758,76.694,84.762z"/>
			<path fill="#2579CC" d="M72.073,80.12c-0.736-0.736-0.736-1.929,0-2.665c0.734-0.734,1.928-0.734,2.663-0.001
				c0.736,0.737,0.735,1.928-0.001,2.663C73.999,80.856,72.807,80.856,72.073,80.12z"/>
			<path fill="#2579CC" d="M79.229,75.123c-0.264,1.008-1.295,1.61-2.299,1.342c-1.006-0.264-1.607-1.292-1.342-2.296
				c0.263-1.008,1.293-1.61,2.299-1.346C78.895,73.088,79.497,74.116,79.229,75.123z"/>
			<circle fill="#2579CC" cx="83.024" cy="76.123" r="1.883"/>
			<path fill="#2579CC" d="M86.044,82.113c-0.265,1.004-1.296,1.604-2.302,1.34c-1.006-0.263-1.606-1.292-1.342-2.298
				c0.263-1.006,1.296-1.608,2.3-1.342C85.705,80.077,86.305,81.107,86.044,82.113z"/>
			<path fill="#2579CC" d="M82.31,86.24c-0.264,1.007-1.294,1.608-2.302,1.345c-1.006-0.266-1.605-1.295-1.344-2.304
				c0.268-1.006,1.297-1.605,2.301-1.342C81.973,84.205,82.575,85.234,82.31,86.24z"/>
			<path fill="#2579CC" d="M80.684,80.702c-0.266,1.006-1.295,1.608-2.301,1.343c-1.006-0.265-1.607-1.295-1.344-2.302
				c0.266-1.004,1.295-1.604,2.301-1.34C80.346,78.667,80.947,79.696,80.684,80.702z"/>
			<path fill="#2579CC" d="M76.694,84.762c-0.265,1.006-1.294,1.608-2.299,1.343c-1.007-0.264-1.607-1.293-1.344-2.3
				c0.264-1.006,1.294-1.607,2.301-1.342C76.359,82.727,76.958,83.758,76.694,84.762z"/>
			<path fill="#2579CC" d="M72.073,80.12c-0.736-0.736-0.736-1.929,0-2.665c0.734-0.734,1.928-0.734,2.663-0.001
				c0.736,0.737,0.735,1.928-0.001,2.663C73.999,80.856,72.807,80.856,72.073,80.12z"/>
			<path fill="#2579CC" d="M79.229,75.123c-0.264,1.008-1.295,1.61-2.299,1.342c-1.006-0.264-1.607-1.292-1.342-2.296
				c0.263-1.008,1.293-1.61,2.299-1.346C78.895,73.088,79.497,74.116,79.229,75.123z"/>
			<circle fill="#2579CC" cx="83.024" cy="76.123" r="1.883"/>
			<path fill="#2579CC" d="M86.044,82.113c-0.265,1.004-1.296,1.604-2.302,1.34c-1.006-0.263-1.606-1.292-1.342-2.298
				c0.263-1.006,1.296-1.608,2.3-1.342C85.705,80.077,86.305,81.107,86.044,82.113z"/>
			<path fill="#2579CC" d="M82.31,86.24c-0.264,1.007-1.294,1.608-2.302,1.345c-1.006-0.266-1.605-1.295-1.344-2.304
				c0.268-1.006,1.297-1.605,2.301-1.342C81.973,84.205,82.575,85.234,82.31,86.24z"/>
			<path fill="#2579CC" d="M80.684,80.702c-0.266,1.006-1.295,1.608-2.301,1.343c-1.006-0.265-1.607-1.295-1.344-2.302
				c0.266-1.004,1.295-1.604,2.301-1.34C80.346,78.667,80.947,79.696,80.684,80.702z"/>
		</g>
		<path fill="#2579CC" d="M69.202,84.034c-0.262,1.006-1.293,1.606-2.299,1.342c-1.006-0.265-1.606-1.295-1.34-2.298
			c0.262-1.008,1.293-1.609,2.297-1.345C68.866,81.997,69.467,83.028,69.202,84.034z"/>
		<g>
			<path fill="#2579CC" d="M51.524,91.18c-0.898,0.525-2.053,0.222-2.575-0.677c-0.525-0.897-0.222-2.05,0.678-2.577
				c0.898-0.523,2.05-0.22,2.576,0.679C52.725,89.504,52.421,90.655,51.524,91.18z"/>
			<circle fill="#2579CC" cx="53.423" cy="84.628" r="1.883"/>
			<path fill="#2579CC" d="M60.131,86.158c-0.896,0.525-2.053,0.222-2.574-0.677c-0.523-0.898-0.223-2.051,0.676-2.574
				c0.896-0.526,2.053-0.223,2.577,0.674C61.335,84.481,61.033,85.635,60.131,86.158z"/>
			<circle fill="#2579CC" cx="62.109" cy="89.547" r="1.884"/>
			<path fill="#2579CC" d="M60.008,95.917c-0.898,0.524-2.051,0.22-2.576-0.679c-0.524-0.896-0.221-2.048,0.678-2.574
				c0.896-0.526,2.053-0.22,2.574,0.679C61.208,94.239,60.905,95.392,60.008,95.917z"/>
			<path fill="#2579CC" d="M54.45,96.197c-0.898,0.525-2.053,0.222-2.576-0.677c-0.525-0.9-0.221-2.053,0.678-2.578
				c0.898-0.522,2.051-0.221,2.574,0.678C55.651,94.518,55.349,95.673,54.45,96.197z"/>
			<path fill="#2579CC" d="M57.215,91.132c-0.898,0.523-2.052,0.222-2.576-0.678s-0.221-2.053,0.679-2.579
				c0.899-0.521,2.052-0.217,2.574,0.68C58.417,89.453,58.114,90.606,57.215,91.132z"/>
			<path fill="#2579CC" d="M51.524,91.18c-0.898,0.525-2.053,0.222-2.575-0.677c-0.525-0.897-0.222-2.05,0.678-2.577
				c0.898-0.523,2.05-0.22,2.576,0.679C52.725,89.504,52.421,90.655,51.524,91.18z"/>
			<circle fill="#2579CC" cx="53.423" cy="84.628" r="1.883"/>
			<path fill="#2579CC" d="M60.131,86.158c-0.896,0.525-2.053,0.222-2.574-0.677c-0.523-0.898-0.223-2.051,0.676-2.574
				c0.896-0.526,2.053-0.223,2.577,0.674C61.335,84.481,61.033,85.635,60.131,86.158z"/>
			<circle fill="#2579CC" cx="62.109" cy="89.547" r="1.884"/>
			<path fill="#2579CC" d="M60.008,95.917c-0.898,0.524-2.051,0.22-2.576-0.679c-0.524-0.896-0.221-2.048,0.678-2.574
				c0.896-0.526,2.053-0.22,2.574,0.679C61.208,94.239,60.905,95.392,60.008,95.917z"/>
			<path fill="#2579CC" d="M54.45,96.197c-0.898,0.525-2.053,0.222-2.576-0.677c-0.525-0.9-0.221-2.053,0.678-2.578
				c0.898-0.522,2.051-0.221,2.574,0.678C55.651,94.518,55.349,95.673,54.45,96.197z"/>
			<path fill="#2579CC" d="M57.215,91.132c-0.898,0.523-2.052,0.222-2.576-0.678s-0.221-2.053,0.679-2.579
				c0.899-0.521,2.052-0.217,2.574,0.68C58.417,89.453,58.114,90.606,57.215,91.132z"/>
		</g>
		<path fill="#2579CC" d="M46.741,85.368c-0.896,0.525-2.05,0.221-2.574-0.678c-0.524-0.897-0.219-2.05,0.678-2.573
			c0.898-0.526,2.052-0.223,2.574,0.676C47.944,83.689,47.641,84.844,46.741,85.368z"/>
		<g>
			<path fill="#2579CC" d="M29.241,77.883c-1.004-0.264-1.607-1.295-1.342-2.3c0.264-1.007,1.293-1.607,2.301-1.344
				c1.006,0.265,1.607,1.295,1.342,2.302C31.276,77.547,30.247,78.146,29.241,77.883z"/>
			<path fill="#2579CC" d="M33.885,73.26c0.734-0.734,1.928-0.734,2.664,0c0.734,0.735,0.734,1.93,0,2.663
				c-0.736,0.738-1.929,0.736-2.664,0C33.148,75.188,33.148,73.995,33.885,73.26z"/>
			<path fill="#2579CC" d="M38.88,80.417c-1.006-0.264-1.608-1.293-1.342-2.299c0.266-1.006,1.293-1.606,2.298-1.343
				c1.007,0.264,1.609,1.295,1.345,2.301C40.915,80.083,39.886,80.685,38.88,80.417z"/>
			<path fill="#2579CC" d="M36.548,82.88c0.735-0.734,1.927-0.734,2.663,0c0.736,0.736,0.736,1.929,0.002,2.663
				c-0.736,0.738-1.93,0.738-2.666,0C35.812,84.808,35.812,83.616,36.548,82.88z"/>
			<path fill="#2579CC" d="M31.891,87.231c-1.005-0.264-1.605-1.295-1.342-2.302c0.264-1.006,1.293-1.605,2.301-1.343
				c1.006,0.264,1.607,1.298,1.34,2.302C33.926,86.893,32.896,87.494,31.891,87.231z"/>
			<path fill="#2579CC" d="M27.762,83.498c-1.006-0.264-1.607-1.295-1.343-2.299c0.265-1.008,1.295-1.608,2.303-1.345
				c1.006,0.267,1.607,1.295,1.342,2.301C29.799,83.161,28.77,83.763,27.762,83.498z"/>
			<path fill="#2579CC" d="M33.301,81.872c-1.006-0.264-1.607-1.294-1.342-2.301c0.264-1.006,1.293-1.606,2.301-1.343
				c1.006,0.267,1.605,1.296,1.341,2.301C35.337,81.534,34.307,82.136,33.301,81.872z"/>
			<path fill="#2579CC" d="M29.241,77.883c-1.004-0.264-1.607-1.295-1.342-2.3c0.264-1.007,1.293-1.607,2.301-1.344
				c1.006,0.265,1.607,1.295,1.342,2.302C31.276,77.547,30.247,78.146,29.241,77.883z"/>
			<path fill="#2579CC" d="M33.885,73.26c0.734-0.734,1.928-0.734,2.664,0c0.734,0.735,0.734,1.93,0,2.663
				c-0.736,0.738-1.929,0.736-2.664,0C33.148,75.188,33.148,73.995,33.885,73.26z"/>
			<path fill="#2579CC" d="M38.88,80.417c-1.006-0.264-1.608-1.293-1.342-2.299c0.266-1.006,1.293-1.606,2.298-1.343
				c1.007,0.264,1.609,1.295,1.345,2.301C40.915,80.083,39.886,80.685,38.88,80.417z"/>
			<path fill="#2579CC" d="M36.548,82.88c0.735-0.734,1.927-0.734,2.663,0c0.736,0.736,0.736,1.929,0.002,2.663
				c-0.736,0.738-1.93,0.738-2.666,0C35.812,84.808,35.812,83.616,36.548,82.88z"/>
			<path fill="#2579CC" d="M31.891,87.231c-1.005-0.264-1.605-1.295-1.342-2.302c0.264-1.006,1.293-1.605,2.301-1.343
				c1.006,0.264,1.607,1.298,1.34,2.302C33.926,86.893,32.896,87.494,31.891,87.231z"/>
			<path fill="#2579CC" d="M27.762,83.498c-1.006-0.264-1.607-1.295-1.343-2.299c0.265-1.008,1.295-1.608,2.303-1.345
				c1.006,0.267,1.607,1.295,1.342,2.301C29.799,83.161,28.77,83.763,27.762,83.498z"/>
			<path fill="#2579CC" d="M33.301,81.872c-1.006-0.264-1.607-1.294-1.342-2.301c0.264-1.006,1.293-1.606,2.301-1.343
				c1.006,0.267,1.605,1.296,1.341,2.301C35.337,81.534,34.307,82.136,33.301,81.872z"/>
		</g>
		<path fill="#2579CC" d="M29.969,70.39c-1.006-0.262-1.605-1.293-1.341-2.3c0.264-1.005,1.294-1.604,2.298-1.341
			c1.008,0.264,1.609,1.294,1.343,2.298C32.006,70.055,30.977,70.655,29.969,70.39z"/>
		<g>
			<path fill="#2579CC" d="M22.822,52.976c-0.523-0.897-0.222-2.052,0.677-2.575c0.898-0.525,2.051-0.221,2.578,0.678
				c0.523,0.896,0.221,2.051-0.68,2.575C24.499,54.178,23.347,53.873,22.822,52.976z"/>
			<circle fill="#2579CC" cx="29.375" cy="54.875" r="1.884"/>
			<path fill="#2579CC" d="M27.844,61.585c-0.523-0.897-0.221-2.053,0.678-2.576c0.898-0.524,2.051-0.221,2.574,0.678
				c0.526,0.896,0.223,2.052-0.676,2.577C29.522,62.787,28.368,62.486,27.844,61.585z"/>
			<circle fill="#2579CC" cx="24.456" cy="63.561" r="1.884"/>
			<path fill="#2579CC" d="M18.087,61.461c-0.524-0.898-0.221-2.05,0.678-2.576c0.898-0.526,2.05-0.222,2.576,0.679
				c0.523,0.898,0.219,2.051-0.679,2.573C19.764,62.661,18.61,62.357,18.087,61.461z"/>
			<path fill="#2579CC" d="M17.805,55.903c-0.525-0.898-0.221-2.053,0.678-2.577c0.899-0.525,2.052-0.222,2.578,0.678
				c0.522,0.9,0.221,2.052-0.679,2.575C19.485,57.103,18.331,56.802,17.805,55.903z"/>
			<path fill="#2579CC" d="M22.872,58.669c-0.523-0.899-0.222-2.052,0.678-2.577c0.898-0.524,2.053-0.222,2.578,0.679
				c0.523,0.9,0.219,2.051-0.68,2.576C24.549,59.869,23.397,59.566,22.872,58.669z"/>
			<path fill="#2579CC" d="M22.822,52.976c-0.523-0.897-0.222-2.052,0.677-2.575c0.898-0.525,2.051-0.221,2.578,0.678
				c0.523,0.896,0.221,2.051-0.68,2.575C24.499,54.178,23.347,53.873,22.822,52.976z"/>
			<circle fill="#2579CC" cx="29.375" cy="54.875" r="1.884"/>
			<path fill="#2579CC" d="M27.844,61.585c-0.523-0.897-0.221-2.053,0.678-2.576c0.898-0.524,2.051-0.221,2.574,0.678
				c0.526,0.896,0.223,2.052-0.676,2.577C29.522,62.787,28.368,62.486,27.844,61.585z"/>
			<circle fill="#2579CC" cx="24.456" cy="63.561" r="1.884"/>
			<path fill="#2579CC" d="M18.087,61.461c-0.524-0.898-0.221-2.05,0.678-2.576c0.898-0.526,2.05-0.222,2.576,0.679
				c0.523,0.898,0.219,2.051-0.679,2.573C19.764,62.661,18.61,62.357,18.087,61.461z"/>
			<path fill="#2579CC" d="M17.805,55.903c-0.525-0.898-0.221-2.053,0.678-2.577c0.899-0.525,2.052-0.222,2.578,0.678
				c0.522,0.9,0.221,2.052-0.679,2.575C19.485,57.103,18.331,56.802,17.805,55.903z"/>
			<path fill="#2579CC" d="M22.872,58.669c-0.523-0.899-0.222-2.052,0.678-2.577c0.898-0.524,2.053-0.222,2.578,0.679
				c0.523,0.9,0.219,2.051-0.68,2.576C24.549,59.869,23.397,59.566,22.872,58.669z"/>
		</g>
		<path fill="#2579CC" d="M28.634,48.194c-0.524-0.898-0.221-2.05,0.679-2.574c0.898-0.525,2.05-0.221,2.572,0.676
			c0.526,0.899,0.223,2.052-0.675,2.575C30.312,49.397,29.16,49.093,28.634,48.194z"/>
		<g>
			<path fill="#2579CC" d="M36.12,30.428c0.266-1.004,1.295-1.606,2.301-1.341c1.006,0.264,1.606,1.293,1.344,2.3
				c-0.266,1.005-1.295,1.607-2.303,1.344C36.456,32.464,35.856,31.433,36.12,30.428z"/>
			<path fill="#2579CC" d="M40.743,35.073c0.735,0.733,0.735,1.928,0,2.663c-0.734,0.734-1.93,0.734-2.664,0
				c-0.735-0.736-0.734-1.929,0.001-2.663C38.815,34.335,40.008,34.337,40.743,35.073z"/>
			<path fill="#2579CC" d="M33.586,40.068c0.263-1.008,1.295-1.61,2.298-1.344c1.006,0.266,1.608,1.294,1.344,2.298
				c-0.263,1.008-1.294,1.609-2.301,1.346C33.921,42.101,33.317,41.073,33.586,40.068z"/>
			<circle fill="#2579CC" cx="29.791" cy="39.068" r="1.884"/>
			<path fill="#2579CC" d="M26.772,33.078c0.265-1.004,1.295-1.605,2.301-1.341c1.006,0.264,1.605,1.293,1.342,2.301
				c-0.264,1.004-1.297,1.606-2.299,1.341C27.11,35.114,26.508,34.084,26.772,33.078z"/>
			<path fill="#2579CC" d="M30.503,28.949c0.266-1.005,1.297-1.606,2.303-1.343c1.006,0.266,1.606,1.295,1.343,2.303
				c-0.266,1.006-1.292,1.607-2.3,1.341C30.842,30.986,30.239,29.957,30.503,28.949z"/>
			<path fill="#2579CC" d="M32.13,34.489c0.266-1.006,1.296-1.609,2.303-1.343c1.006,0.265,1.607,1.295,1.342,2.302
				c-0.266,1.006-1.295,1.605-2.301,1.342C32.468,36.524,31.867,35.495,32.13,34.489z"/>
			<path fill="#2579CC" d="M36.12,30.428c0.266-1.004,1.295-1.606,2.301-1.341c1.006,0.264,1.606,1.293,1.344,2.3
				c-0.266,1.005-1.295,1.607-2.303,1.344C36.456,32.464,35.856,31.433,36.12,30.428z"/>
			<path fill="#2579CC" d="M40.743,35.073c0.735,0.733,0.735,1.928,0,2.663c-0.734,0.734-1.93,0.734-2.664,0
				c-0.735-0.736-0.734-1.929,0.001-2.663C38.815,34.335,40.008,34.337,40.743,35.073z"/>
			<path fill="#2579CC" d="M33.586,40.068c0.263-1.008,1.295-1.61,2.298-1.344c1.006,0.266,1.608,1.294,1.344,2.298
				c-0.263,1.008-1.294,1.609-2.301,1.346C33.921,42.101,33.317,41.073,33.586,40.068z"/>
			<circle fill="#2579CC" cx="29.791" cy="39.068" r="1.884"/>
			<path fill="#2579CC" d="M26.772,33.078c0.265-1.004,1.295-1.605,2.301-1.341c1.006,0.264,1.605,1.293,1.342,2.301
				c-0.264,1.004-1.297,1.606-2.299,1.341C27.11,35.114,26.508,34.084,26.772,33.078z"/>
			<path fill="#2579CC" d="M30.503,28.949c0.266-1.005,1.297-1.606,2.303-1.343c1.006,0.266,1.606,1.295,1.343,2.303
				c-0.266,1.006-1.292,1.607-2.3,1.341C30.842,30.986,30.239,29.957,30.503,28.949z"/>
			<path fill="#2579CC" d="M32.13,34.489c0.266-1.006,1.296-1.609,2.303-1.343c1.006,0.265,1.607,1.295,1.342,2.302
				c-0.266,1.006-1.295,1.605-2.301,1.342C32.468,36.524,31.867,35.495,32.13,34.489z"/>
		</g>
		<path fill="#2579CC" d="M43.897,31.197c0.262-1.006,1.293-1.607,2.299-1.342c1.006,0.264,1.605,1.295,1.341,2.298
			c-0.263,1.007-1.294,1.609-2.298,1.344C44.231,33.232,43.63,32.204,43.897,31.197z"/>
		<g>
			<path fill="#2579CC" d="M61.292,24.01c0.897-0.523,2.051-0.222,2.574,0.677c0.527,0.899,0.223,2.052-0.677,2.577
				c-0.897,0.523-2.052,0.222-2.575-0.678C60.089,25.687,60.393,24.534,61.292,24.01z"/>
			<path fill="#2579CC" d="M61.276,30.562c0,1.039-0.844,1.884-1.883,1.884c-1.041-0.001-1.885-0.845-1.885-1.884
				c0-1.041,0.846-1.884,1.885-1.882C60.434,28.678,61.276,29.521,61.276,30.562z"/>
			<path fill="#2579CC" d="M52.684,29.033c0.896-0.525,2.053-0.222,2.574,0.677c0.523,0.898,0.222,2.051-0.677,2.574
				c-0.898,0.526-2.052,0.223-2.576-0.676C51.481,30.71,51.781,29.556,52.684,29.033z"/>
			<circle fill="#2579CC" cx="50.707" cy="25.643" r="1.884"/>
			<path fill="#2579CC" d="M52.807,19.273c0.898-0.523,2.051-0.219,2.576,0.68c0.525,0.898,0.221,2.05-0.678,2.574
				c-0.897,0.524-2.055,0.22-2.574-0.679C51.608,20.952,51.911,19.798,52.807,19.273z"/>
			<path fill="#2579CC" d="M58.365,18.994c0.897-0.525,2.054-0.222,2.577,0.677c0.525,0.898,0.221,2.053-0.678,2.577
				c-0.9,0.524-2.051,0.222-2.576-0.679C57.164,20.673,57.466,19.517,58.365,18.994z"/>
			<path fill="#2579CC" d="M55.6,24.059c0.898-0.523,2.052-0.222,2.576,0.678c0.523,0.899,0.22,2.053-0.679,2.577
				c-0.9,0.524-2.052,0.219-2.575-0.678C54.397,25.738,54.702,24.584,55.6,24.059z"/>
			<path fill="#2579CC" d="M61.292,24.01c0.897-0.523,2.051-0.222,2.574,0.677c0.527,0.899,0.223,2.052-0.677,2.577
				c-0.897,0.523-2.052,0.222-2.575-0.678C60.089,25.687,60.393,24.534,61.292,24.01z"/>
			<path fill="#2579CC" d="M61.276,30.562c0,1.039-0.844,1.884-1.883,1.884c-1.041-0.001-1.885-0.845-1.885-1.884
				c0-1.041,0.846-1.884,1.885-1.882C60.434,28.678,61.276,29.521,61.276,30.562z"/>
			<path fill="#2579CC" d="M52.684,29.033c0.896-0.525,2.053-0.222,2.574,0.677c0.523,0.898,0.222,2.051-0.677,2.574
				c-0.898,0.526-2.052,0.223-2.576-0.676C51.481,30.71,51.781,29.556,52.684,29.033z"/>
			<circle fill="#2579CC" cx="50.707" cy="25.643" r="1.884"/>
			<path fill="#2579CC" d="M52.807,19.273c0.898-0.523,2.051-0.219,2.576,0.68c0.525,0.898,0.221,2.05-0.678,2.574
				c-0.897,0.524-2.055,0.22-2.574-0.679C51.608,20.952,51.911,19.798,52.807,19.273z"/>
			<path fill="#2579CC" d="M58.365,18.994c0.897-0.525,2.054-0.222,2.577,0.677c0.525,0.898,0.221,2.053-0.678,2.577
				c-0.9,0.524-2.051,0.222-2.576-0.679C57.164,20.673,57.466,19.517,58.365,18.994z"/>
			<path fill="#2579CC" d="M55.6,24.059c0.898-0.523,2.052-0.222,2.576,0.678c0.523,0.899,0.22,2.053-0.679,2.577
				c-0.9,0.524-2.052,0.219-2.575-0.678C54.397,25.738,54.702,24.584,55.6,24.059z"/>
		</g>
		<path fill="#2579CC" d="M66.074,29.823c0.896-0.525,2.051-0.222,2.574,0.677c0.524,0.898,0.22,2.051-0.676,2.573
			c-0.899,0.525-2.052,0.223-2.575-0.675C64.872,31.501,65.174,30.347,66.074,29.823z"/>
		<g>
			<path fill="#2579CC" d="M83.359,37.255c1.006,0.264,1.608,1.294,1.343,2.3c-0.264,1.007-1.293,1.606-2.301,1.343
				c-1.005-0.264-1.606-1.294-1.342-2.301C81.325,37.59,82.354,36.991,83.359,37.255z"/>
			<circle fill="#2579CC" cx="77.383" cy="40.545" r="1.884"/>
			<path fill="#2579CC" d="M73.721,34.719c1.005,0.264,1.608,1.297,1.344,2.3c-0.266,1.006-1.295,1.607-2.299,1.344
				c-1.008-0.264-1.611-1.295-1.346-2.302C71.686,35.055,72.715,34.452,73.721,34.719z"/>
			<circle fill="#2579CC" cx="74.721" cy="30.925" r="1.884"/>
			<path fill="#2579CC" d="M80.71,27.906c1.006,0.265,1.607,1.296,1.342,2.302c-0.262,1.006-1.293,1.605-2.301,1.343
				c-1.004-0.266-1.606-1.298-1.341-2.301C78.674,28.246,79.704,27.643,80.71,27.906z"/>
			<path fill="#2579CC" d="M84.838,31.638c1.007,0.265,1.608,1.295,1.343,2.3c-0.265,1.008-1.294,1.608-2.302,1.345
				c-1.006-0.267-1.605-1.295-1.342-2.301C82.801,31.976,83.833,31.375,84.838,31.638z"/>
			<path fill="#2579CC" d="M79.299,33.264c1.006,0.266,1.608,1.295,1.343,2.302c-0.264,1.006-1.295,1.607-2.302,1.343
				c-1.006-0.265-1.605-1.296-1.341-2.3C77.264,33.603,78.294,33.001,79.299,33.264z"/>
			<path fill="#2579CC" d="M83.359,37.255c1.006,0.264,1.608,1.294,1.343,2.3c-0.264,1.007-1.293,1.606-2.301,1.343
				c-1.005-0.264-1.606-1.294-1.342-2.301C81.325,37.59,82.354,36.991,83.359,37.255z"/>
			<circle fill="#2579CC" cx="77.383" cy="40.545" r="1.884"/>
			<path fill="#2579CC" d="M73.721,34.719c1.005,0.264,1.608,1.297,1.344,2.3c-0.266,1.006-1.295,1.607-2.299,1.344
				c-1.008-0.264-1.611-1.295-1.346-2.302C71.686,35.055,72.715,34.452,73.721,34.719z"/>
			<circle fill="#2579CC" cx="74.721" cy="30.925" r="1.884"/>
			<path fill="#2579CC" d="M80.71,27.906c1.006,0.265,1.607,1.296,1.342,2.302c-0.262,1.006-1.293,1.605-2.301,1.343
				c-1.004-0.266-1.606-1.298-1.341-2.301C78.674,28.246,79.704,27.643,80.71,27.906z"/>
			<path fill="#2579CC" d="M84.838,31.638c1.007,0.265,1.608,1.295,1.343,2.3c-0.265,1.008-1.294,1.608-2.302,1.345
				c-1.006-0.267-1.605-1.295-1.342-2.301C82.801,31.976,83.833,31.375,84.838,31.638z"/>
			<path fill="#2579CC" d="M79.299,33.264c1.006,0.266,1.608,1.295,1.343,2.302c-0.264,1.006-1.295,1.607-2.302,1.343
				c-1.006-0.265-1.605-1.296-1.341-2.3C77.264,33.603,78.294,33.001,79.299,33.264z"/>
		</g>
	</g>
</g>
<g>
</g>
<g>
</g>
<g>
</g>
<g>
</g>
<g>
</g>
<g>
</g>
<g>
</g>
<g>
</g>
<g>
</g>
<g>
</g>
<g>
</g>
<g>
</g>
<g>
</g>
<g>
</g>
<g>
</g>
</svg>
